<?xml version="1.0" standalone="no"?>
<!DOCTYPE svg PUBLIC "-//W3C//DTD SVG 1.1//EN" "http://www.w3.org/Graphics/SVG/1.1/DTD/svg11.dtd">
<svg xmlns="http://www.w3.org/2000/svg">
<defs >
<font id="Alegreya" horiz-adv-x="481" ><font-face
    font-family="Alegreya"
    units-per-em="1000"
    panose-1="2 0 5 3 5 0 0 2 0 4"
    ascent="1016"
    descent="-345"
    alphabetic="0" />
<glyph unicode=" " glyph-name="space" horiz-adv-x="137" />
<glyph unicode="!" glyph-name="exclam" horiz-adv-x="275" d="M99 -9Q58 -9 37 12T16 71Q16 125 47 157T131 190Q170 190 191 169T213 109Q213 55 182 23T99 -9ZM93 667L114 691L305 717L327 691L202 261L96 245L78 265L93 667Z" />
<glyph unicode="&quot;" glyph-name="quotedbl" horiz-adv-x="338" d="M215 647Q207 614 196 578Q187 547 174 508T147 426L70 401L52 407Q58 452 62 494T69 571Q72 610 73 645L208 659L215 647ZM382 647Q374 614 363 578Q354 547 341 508T314 426L238 401L220
407Q226 452 230 494T236 571Q239 610 240 645L375 659L382 647Z" />
<glyph unicode="#" glyph-name="numbersign" horiz-adv-x="543" d="M51 352L77 457L164 456L194 573L304 582L317 575L281 456H358L388 573L497 582L510 575L475 459L557 462L562 447L541 341L441 340L437 324L420 264L503 267L508 252L487 146L389 145L363 45L255
31L243 40L273 145H195L170 45L62 31L50 40L79 144H4L-3 157L23 262L113 261L125 306L133 339H58L51 352ZM227 261H306L318 306L327 340H247L244 324L227 261Z" />
<glyph unicode="$" glyph-name="dollar" horiz-adv-x="444" d="M68 -158L105 -4Q81 -1 62 4T29 14Q13 19 1 25L-8 40Q-1 63 6 86Q12 106 17 127T27 167L141 175Q138 146 152 126T197 105Q218 105 230 112T243 130Q243 149 218 161T159 187Q137 197 115 208T75
236T46 275T34 327Q34 399 86 446T231 507L265 644L384 658L389 649L355 511Q381 509 402 506T439 499Q457 495 473 491L482 472Q475 452 468 430Q462 411 455 387T443 336L337 329L327 336Q327 340 328 344Q328 347 328 349T329 352Q329 373 316 384T281 395Q261
395 249 387T236 364Q236 349 252 339T292 318Q315 309 342 298T392 270T430 229T445 170Q445 95 388 50T228 -6L192 -151L75 -164L68 -158Z" />
<glyph unicode="%" glyph-name="percent" horiz-adv-x="740" d="M178 428Q220 428 236 439T253 476Q253 517 181 517Q139 517 123 506T106 469Q106 428 178 428ZM151 290Q92 290 58 325T24 434Q24 489 38 531T77 601T137 644T212 659Q271 659 304 624T337 516Q337
461 323 419T285 348T226 305T151 290ZM577 126Q619 126 635 137T652 174Q652 215 580 215Q538 215 522 204T505 167Q505 126 577 126ZM550 -12Q491 -12 457 23T423 132Q423 187 437 229T476 299T536 342T611 357Q670 357 703 322T736 214Q736 159 722 117T684
46T625 3T550 -12ZM633 623Q581 544 532 467Q511 434 489 399T444 330T401 265T363 207Q329 153 296 100T235 4Q203 -46 174 -91L81 -56L75 -39Q108 7 141 57Q170 99 203 151T269 253L536 679L623 647L633 623Z" />
<glyph unicode="&amp;" glyph-name="ampersand" horiz-adv-x="576" d="M225 457Q225 422 244 400T294 378L528 399Q547 400 563 404T595 415T628 434T669 463L695 440L641 332Q624 300 603 288T545 275H502L497 269Q507 261 512 246T518 214Q518 172 494 132T431
59T342 8T241 -12Q130 -12 72 32T13 160Q13 209 50 252T150 319Q73 370 73 459Q73 498 94 534T150 598T230 643T324 660Q358 660 403 653T491 633L501 617Q494 597 487 573T473 525T463 483T458 455L341 448Q342 456 343 464Q344 470 345 476T346 487Q346 509 334
521T300 534Q266 534 246 513T225 457ZM377 212Q377 241 368 258T341 275H238Q210 261 196 237T181 183Q181 145 203 124T264 103Q315 103 346 132T377 212Z" />
<glyph unicode="&apos;" glyph-name="quotesingle" horiz-adv-x="171" d="M215 647Q207 614 196 578Q187 547 174 508T147 426L70 401L52 407Q58 452 62 494T69 571Q72 610 73 645L208 659L215 647Z" />
<glyph unicode="(" glyph-name="parenleft" horiz-adv-x="300" d="M63 336Q69 382 80 419T107 487T139 542T175 584Q215 626 264 649H282L326 585L324 576Q301 559 281 529Q264 503 247 460T222 351L201 178Q192 105 198 57T215 -21Q227 -55 247 -75L246 -86L176
-146H164Q122 -123 92 -82Q79 -64 68 -41T49 13T39 80T42 163L63 336Z" />
<glyph unicode=")" glyph-name="parenright" horiz-adv-x="304" d="M240 167Q234 121 223 83T196 15T163 -39T128 -81Q87 -123 39 -146H22L-23 -82L-21 -73Q2 -57 22 -27Q39 -1 56 42T82 152L103 325Q112 397 106 446T89 524Q76 558 57 578L58 589L127 649H140Q182
626 212 585Q225 567 236 544T254 490T264 423T262 340L240 167Z" />
<glyph unicode="*" glyph-name="asterisk" horiz-adv-x="348" d="M76 681Q89 674 106 663Q120 654 139 641T181 611L172 562L163 555Q142 561 122 566T86 576Q68 580 51 585Q51 601 53 617Q55 631 57 647T65 678L76 681ZM70 465Q81 475 96 487Q109 498 127 512T168
543L213 519L216 510Q204 492 193 475T173 443Q162 426 154 412Q139 417 124 423Q111 428 96 435T69 453L70 465ZM273 393Q267 406 260 424Q254 439 246 461T229 511L266 546H277Q290 529 302 513T326 484Q338 469 350 456Q341 443 330 431Q321 420 309 408T284
388L273 393ZM405 564Q390 563 371 561Q354 559 331 558T279 558L257 604L261 615Q281 622 300 629T335 643Q353 650 369 656Q378 643 387 629Q395 617 401 602T413 572L405 564ZM284 742Q280 726 275 708Q270 692 264 670T249 620L199 615L191 620Q190 641 189
661T186 699Q184 718 183 736Q198 740 214 744Q228 747 244 749T277 752L284 742Z" />
<glyph unicode="+" glyph-name="plus" horiz-adv-x="491" d="M350 486Q345 460 341 433Q337 410 333 381T324 323Q352 324 379 325T430 327Q456 328 480 329L485 314L455 178L306 177Q302 150 300 125T295 79Q292 56 290 36L157 18L146 27Q148 48 152 73Q154 94
157 121T165 177Q136 176 110 176T62 176H16L9 189L43 324Q63 323 86 323H183L203 480L336 493L350 486Z" />
<glyph unicode="," glyph-name="comma" horiz-adv-x="231" d="M4 145Q31 166 58 177T106 189Q144 189 167 162T191 88Q191 35 147 -21T24 -122L-34 -76V-51Q-5 -30 12 -1T30 55Q30 75 22 96T1 131L4 145Z" />
<glyph unicode="-" glyph-name="hyphen" horiz-adv-x="314" d="M291 310L265 202L37 176L27 194L50 300L199 317Q223 319 238 321T264 325Q275 327 282 328L291 310Z" />
<glyph unicode="." glyph-name="period" horiz-adv-x="231" d="M81 -9Q40 -9 20 12T-1 71Q-1 125 30 157T114 190Q153 190 174 169T195 109Q195 55 164 23T81 -9Z" />
<glyph unicode="/" glyph-name="slash" horiz-adv-x="319" d="M388 655Q357 575 326 496Q313 462 299 426T270 352T243 280T217 215Q194 152 173 95T134 -9Q115 -63 97 -110H-29L-38 -95Q-18 -46 3 8Q21 54 43 111T87 226L254 675H373L388 655Z" />
<glyph unicode="0" glyph-name="zero" horiz-adv-x="450" d="M184 -12Q97 -12 53 41T8 193Q8 266 26 325T79 427T162 492T271 515Q357 515 401 463T445 311Q445 237 427 178T375 76T293 11T184 -12ZM222 179Q281 179 306 198T332 255Q332 320 229 320Q172 320
146 301T120 244Q120 179 222 179Z" />
<glyph unicode="1" glyph-name="one" horiz-adv-x="367" d="M311 400Q305 382 297 357T281 300T269 227T264 135Q264 88 295 88Q303 88 311 88T325 89Q332 89 338 90L341 84L316 -6Q287 -5 260 -3Q237 -2 211 -1T165 0Q138 0 106 -1T45 -5T-1 -8T-20 -10L-2 71Q44
76 66 91T92 139L117 340Q121 375 114 386T78 397Q71 397 64 397T49 395Q41 394 33 394L25 404L42 479Q77 482 109 485T173 493Q208 497 239 501T295 508T333 513T348 515L359 472Q342 460 332 444T311 400Z" />
<glyph unicode="2" glyph-name="two" horiz-adv-x="479" d="M-23 44L54 121Q97 166 125 198T171 253T196 292T205 322Q211 367 165 367Q142 367 115 351T62 304H44L32 408Q150 515 264 515Q336 515 379 481T422 390Q422 374 421 360T414 332T397 301T366 261T315
208T240 137L244 128H271Q307 128 326 148T356 219L473 228Q462 189 452 150Q444 117 435 78T420 6L401 -12Q329 -9 263 -6Q206 -4 147 -2T50 0L-24 -6L-23 44Z" />
<glyph unicode="3" glyph-name="three" horiz-adv-x="437" d="M2 62Q33 44 89 44Q140 44 171 60T202 106Q202 132 178 144T101 156L90 171L91 261L156 274Q186 286 203 306T220 351Q220 366 210 375T183 384Q142 384 77 336Q73 336 70 336T62 335L42 438Q66 454
94 468T150 493T206 509T256 515Q325 515 366 486T407 406Q407 358 373 319T282 263L281 252Q341 233 372 200T403 124Q403 83 373 44T293 -27T183 -76T58 -95Q7 -95 -9 -65T-23 39L2 62Z" />
<glyph unicode="4" glyph-name="four" horiz-adv-x="478" d="M-9 155L280 513Q282 513 284 514T289 515L429 503L388 173H454L463 158L439 45Q431 46 421 46Q413 46 401 46T374 47Q372 23 370 2T367 -36Q365 -55 365 -72L353 -83L187 -95L179 -83Q182 -63 186
-40Q189 -21 193 3T201 52Q143 54 85 54T-22 55L-9 155ZM127 173H217L233 300H222L127 173Z" />
<glyph unicode="5" glyph-name="five" horiz-adv-x="410" d="M383 150Q383 103 354 59T276 -19T167 -74T40 -95Q-10 -95 -28 -65T-41 39L-16 62Q17 44 71 44Q120 44 151 61T183 105Q183 131 149 145T32 169L24 180Q37 234 48 287T67 384Q77 434 84 479L92 487L286
493Q313 494 327 502T352 533L431 538L381 359L359 340Q336 342 310 344Q287 346 256 347T189 348L175 296Q286 278 334 244T383 150Z" />
<glyph unicode="6" glyph-name="six" horiz-adv-x="460" d="M444 511Q411 498 377 478Q348 461 314 434T248 369L252 358L308 379Q374 379 410 339T447 229Q447 174 429 130T377 54T295 5T188 -12Q103 -12 56 39T8 179Q8 240 25 291T71 383T136 456T210 512Q299
568 412 599L424 592L444 511ZM237 259Q220 259 206 254T182 242Q179 225 176 211T173 176Q173 105 216 105Q251 105 263 129T276 199Q276 259 237 259Z" />
<glyph unicode="7" glyph-name="seven" horiz-adv-x="423" d="M163 -95L45 -57L36 -29L270 360L184 351Q163 349 149 345T126 332T109 308T95 269L12 263Q20 302 29 343Q37 378 45 420T60 502L67 507Q84 506 103 505Q120 504 141 504T185 503H402L450 433Q414
369 389 323T342 234T298 149T246 48L191 -95H163Z" />
<glyph unicode="8" glyph-name="eight" horiz-adv-x="458" d="M3 124Q3 154 12 176T37 216T71 246T109 266Q82 289 64 322T45 401Q45 443 64 479T117 542T194 584T287 599Q324 599 355 589T408 560T444 517T457 464Q457 437 449 416T428 377T398 348T364 327Q391
307 410 278T430 202Q430 157 411 118T358 50T280 5T184 -12Q143 -12 110 -2T53 26T16 69T3 124ZM205 96Q231 96 245 110T259 147Q259 169 235 185T177 222Q154 191 154 155Q154 129 168 113T205 96ZM215 436Q215 413 234 399T282 370Q292 384 298 400T305 436Q305
458 294 470T263 483Q241 483 228 470T215 436Z" />
<glyph unicode="9" glyph-name="nine" horiz-adv-x="460" d="M20 -8Q53 5 87 25Q116 42 150 69T215 134L211 145L155 124Q90 124 53 164T16 274Q16 329 34 373T86 449T168 498T275 515Q360 515 408 463T456 324Q456 262 439 212T393 120T328 47T254 -9Q165 -65
52 -96L40 -89L20 -8ZM226 244Q243 244 257 249T280 260Q290 294 290 327Q290 398 248 398Q212 398 200 374T187 304Q187 244 226 244Z" />
<glyph unicode=":" glyph-name="colon" horiz-adv-x="231" d="M86 -9Q45 -9 25 12T4 71Q4 125 35 157T119 190Q158 190 179 169T200 109Q200 55 169 23T86 -9ZM118 256Q77 256 57 277T36 336Q36 390 67 422T151 455Q190 455 211 434T232 374Q232 320 201 288T118 256Z" />
<glyph unicode=";" glyph-name="semicolon" horiz-adv-x="231" d="M8 145Q35 166 62 177T110 189Q148 189 171 162T195 88Q195 35 151 -21T28 -122L-30 -76V-51Q-1 -30 16 -1T34 55Q34 75 26 96T5 131L8 145ZM118 256Q77 256 57 277T36 336Q36 390 67 422T151
455Q190 455 211 434T232 374Q232 320 201 288T118 256Z" />
<glyph unicode="&lt;" glyph-name="less" horiz-adv-x="414" d="M19 199L38 352L219 429Q248 441 275 453T324 476Q349 487 371 499L388 488L409 383Q382 372 353 361Q328 351 299 339T241 315L153 276L152 268L241 219Q265 207 288 196T331 175Q353 164 372 155L379
134L312 42Q294 50 274 61Q257 69 235 80T188 105Q165 116 137 129T84 155Q55 169 25 184L19 199Z" />
<glyph unicode="=" glyph-name="equal" horiz-adv-x="491" d="M473 214L443 78L223 77Q190 77 152 77T81 76H4L-4 89L31 224Q69 223 109 223H252Q281 223 318 223T389 226Q428 227 468 229L473 214ZM497 414L468 278L247 277Q214 277 176 277T105 276H28L21 289L55
424Q93 423 133 423H277Q306 423 343 423T413 426Q452 427 492 429L497 414Z" />
<glyph unicode="&gt;" glyph-name="greater" horiz-adv-x="414" d="M403 342L385 189L204 112Q175 99 147 87T98 65Q72 54 51 42L35 53L13 158Q40 169 69 180Q94 190 123 202T181 226L270 265L271 273L181 322Q157 334 134 345T91 366Q69 377 50 386L44 407L111
499Q128 490 148 480Q165 471 187 460T234 436Q257 425 285 412T338 386Q367 372 397 357L403 342Z" />
<glyph unicode="?" glyph-name="question" horiz-adv-x="371" d="M83 373L88 388L186 435Q239 462 239 497Q239 529 202 548T92 571L80 589L135 707L153 716Q212 714 261 701T346 665T402 612T422 546Q422 520 414 497T384 450T328 400T239 341L236 335L234 266L224
252L104 232L90 240L83 373ZM127 -9Q86 -9 65 12T44 71Q44 125 75 157T159 190Q199 190 220 169T241 109Q241 55 210 23T127 -9Z" />
<glyph unicode="@" glyph-name="at" horiz-adv-x="873" d="M504 -12Q480 -12 465 3T450 42Q450 47 451 53T454 71T461 103T474 158H464Q423 87 393 48T331 -12Q259 -12 220 29T180 145Q180 204 202 262T261 367T342 443T434 472L506 452L511 472L530 484L664 472L672
449Q658 388 645 328Q634 277 623 219T603 112L610 104Q644 104 673 119T724 162T757 227T769 310Q769 370 748 418T688 499T593 550T466 568Q391 568 327 540T216 463T143 348T116 203Q116 31 220 -59T524 -149Q524 -156 524 -162T523 -176L486 -240Q374 -240
285 -212T135 -131T40 -3T7 169Q7 236 25 299T76 419T154 521T254 602T370 654T497 673Q585 673 655 651T775 587T850 485T876 350Q876 267 850 200T776 86T658 14T504 -12ZM377 143Q385 143 398 160T426 206T454 270T478 341Q466 348 454 354Q443 359 431 363T404
367Q397 367 390 353T376 315T367 264T363 207Q363 179 367 161T377 143Z" />
<glyph unicode="A" glyph-name="A" horiz-adv-x="661" d="M593 153Q598 118 609 104T640 86L646 76L628 -3Q604 -3 579 -2Q558 -2 534 -2T490 -1Q455 -1 421 -2T361 -4Q330 -5 302 -6L295 3L311 87Q353 91 365 97T377 121V178Q358 178 343 179Q330 179 319 179T304
180Q297 180 285 179T259 177Q244 176 227 175L214 131Q208 111 208 104Q208 89 231 89H258L265 79L247 -4Q220 -4 194 -3Q171 -2 145 -2T97 -1Q74 -1 51 -1T9 -2H-33L-16 85Q20 94 39 140L250 642L517 658L531 646Q545 537 557 440Q562 399 567 357T577 276T586
205T593 153ZM274 301H322Q333 301 344 301T371 303L361 478H339L274 301Z" />
<glyph unicode="B" glyph-name="B" horiz-adv-x="647" d="M160 0Q137 0 106 -1T47 -4Q14 -6 -20 -7L0 83Q38 90 53 105T74 156L119 513Q124 559 99 559Q94 559 88 559T77 558Q71 557 65 557L55 569L76 649Q115 648 148 648Q177 647 204 647T243 647Q255 647 284
647T345 650Q381 652 424 654Q527 654 583 618T639 515Q639 464 612 423T525 343Q629 299 629 210Q629 100 552 45T320 -11Q311 -10 290 -8T243 -4T195 -1T160 0ZM286 260L269 160Q265 136 280 125T332 114Q370 114 390 135T411 195Q411 242 361 260H286ZM304 389Q319
386 333 383Q345 381 357 380T378 378Q391 388 402 401Q411 412 419 429T427 470Q427 528 345 528Q335 528 332 525T326 514Q322 497 318 476T311 435Q307 412 304 389Z" />
<glyph unicode="C" glyph-name="C" horiz-adv-x="584" d="M279 -11Q153 -11 86 58T18 259Q18 456 111 557T386 659Q417 659 455 655T528 646Q568 640 608 633L614 613Q605 585 595 552Q587 523 578 484T560 399L404 390Q406 406 409 421Q411 433 413 445T415 465Q415
492 398 506T349 521Q322 521 303 507T271 463T254 384T248 268Q248 193 263 162T316 130Q334 130 347 135T370 153T387 189T402 246L557 256Q550 221 543 185Q537 154 531 117T520 43L505 27Q475 16 439 8Q408 0 368 -5T279 -11Z" />
<glyph unicode="D" glyph-name="D" horiz-adv-x="660" d="M279 -12Q252 -9 225 -6Q202 -4 176 -2T126 0Q105 0 81 -1T34 -4Q8 -6 -16 -8L4 85Q22 88 34 93T54 107T67 131T76 168L117 503Q121 535 118 546T100 557Q95 557 90 557T79 556Q74 555 69 555L61 569L80
650Q111 649 139 648Q163 647 188 647T229 647Q246 647 271 647T322 650Q351 651 382 653Q519 653 592 590T665 402Q665 309 638 233T559 102T437 18T279 -12ZM343 526Q332 526 328 521T320 499Q318 491 314 462T303 395T291 313T279 234T271 172T267 145Q267 127
273 120T293 113Q363 113 399 185T435 398Q435 469 415 497T343 526Z" />
<glyph unicode="E" glyph-name="E" horiz-adv-x="586" d="M269 151Q269 128 277 122T309 115Q339 115 358 119T391 134T413 166T431 221L560 230L571 215Q562 186 553 153Q545 124 536 87T518 9L501 -7Q455 -6 403 -4Q358 -2 303 -1T190 0Q152 0 115 -1T47 -5Q12
-8 -20 -10L0 82Q37 88 52 106T73 170L116 505Q120 537 116 548T96 559Q92 559 88 559T80 558Q76 557 71 557L61 571L80 650Q121 649 161 648Q196 647 236 647T310 647Q355 647 400 648T485 650T558 654T612 659L623 643Q614 612 605 579Q597 550 590 515T576 444L436
435Q438 444 440 453Q442 461 443 469T444 484Q444 510 426 518T358 527Q338 527 332 522T323 500L303 387Q317 387 339 387T382 386Q393 386 411 386T446 389Q466 390 489 392L499 378L471 263Q450 263 430 264Q413 265 393 265T356 266Q335 266 316 264T283 260Q279
234 274 201T269 151Z" />
<glyph unicode="F" glyph-name="F" horiz-adv-x="540" d="M272 175Q267 139 273 127T305 115Q316 115 326 116T344 119Q353 121 361 123L375 105L349 -3Q317 -3 287 -2Q261 -1 235 -1T191 0Q152 0 115 -1T47 -5Q12 -8 -20 -10L0 82Q37 88 52 106T73 170L116 505Q120
537 116 548T96 559Q92 559 88 559T80 558Q76 557 71 557L61 571L80 650Q121 649 161 648Q196 647 236 647T310 647Q351 647 392 648T469 650T535 654T584 659L595 643Q587 611 580 578Q574 549 567 514T554 444L414 436Q415 445 417 454Q419 462 420 469T421 484Q421
509 407 518T358 527Q338 527 332 522T323 500L300 370L380 369Q391 369 407 369T441 372Q460 373 482 375L493 361L465 246Q445 246 426 247Q409 248 390 248T354 249Q333 249 314 247T281 243L272 175Z" />
<glyph unicode="G" glyph-name="G" horiz-adv-x="618" d="M279 -11Q153 -11 86 58T18 259Q18 456 111 557T386 659Q417 659 455 655T528 646Q568 640 608 633L614 613Q605 590 595 559Q587 533 578 496T560 413L404 404Q406 417 409 429Q411 440 413 450T415 468Q415
495 398 508T349 521Q322 521 303 507T271 463T254 384T248 268Q248 193 263 162T316 130Q328 130 338 132T356 136Q365 139 371 142L378 205Q381 229 376 237T354 246Q348 246 343 246T332 245H323L316 259L339 354H489Q504 354 522 354T557 355T585 357T597 359L600
301Q578 287 568 270T552 226Q549 208 546 185T539 140T534 101T532 76V49Q532 43 533 38L519 22Q494 12 459 5Q429 -1 384 -6T279 -11Z" />
<glyph unicode="H" glyph-name="H" horiz-adv-x="716" d="M680 510Q676 490 671 457T659 385T647 305T636 229T628 168T625 133Q625 109 632 99T656 89Q661 89 666 89T675 90Q679 91 683 92L690 81L671 -2Q654 -1 635 -1Q618 -1 597 -1T552 0H503Q486 0 458 0T404
-1H339L357 86Q392 87 408 104T430 162L443 264H425Q417 264 408 264T390 265Q382 265 364 264T328 260Q306 258 282 256L270 156Q267 133 267 119Q267 100 272 94T292 87Q308 87 312 88Q316 89 318 90L325 80L306 -4Q271 -3 240 -2Q214 -1 187 -1T145 0Q122 0
94 -1T41 -3Q12 -4 -17 -5L1 80Q20 84 33 89T54 104T66 127T73 162L116 508Q120 539 114 549T88 559Q84 559 80 559T72 558H63L56 572L73 647H199Q221 647 254 647T320 649Q357 650 397 652L379 562Q364 559 354 556T338 547T328 532T322 510L302 389L379 386Q412
386 428 386T458 389L473 508Q477 538 471 548T445 559Q440 559 436 559T428 558H419L412 572L429 647H615Q635 647 660 648T709 650Q735 651 762 652L745 564Q727 561 716 558T697 548T687 533T680 510Z" />
<glyph unicode="I" glyph-name="I" horiz-adv-x="359" d="M323 510Q319 486 313 452T301 378T289 297T278 221T270 161T267 125Q267 102 272 95T292 87Q300 87 305 87T315 88Q319 89 323 90L329 80L310 -4Q276 -3 244 -2Q217 -1 190 -1T147 0Q124 0 96 -1T42 -3Q13
-4 -17 -5L1 80Q21 84 34 90T55 105T67 127T73 162L116 508Q120 539 114 549T88 559Q84 559 80 559T72 558H64L56 572L73 647H232Q247 647 275 647T332 649Q365 650 402 652L384 562Q367 559 357 556T340 548T330 533T323 510Z" />
<glyph unicode="J" glyph-name="J" horiz-adv-x="329" d="M108 508Q112 539 108 549T84 559Q78 559 72 559T61 558Q55 557 49 557L42 571L59 647L198 648Q234 648 268 649T329 652Q360 654 387 655L367 562Q353 559 344 556T330 547T322 533T316 510Q309 475 301
424T284 315T267 196T252 85Q245 37 225 -1T170 -71T84 -125T-35 -164L-70 -116L-66 -101Q-33 -78 -12 -57T24 -10T46 49T62 132L108 508Z" />
<glyph unicode="K" glyph-name="K" horiz-adv-x="676" d="M116 508Q120 539 114 549T88 559Q84 559 80 559T72 558H63L56 572L74 648Q114 647 147 647H232Q247 647 275 647T333 649Q366 650 403 652L385 562Q347 552 335 542T320 506L270 156Q265 115 269 101T292
87Q300 87 305 87T315 88Q319 89 323 90L330 80L311 -4Q276 -3 244 -2Q217 -1 190 -1T147 0Q124 0 96 -1T42 -3Q13 -4 -17 -5L1 80Q20 84 33 89T54 104T66 127T73 162L116 508ZM307 347L420 472Q435 488 444 504T454 532Q454 545 447 550T419 558L414 568L433 650Q460
649 486 648Q508 647 532 647T573 647Q586 647 610 647T658 649Q685 650 716 652L723 637L705 562Q683 550 665 537T629 509T596 476T561 435L501 356L566 174Q582 129 600 109T648 84L657 69L637 -5Q600 -8 569 -11Q543 -13 518 -14T483 -16Q445 -16 424 1T387
65L298 317L307 347Z" />
<glyph unicode="L" glyph-name="L" horiz-adv-x="543" d="M189 0Q151 0 114 -1T47 -5Q12 -8 -20 -10L0 82Q37 88 52 106T73 170L115 508Q119 539 113 549T87 559Q83 559 79 559T71 558H62L55 572L72 647H231Q248 647 282 647T352 649Q392 650 437 652L414 554Q363
549 344 539T321 502Q317 480 312 448T301 379T289 306T279 237T272 181T269 147Q269 115 298 115Q323 115 340 121T369 146T390 196T408 278L538 291L548 276Q540 238 530 195Q522 158 512 110T492 9L475 -7Q433 -6 385 -4Q344 -2 294 -1T189 0Z" />
<glyph unicode="M" glyph-name="M" horiz-adv-x="808" d="M293 -12Q282 67 273 128T258 234T247 311T239 363H226Q216 297 209 244Q206 221 203 199T198 159T195 129T193 115Q193 88 221 88Q223 88 227 88T236 89Q240 89 246 90L254 82L231 -4Q200 -3 173 -2Q150
-1 127 -1T91 0Q76 0 56 -1T18 -3T-12 -6T-25 -8L-6 82Q21 85 35 100T57 148Q59 156 65 185T80 255T98 340T116 425T129 493T134 529Q134 535 133 540T126 548T109 553T79 558L72 566L92 652Q122 650 149 649Q172 648 196 648T236 647Q256 647 283 647T334 649Q362
650 390 651Q392 594 397 538T407 436Q412 382 418 333H431Q451 383 471 436Q488 481 508 536T547 647Q595 647 640 646T732 648Q750 649 766 649T795 651Q810 652 823 653L830 649L811 561Q791 560 779 558T759 550T748 535T742 510Q739 487 737 445T732 355T728
259T725 176Q723 127 730 108T759 89Q764 89 769 89T779 90Q783 90 788 91L794 83L775 -3Q757 -3 739 -2Q723 -1 704 -1T668 0Q663 0 648 0T613 -1T571 -2T528 -4T494 -6T476 -8L499 83Q526 86 538 97T554 132Q555 140 556 154T560 187T564 224T569 264Q574 310
580 363H567Q566 360 554 331T521 252T475 137T421 -2L293 -12Z" />
<glyph unicode="N" glyph-name="N" horiz-adv-x="718" d="M496 333L514 516Q516 542 511 550T488 559H458L454 570L469 651Q500 650 530 649Q556 648 584 648T633 647Q654 647 678 647T722 648T756 649T770 650L754 560Q722 555 709 542T691 497L617 0L425 -12Q394
58 367 117T320 221Q296 272 275 315H260L242 137Q239 108 245 97T274 86Q278 86 283 86T294 88Q300 89 306 90L314 81L293 -4Q262 -3 233 -2Q208 -1 183 -1T142 0Q116 0 89 -1T39 -4Q13 -6 -12 -8L9 82Q38 86 52 100T72 145L126 494Q128 511 127 522T119 540T98
550T62 557L52 571L67 652Q89 650 113 649Q133 648 159 648T213 647Q233 647 255 647T297 649Q319 650 341 651Q365 590 390 533T435 431Q459 379 481 333H496Z" />
<glyph unicode="O" glyph-name="O" horiz-adv-x="633" d="M310 114Q336 114 354 130T384 181T401 270T407 402Q407 464 391 493T342 522Q292 522 270 455T247 234Q247 172 262 143T310 114ZM283 -12Q158 -12 88 56T18 256Q18 449 108 554T372 659Q500 659 569
594T638 398Q638 302 615 226T546 97T435 16T283 -12Z" />
<glyph unicode="P" glyph-name="P" horiz-adv-x="591" d="M74 647H214Q231 647 259 647T315 650Q348 651 383 653Q460 653 509 636T586 591T624 533T635 473Q635 419 612 371T550 287T462 230T360 208H277L271 160Q266 119 273 104T311 88Q316 88 321 88T331 89Q336
89 342 90L346 82L326 -4Q292 -3 261 -2Q235 -1 208 -1T164 0Q147 0 117 -1T56 -5Q21 -7 -19 -9L1 83Q37 89 53 107T74 168L116 505Q120 536 116 547T98 559Q92 559 86 559T75 558Q69 557 63 557L55 569L74 647ZM357 321Q395 335 411 369T427 452Q427 492 407 510T341
528Q331 528 328 524T323 506Q316 468 309 424T294 331L357 321Z" />
<glyph unicode="Q" glyph-name="Q" horiz-adv-x="637" d="M273 -12Q153 -9 86 59T18 256Q18 449 108 554T372 659Q500 659 569 594T638 398Q638 258 590 162T448 21V18Q493 -24 547 -48T650 -72Q683 -72 711 -67Q726 -65 740 -62L750 -73L759 -141Q716 -170 679
-192Q647 -211 617 -226T572 -242Q542 -242 516 -234T458 -200T382 -130T273 -12ZM310 114Q336 114 354 130T384 181T401 270T407 402Q407 464 391 493T342 522Q292 522 270 455T247 234Q247 172 262 143T310 114Z" />
<glyph unicode="R" glyph-name="R" horiz-adv-x="661" d="M279 228L271 160Q268 137 268 123T275 102T294 92T331 88L335 80L315 -4Q280 -3 249 -2Q223 -1 196 -1T153 0Q125 0 96 -1T40 -5Q10 -7 -19 -9L1 83Q37 89 53 107T74 168L117 515Q120 540 116 549T98
559Q92 559 86 559T75 558Q69 557 63 557L55 569L75 648Q103 647 129 647H214Q232 647 261 647T319 650Q352 651 388 653Q514 653 581 612T648 489Q648 356 508 276L553 172Q572 129 593 107T635 84L644 68L626 -5L471 -16Q429 -16 407 4T371 75L332 228H279ZM369
344Q439 371 439 458Q439 528 342 528Q331 528 328 524T323 506Q317 471 313 448T306 409T301 380T297 354L369 344Z" />
<glyph unicode="S" glyph-name="S" horiz-adv-x="536" d="M195 -12Q151 -12 115 -6T53 9Q22 19 -3 31L-13 49Q-4 78 4 107Q11 132 17 160T29 214L156 223Q151 175 168 148T227 121Q256 121 274 133T292 166Q292 179 284 189T262 209T230 228T191 246Q164 259 137
274T89 310T53 359T39 425Q39 478 62 521T127 595T228 642T360 659Q400 659 435 655T497 645Q528 639 553 631L563 609Q554 584 546 556Q538 532 531 501T516 435L398 427L387 435Q387 442 388 447Q389 452 389 456T390 463Q390 492 374 506T328 521Q300 521 283
507T265 472Q265 451 284 436T333 407Q361 393 393 378T454 342T500 290T519 216Q519 163 497 121T432 49T330 4T195 -12Z" />
<glyph unicode="T" glyph-name="T" horiz-adv-x="578" d="M225 526Q207 526 195 521T174 500T158 459T143 390L17 382Q24 425 31 470Q37 508 44 554T57 644L72 658L187 647H492L613 658L624 644Q619 599 614 555T605 473Q601 430 597 390L472 382Q474 428 474
456T471 500T456 521T428 526Q424 501 419 466T408 390T397 310T387 235T380 175T377 141Q377 114 387 103T420 91Q429 91 437 91T454 92Q462 93 470 94L474 88L454 -6Q413 -5 375 -3Q343 -2 310 -1T255 0Q231 0 197 -1T131 -5Q94 -7 55 -9L74 83Q104 86 123 90T154
104T172 129T181 168L225 526Z" />
<glyph unicode="U" glyph-name="U" horiz-adv-x="605" d="M251 220Q250 213 250 205T249 192Q247 115 308 115Q343 115 360 135T384 203Q385 215 387 234T393 276T399 325T405 377Q412 437 420 505Q424 537 420 548T402 559Q398 559 395 559T388 558Q384 557 381
557L378 561L400 650Q423 649 445 648Q464 647 483 647T516 647Q539 647 564 647T610 648Q635 649 659 650L640 560Q624 555 615 551T600 542T593 531T589 516L554 234Q537 109 469 49T274 -12Q158 -12 103 29T47 159Q47 178 50 199L88 505Q92 539 89 549T68 559Q64
559 60 559T50 558Q45 557 40 557L38 561L59 650Q87 649 117 648Q143 647 173 647T233 647Q247 647 269 647T313 649Q338 650 365 651L344 558Q318 555 307 544T292 509L251 220Z" />
<glyph unicode="V" glyph-name="V" horiz-adv-x="623" d="M85 493Q80 527 71 542T42 560L36 570L54 649Q77 648 101 648Q121 647 144 647T188 647Q223 647 257 647T317 649Q348 650 376 652L382 643L366 559Q325 554 313 544T300 507Q300 491 300 468T300 419T301
363T303 306Q304 241 306 168H328Q333 182 344 212T368 281T396 360T422 438T441 502T449 537Q449 547 444 552T423 557H399L392 567L410 650Q437 649 463 648Q486 647 511 647T560 647H641Q661 647 680 648L663 561Q646 556 638 546T617 506L418 4L138 -13Q127
100 116 199Q111 241 107 285T98 368T91 440T85 493Z" />
<glyph unicode="W" glyph-name="W" horiz-adv-x="971" d="M508 -13L502 272H488L401 4L131 -13Q121 100 111 199Q107 241 103 285T95 368T88 440T83 493Q76 528 68 542T42 560L36 570L55 649Q77 648 100 648Q120 647 141 647T183 647Q216 647 248 647T307 649Q337
650 364 652L370 643L353 559Q316 553 302 542T288 508Q288 492 288 469T288 419T289 363T290 306Q291 241 293 168H314Q326 202 342 249T375 345T405 436T426 502Q431 524 433 529Q435 549 426 554T384 560L378 570L397 649Q426 648 455 648Q479 647 506 647T556
647Q590 647 622 647T680 649Q710 650 736 652L743 643L726 559Q687 554 674 544T660 508Q660 492 660 469T660 419T661 363T663 306Q664 241 666 168H687Q698 196 711 233T737 310T762 388T783 459T799 512T805 540Q805 551 801 554T780 557H757L751 567L769 650Q794
649 820 648Q842 647 867 647T913 647H991Q1010 647 1028 648L1011 561Q994 555 986 544T966 506L778 4L508 -13Z" />
<glyph unicode="X" glyph-name="X" horiz-adv-x="693" d="M224 346L162 467Q150 491 139 505T115 528T89 541T58 551L54 557L74 648Q94 647 120 647H246Q261 647 289 647T346 650Q379 651 416 653L421 642L404 560Q365 560 365 532Q365 512 378 486T410 424Q421
441 433 459T455 494T473 524T480 544Q480 554 473 557T447 561L445 567L461 647H614Q635 647 657 647T699 648Q721 649 741 650L744 642L728 555Q703 543 684 532T650 509T620 481T591 446L484 301L550 179Q576 134 600 114T660 93L644 -1Q617 -1 592 0Q571 1
549 1T512 2Q495 2 461 1T393 -2Q353 -4 308 -5L302 2L319 86Q348 88 348 109Q348 119 340 133L294 221L253 158Q245 145 239 134T233 113Q233 88 266 88L271 77L256 -4Q223 -3 194 -1Q169 0 144 1T108 2Q93 2 71 1T27 -1Q2 -3 -24 -4L-27 10L-12 90Q-1 95 16 108T51
140T89 178T124 219L224 346Z" />
<glyph unicode="Y" glyph-name="Y" horiz-adv-x="650" d="M332 533Q332 526 335 509T343 471T354 428T365 387H379L429 501Q437 516 442 528T447 547Q447 555 440 558T413 561L411 567L429 646H584Q603 646 623 646T659 648Q677 649 695 650L698 642L680 555Q648
537 615 504T558 429L448 247Q434 221 430 201T422 154Q417 119 426 105T463 91Q472 91 481 91T497 92Q505 93 513 94L517 88L497 -6Q455 -5 416 -3Q383 -2 349 -1T293 0Q269 0 235 -1T169 -5Q132 -7 92 -9L111 83Q142 85 162 89T195 102T213 125T222 162L224 178Q227
200 224 219T208 268L128 467Q117 495 95 516T44 551L40 557L61 648Q94 647 123 647Q148 646 172 646T209 646Q226 646 255 646T314 649Q348 651 386 653L392 642L373 560Q332 560 332 533Z" />
<glyph unicode="Z" glyph-name="Z" horiz-adv-x="578" d="M508 -3L89 3L8 -7L-21 51L353 542L282 532Q253 528 236 522T208 503T192 470T181 418L53 409Q62 452 70 494Q77 530 84 572T97 649L109 660L284 649H609L627 595Q564 520 506 447T399 310T310 193T247
109L346 124Q393 131 418 163T457 266L585 275Q574 229 563 184Q554 145 545 101T531 19L508 -3Z" />
<glyph unicode="[" glyph-name="bracketleft" horiz-adv-x="317" d="M18 -116Q31 -38 42 34Q47 64 52 96T61 159T69 215T75 260Q77 279 79 305T85 361T91 424T97 487Q103 559 111 639L362 650L365 640L347 556L257 539L188 -16L278 -33L281 -44L263 -127L18 -116Z" />
<glyph unicode="\" glyph-name="backslash" horiz-adv-x="319" d="M54 675H173L229 226Q236 169 244 112T260 8Q268 -46 276 -95L263 -110H137Q131 -63 124 -9Q118 37 111 94T96 215Q92 245 87 280T77 352T67 425T57 496Q46 575 34 655L54 675Z" />
<glyph unicode="]" glyph-name="bracketright" horiz-adv-x="317" d="M305 639Q292 559 281 488Q276 457 271 425T262 364T254 308T248 263Q246 244 243 218T237 162T231 99T225 36Q218 -36 212 -116L-39 -127L-42 -117L-23 -33L67 -16L135 539L45 556L42 567L60
650L305 639Z" />
<glyph unicode="^" glyph-name="asciicircum" horiz-adv-x="454" d="M340 476Q350 442 360 409Q368 380 377 348T395 290L441 152L343 96L323 105Q316 127 308 151Q301 171 293 197T276 250L242 352H235L187 262Q172 234 157 205T129 152Q114 124 101 96L0 130L-9
148Q5 170 19 195Q31 216 46 243T77 299L173 477L326 484L340 476Z" />
<glyph unicode="_" glyph-name="underscore" horiz-adv-x="434" d="M404 -112L377 -218Q268 -218 162 -218T-57 -219L-66 -200L-42 -95H312Q335 -95 351 -95T378 -94Q389 -94 397 -93L404 -112Z" />
<glyph unicode="`" glyph-name="grave" horiz-adv-x="386" d="M29 659L101 760H118Q145 735 176 707Q202 683 236 653T305 593L264 532L242 525Q203 548 166 568T98 606Q63 625 31 642L29 659Z" />
<glyph unicode="a" glyph-name="a" horiz-adv-x="528" d="M446 154Q451 154 461 162T498 195L521 191L541 143Q500 97 470 67T415 20T371 -5T329 -12Q278 -12 278 36Q278 41 279 49T283 71T290 106T303 158H293Q273 123 256 96T222 49T191 14T160 -12Q88 -12 49
29T9 145Q9 204 31 262T90 367T171 443T263 472L335 452L340 472L359 484L493 472L501 449Q490 401 479 351Q470 308 460 257T442 157L446 154ZM206 143Q214 143 227 160T254 206T283 269T307 341Q266 367 233 367Q226 367 219 353T205 316T196 265T192 209Q192
180 196 162T206 143Z" />
<glyph unicode="b" glyph-name="b" horiz-adv-x="525" d="M16 74Q40 218 58 333Q66 382 73 430T87 517T97 582T101 615Q101 648 68 648H40L52 730Q86 730 126 732T200 736Q240 739 279 742L295 722Q280 652 266 580Q254 518 240 444T214 302H224Q244 338 261 365T293
412T324 446T354 472Q430 472 471 429T513 307Q513 243 491 186T431 84T343 14T238 -12Q188 -12 149 -3T84 18Q52 31 30 48L16 74ZM320 334Q311 334 298 316T270 270T242 206T219 136Q227 128 237 123Q245 118 255 114T276 110Q288 110 298 122T316 155T328 204T333
266Q333 295 330 314T320 334Z" />
<glyph unicode="c" glyph-name="c" horiz-adv-x="393" d="M253 363Q239 363 227 352T207 319T193 269T188 206Q188 128 236 128Q277 128 311 202L332 199L384 141Q372 109 350 82T299 33T238 0T175 -12Q100 -12 57 36T13 167Q13 232 35 289T95 390T185 458T294
483Q324 483 353 477T403 459L407 441L356 312L313 311Q288 363 253 363Z" />
<glyph unicode="d" glyph-name="d" horiz-adv-x="529" d="M446 154Q448 154 449 154T454 158T469 170T498 195L521 191L541 143Q500 97 470 67T415 20T371 -5T329 -12Q278 -12 278 36Q278 41 279 48T282 69T290 104T303 158H293Q254 90 223 51T160 -12Q88 -12
49 29T9 145Q9 204 31 262T90 367T171 443T263 472L330 453L352 605Q355 629 348 638T320 648H292L304 730Q338 730 378 732T452 736Q492 739 531 742L547 722Q526 612 507 508Q499 463 490 416T473 322T456 234T442 157L446 154ZM206 143Q214 143 227 160T254
206T282 269T307 341Q295 348 283 354Q272 359 260 363T233 367Q226 367 219 353T205 315T196 264T192 208Q192 179 196 161T206 143Z" />
<glyph unicode="e" glyph-name="e" horiz-adv-x="429" d="M434 371Q434 336 421 309T377 258T300 215T185 175Q193 126 240 126Q290 126 331 197L353 194L405 136Q392 105 368 78T314 31T248 0T178 -12Q103 -12 59 38T14 173Q14 237 36 293T97 392T187 458T296
483Q360 483 397 453T434 371ZM259 363Q203 363 188 257Q284 294 284 340Q284 363 259 363Z" />
<glyph unicode="f" glyph-name="f" horiz-adv-x="326" d="M6 384L14 450L102 463L107 511Q111 554 139 595T209 669T301 722T399 742Q428 742 459 738T510 727L514 716L455 585L435 582Q404 606 385 615T347 625Q315 625 300 607T278 541L269 461H394L401 454L389
379L267 380L259 375L218 -6Q213 -48 189 -90T131 -166T55 -221T-24 -242Q-72 -242 -110 -224T-158 -180Q-154 -165 -146 -147T-127 -110T-107 -75T-88 -48H-68Q-64 -92 -48 -109T4 -127Q33 -127 51 -107T69 -46Q69 -32 69 -16T69 8L94 369L83 379H9L6 384Z" />
<glyph unicode="g" glyph-name="g" horiz-adv-x="501" d="M211 143Q219 143 232 160T259 206T287 270T311 342Q300 349 288 354Q277 359 264 363T238 367Q230 367 223 353T209 317T199 266T195 209Q195 179 199 161T211 143ZM168 -8Q155 -16 141 -26T114 -46T95
-62T87 -72Q87 -91 113 -104T178 -117Q229 -117 260 -87T299 0L320 174L310 177Q278 128 257 96T219 44T192 12T168 -8ZM451 35Q448 7 431 -24T387 -86T327 -145T258 -194T187 -229T121 -242Q75 -242 38 -232T-26 -202T-65 -155T-74 -95L-70 -82Q-58 -75 -39 -66T1
-46T45 -25T87 -5L88 2Q52 18 33 54T13 144Q13 203 35 262T94 368T175 444T267 473L339 452L344 473L364 484L497 473L512 445Q506 430 500 409T487 365T477 320T471 281Q469 269 467 239T463 171T457 96T451 35Z" />
<glyph unicode="h" glyph-name="h" horiz-adv-x="524" d="M441 157Q443 157 445 158T453 163T468 176T493 198L517 194L536 146Q497 102 467 72T413 24T368 -1T326 -9Q291 -9 276 5T260 50Q260 66 269 100T290 172T311 243T321 291Q321 319 303 319Q295 319 283
303T255 259T223 191T190 104L183 45Q181 34 169 25T136 9T90 -3T35 -7L15 16Q38 159 57 280Q65 331 73 382T89 478T101 556T109 605Q112 629 105 638T77 648H49L61 730Q95 730 134 732T209 736Q249 739 289 742L304 721Q289 652 275 580Q262 518 248 445T223 302L230
303Q293 448 348 485Q418 485 457 457T497 378Q497 363 489 333T471 269T451 206T438 160L441 157Z" />
<glyph unicode="i" glyph-name="i" horiz-adv-x="304" d="M182 547Q144 547 124 567T104 625Q104 680 135 711T220 742Q296 742 296 667Q296 611 265 579T182 547ZM216 154Q218 154 220 155T228 160T242 172T268 195L291 191L311 143Q271 98 241 68T187 20T143
-5T101 -12Q35 -12 35 55Q47 129 57 190Q61 216 65 241T72 288T78 325T80 346Q80 379 47 379H19L31 461Q64 461 103 463T176 467Q216 470 254 473L270 453Q260 410 249 362Q240 320 230 267T212 157L216 154Z" />
<glyph unicode="j" glyph-name="j" horiz-adv-x="300" d="M208 14Q203 -24 185 -61T136 -133T66 -197T-22 -248L-64 -205L-60 -190Q-33 -169 -15 -149T16 -103T36 -45T50 33Q63 113 74 179Q78 207 82 234T91 285T97 324T99 346Q99 379 66 379H38L50 461Q83 461
122 463T195 467Q235 470 273 473L289 453Q278 407 265 343Q254 288 240 206T208 14ZM201 547Q163 547 143 567T123 625Q123 680 154 711T239 742Q315 742 315 667Q315 611 284 579T201 547Z" />
<glyph unicode="k" glyph-name="k" horiz-adv-x="491" d="M245 197L255 216Q276 225 293 237Q307 248 319 262T332 297Q332 319 313 319Q304 319 290 303T260 259T226 191T190 104L183 45Q181 34 169 25T136 9T90 -3T35 -7L15 16Q41 175 62 303Q71 357 79 410T95
507T106 579T110 615Q110 648 77 648H49L61 730Q95 730 134 732T209 736Q249 739 289 742L304 721Q289 652 275 580Q262 518 248 445T223 302L230 303Q261 375 290 421T348 485Q423 485 464 456T506 374Q506 327 478 283T394 197Q405 172 419 144T446 89Q461 59
476 30L472 9L310 -13L297 -6L245 197Z" />
<glyph unicode="l" glyph-name="l" horiz-adv-x="291" d="M203 154Q205 154 207 155T215 160T229 172T255 195L278 191L298 143Q258 98 228 68T174 20T130 -5T88 -12Q22 -12 22 55Q22 64 28 107T45 210T66 338T87 465T103 566T110 615Q110 648 77 648H49L61 730Q95
730 135 732T209 736Q249 739 288 742L304 722Q280 603 259 496Q250 450 241 402T224 309T210 225T199 157L203 154Z" />
<glyph unicode="m" glyph-name="m" horiz-adv-x="795" d="M712 157Q716 157 725 164T764 198L788 194L807 146Q767 101 737 72T683 24T639 -1T597 -9Q562 -9 547 5T531 50Q531 66 540 100T561 172T582 243T592 291Q592 319 574 319Q565 319 551 302T519 255T483
184T445 93L440 45Q439 34 427 25T394 9T347 -3T292 -7L272 16Q290 85 304 142Q310 166 315 190T325 236T333 273T336 296Q336 319 317 319Q309 319 297 303T269 259T237 191T204 104L197 45Q195 34 183 25T150 9T104 -3T49 -7L29 16Q41 90 52 154Q56 181 60 209T69
261T76 305T81 336Q84 360 77 369T49 379H21L33 461Q66 461 105 463T178 467Q218 470 256 473L270 452L258 404Q253 383 247 356T237 302L244 303Q275 375 304 421T362 485Q431 485 469 457T508 379Q508 369 506 356T501 331Q497 317 494 302L501 303Q532 375 561
421T619 485Q689 485 728 457T768 378Q768 363 760 333T742 269T722 206T709 160L712 157Z" />
<glyph unicode="n" glyph-name="n" horiz-adv-x="538" d="M455 157Q457 157 459 158T467 163T482 176T507 198L531 194L550 146Q511 102 481 72T427 24T382 -1T340 -9Q305 -9 290 5T274 50Q274 66 283 100T304 172T325 243T335 291Q335 319 317 319Q309 319 297
303T269 259T237 191T204 104L197 45Q195 34 183 25T150 9T104 -3T49 -7L29 16Q41 90 52 154Q56 181 60 209T69 261T76 305T81 336Q84 360 77 369T49 379H21L33 461Q66 461 105 463T178 467Q218 470 256 473L270 452L258 404Q253 383 247 356T237 302L244 303Q307
448 362 485Q432 485 471 457T511 378Q511 363 503 333T485 269T465 206T452 160L455 157Z" />
<glyph unicode="o" glyph-name="o" horiz-adv-x="486" d="M236 95Q263 95 275 135T287 267Q287 321 279 342T249 364Q225 364 211 319T197 195Q197 143 206 119T236 95ZM198 -12Q112 -12 66 39T19 184Q19 252 38 307T93 402T178 462T289 484Q377 484 422 436T468
295Q468 226 449 169T394 72T309 10T198 -12Z" />
<glyph unicode="p" glyph-name="p" horiz-adv-x="539" d="M-52 -155Q-38 -153 -29 -150T-13 -139T-1 -119T8 -89Q13 -64 20 -26T35 57T50 148T63 235T72 305T76 346Q76 379 43 379H15L27 461Q60 461 99 463T172 467Q212 470 250 473L266 454Q255 419 247 384T232
314H241Q276 380 307 420T369 484Q446 484 488 443T530 326Q530 265 507 207T447 102T365 28T276 0L179 20L163 -96Q159 -125 167 -135T205 -145H251L252 -151L236 -230Q186 -230 133 -231T34 -234Q-19 -236 -68 -237L-52 -155ZM336 347Q330 347 318 333T291 292T262
229T234 149Q245 141 257 136Q268 131 281 127T308 123Q316 123 323 139T336 179T345 231T349 283Q349 312 345 329T336 347Z" />
<glyph unicode="q" glyph-name="q" horiz-adv-x="506" d="M279 47L303 158H293Q254 90 223 51T160 -12Q88 -12 49 29T9 145Q9 204 31 262T90 367T171 443T263 472L335 452L348 500L368 512L500 498L507 475Q478 338 456 220Q446 170 437 119T421 22T410 -60T405
-118Q405 -134 409 -140T427 -146L453 -145L456 -149L439 -230Q367 -230 313 -232T222 -236Q180 -239 150 -242L166 -160Q190 -159 205 -156T229 -147T244 -128T252 -97L279 47ZM206 143Q214 143 227 160T254 206T282 269T307 341Q295 348 283 354Q272 359 260
363T233 367Q226 367 219 353T205 315T196 264T192 208Q192 179 196 161T206 143Z" />
<glyph unicode="r" glyph-name="r" horiz-adv-x="416" d="M29 16Q44 99 55 168Q60 197 65 226T73 279T79 321T82 346Q82 379 49 379H21L33 461Q66 461 105 463T178 467Q218 470 256 473L270 452Q264 433 259 411Q254 392 250 369T242 322L249 323Q260 354 276
383T309 435T342 470T371 484Q432 442 432 356Q432 342 428 325T415 283L396 274Q390 280 382 284Q375 288 365 291T343 294Q305 294 271 250T205 114L197 45Q195 34 183 25T150 9T104 -3T49 -7L29 16V16Z" />
<glyph unicode="s" glyph-name="s" horiz-adv-x="402" d="M80 178Q83 148 106 127T162 106Q202 106 202 131Q202 148 183 158T137 181Q120 189 104 198T73 222T51 255T42 301Q42 341 59 374T106 432T177 470T266 484Q310 484 350 473T416 442Q399 401 384 370T353
314H328Q317 336 301 348T268 361Q254 361 244 353T234 333Q234 322 242 315T264 301Q281 292 303 282T344 258T377 222T391 168Q391 129 373 96T324 39T248 2T153 -12Q123 -12 96 -7T48 6T13 27T-7 53Q-5 67 1 84T15 119T33 153T53 180L80 178Z" />
<glyph unicode="t" glyph-name="t" horiz-adv-x="331" d="M313 191L334 141Q285 72 242 30T176 -12Q106 -12 71 23T44 123L88 371L79 379H25L22 384L30 450L102 461Q104 480 107 500T112 536Q115 554 116 572L284 607L298 595Q293 575 288 553Q283 534 278 511T267
461H362L369 454L357 379L263 380L250 372L215 180Q212 150 233 150Q243 150 255 159T291 195L313 191Z" />
<glyph unicode="u" glyph-name="u" horiz-adv-x="531" d="M301 173Q236 27 184 -9Q113 -9 74 19T35 98Q35 117 44 151T63 223T83 294T92 346Q92 379 59 379H31L43 461Q76 461 115 463T188 467Q228 470 266 473L282 453Q261 384 245 328Q238 304 232 280T220 235T212
200T209 179Q209 157 225 157Q234 157 247 172T275 216T308 284T342 372L353 462L373 474L482 472L502 449Q492 401 481 351Q472 308 462 257T444 157L448 154Q450 154 452 154T459 159T473 171T500 195L523 191L543 143Q502 97 472 67T417 20T373 -5T331 -12Q280
-12 280 36Q280 50 288 82T310 174L301 173Z" />
<glyph unicode="v" glyph-name="v" horiz-adv-x="482" d="M116 -12L98 8Q95 51 91 99T81 193T69 280T57 352Q54 369 48 375T31 382Q26 382 21 382T10 381H-1L5 460Q37 463 72 466T140 471Q176 474 213 476L224 467Q227 435 229 397T233 317T236 232T237 145H254Q285
223 299 269T313 340Q313 363 300 381T261 409L272 457L460 484Q473 469 480 443T487 385Q487 328 440 236T289 0L116 -12Z" />
<glyph unicode="w" glyph-name="w" horiz-adv-x="725" d="M254 145Q279 211 292 248T313 312L290 433L300 452L452 484Q465 469 472 445T480 391Q480 376 478 364T468 326L480 145H497Q529 226 542 271T556 340Q556 363 543 381T504 409L515 457L703 484Q715 469
722 441T730 382Q730 326 682 234T532 0L389 -12L371 8L359 143H348Q334 111 315 72T279 0L116 -12L98 8Q95 51 91 99T81 193T69 280T57 352Q54 369 48 375T31 382Q26 382 21 382T10 381H-1L5 460Q37 463 72 466T140 471Q176 474 213 476L224 467Q227 435 229 397T233
317T236 232T237 145H254Z" />
<glyph unicode="x" glyph-name="x" horiz-adv-x="502" d="M432 484Q484 484 526 445Q508 400 492 364T459 296H433Q426 325 417 338T390 351Q373 351 358 333T326 273Q339 226 349 197T366 150T381 127T396 120Q405 120 419 130T445 156H456L482 99Q453 69 429
48T383 14T342 -6T302 -12Q282 -12 268 -7T242 13T220 51T198 114Q167 48 136 18T70 -12Q15 -12 -25 27Q2 101 42 176H68Q80 121 111 121Q143 121 174 199Q160 246 151 275T134 322T119 345T105 352Q96 352 82 342T56 316H45L19 373Q77 433 118 458T199 484Q218
484 232 479T257 459T279 421T302 358Q333 424 364 454T432 484Z" />
<glyph unicode="y" glyph-name="y" horiz-adv-x="488" d="M278 457L466 484Q479 469 486 443T493 385Q493 326 445 233T295 0Q245 -66 203 -112T124 -187T51 -229T-22 -242Q-44 -242 -64 -237T-102 -223T-132 -202T-148 -177Q-145 -162 -138 -143T-122 -104T-102
-66T-81 -36L-55 -38Q-54 -75 -33 -99T20 -124Q43 -124 67 -108T124 -56Q116 10 107 74T90 194T74 291T63 352Q59 369 53 375T32 382Q28 382 24 382T15 381H5L11 460L219 476L230 467Q234 407 236 323T239 133H253Q267 163 279 194T300 252T314 302T319 340Q319
363 306 381T267 409L278 457Z" />
<glyph unicode="z" glyph-name="z" horiz-adv-x="454" d="M37 257Q45 291 53 327Q60 358 68 396T82 473L125 484Q163 475 199 469Q230 464 262 460T318 455Q345 455 358 460T385 479L411 508L479 444L483 424Q411 356 342 287T207 149L229 152Q237 152 249 151T274
149T301 146T324 145Q348 145 365 168T388 230H419Q427 216 432 189T437 133Q437 102 427 76T398 30T355 -1T301 -12Q278 -12 257 -5T214 10T173 25T131 32Q104 32 70 22T10 -6L-18 39L249 330L208 331Q164 331 144 316T110 262L37 257Z" />
<glyph unicode="{" glyph-name="braceleft" horiz-adv-x="326" d="M53 311Q88 322 107 340T126 382Q126 397 121 415T110 454T98 494T93 533Q93 561 107 584T146 623T205 649T280 659Q295 659 310 657T339 653Q354 650 368 647L376 631L348 548Q342 549 337 550Q332
551 326 552T315 553Q289 553 275 538T260 495Q260 484 262 470T266 441T270 412T272 385Q272 350 251 325T190 290L189 285Q250 264 250 206Q250 188 243 166T227 121T211 77T204 40Q204 17 216 4T251 -9Q256 -9 261 -9T272 -7Q277 -6 281 -4L292 -17L268 -100Q257
-107 240 -112Q226 -117 205 -120T158 -123Q129 -123 105 -115T63 -93T35 -59T25 -17Q25 7 36 32T62 83T88 130T100 170Q100 217 39 235L53 311Z" />
<glyph unicode="|" glyph-name="bar" horiz-adv-x="280" d="M276 791Q262 695 250 603Q245 564 239 522T228 439T218 360T209 291Q205 259 200 218T190 133T179 42T168 -48Q156 -150 143 -258L25 -269L12 -253Q24 -153 36 -56Q41 -15 46 29T57 117T68 201T78 276L143
796L257 807L276 791Z" />
<glyph unicode="}" glyph-name="braceright" horiz-adv-x="326" d="M283 235Q250 227 230 208T210 164Q210 149 215 131T226 92T237 52T242 13Q242 -17 228 -42T189 -85T130 -113T54 -123Q38 -123 23 -121T-5 -117Q-20 -114 -34 -111L-42 -95L-14 -12Q-9 -14 -3
-15Q2 -16 8 -16T19 -17Q45 -17 59 -2T74 43Q74 66 69 99T63 159Q63 195 85 220T145 256L146 261Q85 282 85 340Q85 357 92 378T107 420T123 461T130 496Q130 519 118 532T83 545Q77 545 72 544T62 542Q57 541 53 540L42 553L66 636Q77 642 94 647Q108 652 128
655T176 659Q205 659 229 651T271 629T299 595T309 553Q309 530 298 506T273 459T248 414T236 376Q236 350 251 333T296 311L283 235Z" />
<glyph unicode="~" glyph-name="asciitilde" horiz-adv-x="490" d="M46 151L4 207L6 223L126 338L148 342Q164 342 190 337T245 325T298 314T339 308Q350 308 366 317T397 337Q415 349 433 366H449L491 310L489 294L369 179L347 175Q330 175 304 180T250 192T197
203T156 209Q145 209 129 200T98 180Q80 167 62 151H46Z" />
<glyph unicode="&#xa0;" glyph-name="nbspace" horiz-adv-x="137" />
<glyph unicode="&#xa1;" glyph-name="exclamdown" horiz-adv-x="275" d="M177 484Q218 484 239 463T260 404Q260 350 229 318T145 285Q105 285 84 306T63 366Q63 420 94 452T177 484ZM183 -192L162 -216L-29 -242L-51 -216L74 214L180 230L198 210L183 -192Z" />
<glyph unicode="&#xa2;" glyph-name="cent" horiz-adv-x="393" d="M253 363Q239 363 227 352T207 319T193 269T188 206Q188 128 236 128Q277 128 311 202L332 199L384 141Q365 92 323 54T231 -2L195 -151L78 -164L71 -158L110 0Q64 18 39 61T13 167Q13 222 29
272T73 362T141 432T226 474L268 644L387 658L392 649L349 477Q380 471 403 459L407 441L356 312L313 311Q288 363 253 363Z" />
<glyph unicode="&#xa3;" glyph-name="sterling" horiz-adv-x="495" d="M462 216Q471 203 476 177T481 125Q481 95 471 70T442 26T400 -2T347 -12Q324 -12 301 -4T256 15T210 33T165 42Q132 42 99 32T24 -1L10 5L-4 96Q78 138 85 201L90 235Q91 258 79 265T29 275L26
281L43 351L105 360L108 387Q113 426 140 463T208 531T298 579T394 598Q428 598 461 594T512 583L516 572L457 441L438 438Q400 462 377 471T332 481Q307 481 296 467T280 417L271 360Q300 360 324 360T366 361Q387 362 405 363L409 356L388 271Q371 271 351 272Q334
273 311 273T258 274L252 236Q249 210 238 183T214 144L274 158Q281 158 293 156T320 150T347 144T371 141Q394 141 410 161T431 216H462Z" />
<glyph unicode="&#xa4;" glyph-name="currency" horiz-adv-x="431" d="M71 322Q71 364 91 407Q78 420 66 432T44 456Q33 468 22 479L29 502L144 579Q158 559 171 541T198 502Q230 515 262 515Q279 515 294 512T323 502Q337 516 350 530T375 556Q387 569 399 581L422
577L486 472L406 408Q411 385 411 360Q411 337 405 316T388 274L434 228Q445 217 455 207L448 184L334 107L280 181Q250 170 220 170Q186 170 156 184Q142 169 128 155T103 129L79 105L56 109L-9 214Q14 231 34 247T75 280Q73 289 72 300T71 322ZM170 334Q170 306
187 287T232 268Q248 268 262 274T288 292T306 318T313 350Q313 378 295 397T250 417Q234 417 220 411T194 393T177 366T170 334Z" />
<glyph unicode="&#xa5;" glyph-name="yen" horiz-adv-x="573" d="M284 413Q284 406 288 392T298 359L312 312H320L363 410Q366 416 366 423Q366 428 363 431T346 435L341 444L353 502Q391 502 422 502T487 503Q504 503 520 503T550 504Q566 505 581 506L585 500L568
425Q537 408 520 395T489 357L484 348L554 350L561 340L544 254H419L400 223L389 208Q418 208 444 208T490 210Q514 211 534 211L541 201L524 115H354V106Q354 77 392 77Q400 77 407 77T421 78Q428 79 434 80L438 75L422 -5Q385 -4 352 -3Q323 -2 294 -1T247 0Q227
0 197 -1T139 -4Q106 -6 71 -7L87 71Q131 74 149 82T175 115Q143 114 115 114T65 114H18L9 122L31 207H172L164 227L154 254Q129 253 108 253T71 253H38L29 261L51 346H108Q105 352 93 362T67 383T42 406T29 427Q31 437 33 446T38 466Q40 476 42 485T47 505Q67
504 86 504Q103 503 121 503T154 503Q155 503 180 503T237 505T294 507T325 509L329 499L313 429Q295 429 290 425T284 413Z" />
<glyph unicode="&#xa6;" glyph-name="brokenbar" horiz-adv-x="280" d="M101 358L89 369L143 796L257 807L276 791Q266 720 256 648Q247 585 237 513T219 374L101 358ZM175 167L191 150Q182 79 174 8T158 -124Q150 -194 142 -258L24 -269L12 -253Q19 -190 28 -121Q35
-62 44 9T62 150L175 167Z" />
<glyph unicode="&#xa7;" glyph-name="section" horiz-adv-x="470" d="M388 67Q383 32 363 3T312 -48T239 -82T152 -95Q123 -95 97 -89T51 -73T19 -49T7 -21Q7 5 21 40T63 107L90 105Q91 71 113 47T168 23Q199 23 199 50Q199 66 186 77T153 100T111 125T68 154T35
193T22 248Q22 277 33 300T61 342T99 375T141 400Q123 417 112 438T100 488Q100 524 117 555T165 610T235 646T323 659Q351 659 376 655T420 644T450 629T462 610Q462 598 456 579T441 539T422 502T404 479H379Q374 504 359 520T325 536Q312 536 302 528T292 508Q292
494 304 482T336 458T377 431T418 398T449 357T462 304Q462 258 431 222T351 160Q370 143 381 121T388 67ZM185 307Q185 290 193 277T213 252T243 230T278 209Q294 228 294 253Q294 270 287 283T267 309T238 332T205 354Q196 344 191 333T185 307Z" />
<glyph unicode="&#xa8;" glyph-name="dieresis" horiz-adv-x="386" d="M324 559Q253 559 253 626Q253 671 279 698T350 726Q384 726 402 708T420 658Q420 613 394 586T324 559ZM135 559Q65 559 65 626Q65 671 91 698T162 726Q196 726 214 708T232 658Q232 613
206 586T135 559Z" />
<glyph unicode="&#xa9;" glyph-name="copyright" horiz-adv-x="678" d="M48 261Q48 330 75 391T149 498T256 571T383 598Q439 598 487 577T570 518T624 431T644 324Q644 255 616 194T542 88T435 15T308 -12Q252 -12 204 9T122 67T68 154T48 261ZM108 267Q108 221
123 181T166 111T232 64T315 47Q368 47 416 68T502 127T562 214T584 319Q584 365 569 405T525 475T459 522T376 539Q323 539 275 518T189 459T130 372T108 267ZM332 133Q265 133 230 167T194 268Q194 463 385 463Q402 463 422 461T461 456Q482 453 504 450L508
438Q502 424 498 407Q493 393 489 373T480 330L391 325Q392 333 393 340Q394 346 395 352T396 362Q396 388 366 388Q342 388 333 364T324 276Q324 237 329 224T352 210Q369 210 376 220T390 263L478 269Q475 251 471 233Q468 217 466 198T461 160L453 151Q437 146
418 142Q401 138 379 136T332 133Z" />
<glyph unicode="&#xaa;" glyph-name="ordfeminine" horiz-adv-x="390" d="M321 439Q323 439 330 444T354 465L371 462L385 427Q356 395 335 374T296 341T264 324T233 319Q197 319 197 354Q197 357 197 360T198 370T203 391T212 427H205Q178 381 158 357T118 319Q66
319 37 347T7 427Q7 466 22 505T63 575T120 625T184 644L231 631L234 644L249 653L350 645L356 628Q349 597 342 564Q336 536 330 504T318 441L321 439ZM152 430Q157 430 165 441T182 469T199 509T212 553Q186 569 164 569Q161 569 157 560T150 537T145 506T143
471Q143 452 145 441T152 430Z" />
<glyph unicode="&#xab;" glyph-name="guillemotleft" horiz-adv-x="464" d="M465 387L470 364Q446 330 424 293T388 232Q396 209 409 173T437 101L427 78L361 42Q340 74 317 105T275 162Q253 192 232 219L235 246L292 303Q317 329 347 359T407 422L465 387ZM263
387L268 364Q244 330 222 293T186 232Q194 209 207 173T235 101L225 78L159 42Q138 74 115 105T73 162Q51 192 30 219L33 246L90 303Q115 329 145 359T205 422L263 387Z" />
<glyph unicode="&#xac;" glyph-name="logicalnot" horiz-adv-x="491" d="M460 344Q453 320 447 292Q442 268 436 235T425 164Q421 138 419 114T414 70Q411 48 409 29L271 11L260 20Q263 46 267 77Q270 103 274 137T284 207H239Q206 207 168 207T96 206H20L12 219L47
354Q85 353 125 353H268Q293 353 325 353T386 356Q419 357 455 359L460 344Z" />
<glyph unicode="&#xae;" glyph-name="registered" horiz-adv-x="454" d="M61 486Q61 532 79 573T129 644T200 693T285 711Q323 711 355 697T410 658T447 600T460 528Q460 482 442 441T392 370T320 321T235 303Q197 303 165 317T110 356T74 414T61 486ZM102 490Q102
460 112 434T141 388T185 357T240 345Q275 345 307 359T364 398T403 455T418 524Q418 554 408 580T379 626T336 657T280 669Q245 669 213 655T156 616T117 559T102 490ZM158 441Q177 445 180 468L193 571Q195 582 194 585T188 589Q186 589 184 589T180 588H177L174
590L180 615H232Q239 615 252 615T273 617Q355 617 355 567Q355 525 312 501L327 469Q331 458 338 450T352 441L354 438Q352 431 352 427T351 419T340 415T312 412Q292 412 284 415T270 439L258 486H242Q241 481 240 470T238 457Q238 448 242 446T259 443Q259 441
259 441L253 415Q244 415 235 416Q227 416 220 416T207 417H196Q189 416 182 416T167 415Q159 414 152 414L158 441ZM256 571Q254 558 252 547T247 524Q250 524 257 524T270 523Q291 529 291 557Q291 579 262 579Q257 579 256 571Z" />
<glyph unicode="&#xaf;" glyph-name="overscore" horiz-adv-x="386" d="M402 675L370 566L234 565Q212 565 190 565T148 564H105L91 579L123 688Q150 687 176 687H272Q290 687 311 687T351 690Q372 691 393 693L402 675Z" />
<glyph unicode="&#xb0;" glyph-name="degree" horiz-adv-x="293" d="M49 510Q49 541 61 568T94 615T142 647T198 659Q223 659 244 650T281 624T305 586T314 538Q314 507 302 480T270 433T222 401T165 389Q140 389 119 398T82 424T58 462T49 510ZM124 516Q124 493
137 479T174 464Q202 464 220 483T239 531Q239 554 226 569T189 584Q160 584 142 565T124 516Z" />
<glyph unicode="&#xb1;" glyph-name="plusminus" horiz-adv-x="491" d="M353 508Q348 482 344 455Q340 432 336 403T327 345Q355 346 382 347T433 349Q459 350 483 351L488 336L458 200Q420 200 384 200T309 199Q305 172 303 147T298 101Q295 78 293 58L160 40L148
49Q150 70 154 95Q157 116 160 143T168 199Q139 198 113 198T65 198H19L11 211L46 346Q66 345 89 345H186Q191 384 196 423T206 502L339 515L353 508ZM428 -17L401 -123Q300 -123 202 -123T-3 -124L-11 -105L12 0H335Q358 0 374 0T401 1Q412 1 420 2L428 -17Z"
/>
<glyph unicode="&#xb2;" glyph-name="two.sups" horiz-adv-x="369" d="M0 396L104 493Q169 556 169 585Q169 610 141 610Q104 610 61 566H47L39 652Q74 687 116 707T197 728Q252 728 285 703T318 636Q318 613 311 591T287 544T243 490T175 425L178 419H204Q227
419 239 432T260 480L347 486Q340 459 333 432Q327 409 321 382T311 332L297 319Q251 321 209 323Q172 325 133 326T67 327L-2 323L0 396Z" />
<glyph unicode="&#xb3;" glyph-name="three.sups" horiz-adv-x="322" d="M15 431Q27 425 42 422T77 418Q106 418 123 428T141 455Q141 481 77 481L68 492V558L113 566Q133 574 143 586T154 614Q154 634 130 634Q104 634 59 607H48L34 681Q70 703 112 715T184 728Q235
728 263 708T291 654Q291 621 268 595T205 558V550Q250 533 270 512T290 460Q290 432 270 407T217 362T142 331T55 319Q18 319 6 340T-4 414L15 431Z" />
<glyph unicode="&#xb4;" glyph-name="acute" horiz-adv-x="386" d="M344 642Q312 625 277 606Q247 589 209 569T133 525L111 532L70 593Q105 623 139 653T199 707Q230 735 257 760H274L346 659L344 642Z" />
<glyph unicode="&#xb5;" glyph-name="mu" horiz-adv-x="531" d="M254 484L264 462Q257 451 250 427T236 374T223 314T213 255T206 207T203 181Q203 134 236 134Q246 134 258 139T280 150L301 323Q303 346 303 364T303 397Q302 413 300 425L314 452L511 480L522
458Q517 450 510 427T495 374T480 309T466 244T457 190T453 158Q453 144 459 136T477 128Q482 128 487 129T498 132Q503 134 508 136L522 110Q502 82 479 58Q459 37 435 17T386 -12Q284 -12 280 61L270 66Q259 52 247 39T223 15T203 -3T189 -10Q173 -10 163 -3L158
-6L147 -105Q145 -125 144 -143T141 -175Q140 -192 140 -205L131 -217L-28 -242L-41 -228Q-32 -186 -22 -138Q-14 -96 -5 -42T15 73L55 325Q60 368 58 397Q57 413 56 427L69 455L254 484Z" />
<glyph unicode="&#xb6;" glyph-name="paragraph" horiz-adv-x="557" d="M346 545Q348 554 343 557T321 560Q303 560 289 546T265 507T250 449T245 376Q245 335 254 301T283 232L279 197Q219 197 172 211T92 251T42 315T24 398Q24 452 45 498T102 579T187 632T292
652Q330 652 372 650T450 647Q461 647 487 647T541 648Q574 649 611 650L595 566L592 562Q578 558 570 555T558 547T551 535T545 516Q541 500 534 460T520 371T505 273T493 190Q486 134 456 83T382 -7T285 -70T177 -94Q150 -94 126 -87T85 -66T57 -36T46 -1Q46
12 51 29T65 66T85 103T108 135H125Q125 78 146 45T206 12Q246 12 266 33T292 106L346 545Z" />
<glyph unicode="&#xb7;" glyph-name="middot" horiz-adv-x="231" d="M101 154Q60 154 40 175T19 234Q19 288 50 320T134 353Q173 353 194 332T215 272Q215 218 184 186T101 154Z" />
<glyph unicode="&#xb8;" glyph-name="cedilla" horiz-adv-x="391" d="M131 36H193L170 -37Q184 -44 200 -54T231 -78T256 -107T266 -138Q266 -159 253 -178T219 -212T168 -234T105 -243Q91 -243 77 -240T50 -230T31 -214T23 -192Q23 -186 29 -177T44 -157T64 -136T84
-118H92Q90 -146 101 -160T132 -174Q163 -174 163 -150Q163 -143 156 -135T138 -118T113 -102T86 -87L131 36Z" />
<glyph unicode="&#xb9;" glyph-name="one.sups" horiz-adv-x="276" d="M228 649Q226 644 223 628T215 589T207 540T200 491T194 449T192 422Q192 390 212 390H232Q236 390 241 391L243 387L225 323Q205 324 186 325Q169 326 151 326T119 327Q99 327 76 326T33
323Q9 321 -14 320L-1 378Q60 384 64 422L86 606Q89 629 85 636T61 644Q56 644 51 644T40 643H29L23 650L36 703Q62 705 84 708T127 713Q150 715 173 718T214 723Q235 726 253 728L262 696Q241 682 228 649Z" />
<glyph unicode="&#xba;" glyph-name="ordmasculine" horiz-adv-x="362" d="M170 395Q187 395 193 419T200 503Q200 541 196 554T177 567Q163 567 155 539T147 459Q147 424 152 410T170 395ZM145 319Q82 319 49 353T15 454Q15 546 65 599T204 653Q267 653 300 620T334
522Q334 428 283 374T145 319Z" />
<glyph unicode="&#xbb;" glyph-name="guillemotright" horiz-adv-x="464" d="M247 77L243 100Q266 134 288 171T324 232Q316 255 303 291T275 363L285 386L351 422Q372 390 395 359T437 302Q459 272 480 245L477 218Q449 191 420 161Q395 135 365 104T305 42L247
77ZM45 77L41 100Q64 134 86 171T122 232Q114 255 101 291T73 363L83 386L149 422Q170 390 193 359T235 302Q257 272 278 245L275 218Q247 191 218 161Q193 135 163 104T103 42L45 77Z" />
<glyph unicode="&#xbc;" glyph-name="onequarter" horiz-adv-x="845" d="M228 576Q226 571 223 555T215 516T207 467T200 418T194 376T192 349Q192 317 212 317H232Q236 317 241 318L243 314L225 250Q205 251 186 252Q169 253 151 253T119 254Q99 254 76 253T33
250Q9 248 -14 247L-1 305Q60 311 64 349L86 533Q89 556 85 563T61 571Q56 571 51 571T40 570H29L23 577L36 630Q62 632 84 635T127 640Q150 642 173 645T214 650Q235 653 253 655L262 623Q241 609 228 576ZM653 623Q601 544 552 467Q531 434 509 399T464 330T421
265T383 207Q349 153 316 100T255 4Q223 -46 194 -91L101 -56L95 -39Q128 7 161 57Q190 99 223 151T289 253L556 679L643 647L653 623ZM481 157L675 399L681 401L787 392L760 169H803L810 159L792 78L750 79Q748 64 747 52T745 29Q744 18 744 8L736 0L614 -8L607
0L612 25Q614 36 616 51T621 83L472 85L481 157ZM579 169H633L643 250H635L579 169Z" />
<glyph unicode="&#xbd;" glyph-name="onehalf" horiz-adv-x="877" d="M228 576Q226 571 223 555T215 516T207 467T200 418T194 376T192 349Q192 317 212 317H232Q236 317 241 318L243 314L225 250Q205 251 186 252Q169 253 151 253T119 254Q99 254 76 253T33 250Q9
248 -14 247L-1 305Q60 311 64 349L86 533Q89 556 85 563T61 571Q56 571 51 571T40 570H29L23 577L36 630Q62 632 84 635T127 640Q150 642 173 645T214 650Q235 653 253 655L262 623Q241 609 228 576ZM653 623Q601 544 552 467Q531 434 509 399T464 330T421 265T383
207Q349 153 316 100T255 4Q223 -46 194 -91L101 -56L95 -39Q128 7 161 57Q190 99 223 151T289 253L556 679L643 647L653 623ZM500 69L604 166Q669 229 669 258Q669 283 641 283Q604 283 561 239H547L539 325Q574 360 616 380T697 401Q752 401 785 376T818 309Q818
286 811 264T787 217T743 163T675 98L678 92H704Q727 92 739 105T760 153L847 159Q840 132 833 105Q827 82 821 55T811 5L797 -8Q751 -6 709 -4Q672 -2 633 -1T567 0L498 -4L500 69Z" />
<glyph unicode="&#xbe;" glyph-name="threequarters" horiz-adv-x="841" d="M15 358Q27 352 42 349T77 345Q106 345 123 355T141 382Q141 408 77 408L68 419V485L113 493Q133 501 143 513T154 541Q154 561 130 561Q104 561 59 534H48L34 608Q70 630 112 642T184
655Q235 655 263 635T291 581Q291 548 268 522T205 485V477Q250 460 270 439T290 387Q290 359 270 334T217 289T142 258T55 246Q18 246 6 267T-4 341L15 358ZM649 623Q597 544 548 467Q527 434 505 399T460 330T417 265T379 207Q345 153 312 100T251 4Q219 -46
190 -91L97 -56L91 -39Q124 7 157 57Q186 99 219 151T285 253L552 679L639 647L649 623ZM477 157L671 399L677 401L783 392L756 169H799L806 159L788 78L746 79Q744 64 743 52T741 29Q740 18 740 8L732 0L610 -8L603 0L608 25Q610 36 612 51T617 83L468 85L477
157ZM575 169H629L639 250H631L575 169Z" />
<glyph unicode="&#xbf;" glyph-name="questiondown" horiz-adv-x="371" d="M288 102L283 87L185 40Q132 13 132 -23Q132 -55 169 -74T279 -96L291 -114L236 -232L218 -241Q159 -240 110 -226T25 -190T-31 -137T-51 -71Q-51 -45 -43 -22T-13 24T43 74T132 134L135
140L137 209L147 223L267 243L281 235L288 102ZM244 484Q285 484 306 463T327 404Q327 350 296 318T212 285Q172 285 151 306T130 366Q130 420 161 452T244 484Z" />
<glyph unicode="&#xc0;" glyph-name="Agrave" horiz-adv-x="661" d="M593 153Q598 118 609 104T640 86L646 76L628 -3Q604 -3 579 -2Q558 -2 534 -2T490 -1Q455 -1 421 -2T361 -4Q330 -5 302 -6L295 3L311 87Q353 91 365 97T377 121V178Q358 178 343 179Q330 179
319 179T304 180Q297 180 285 179T259 177Q244 176 227 175L214 131Q208 111 208 104Q208 89 231 89H258L265 79L247 -4Q220 -4 194 -3Q171 -2 145 -2T97 -1Q74 -1 51 -1T9 -2H-33L-16 85Q20 94 39 140L250 642L517 658L531 646Q545 537 557 440Q562 399 567 357T577
276T586 205T593 153ZM274 301H322Q333 301 344 301T371 303L361 478H339L274 301ZM244 762L280 870L296 875Q333 859 374 842Q409 828 453 810T545 775L524 704L505 691Q458 702 413 712T331 730Q289 739 251 746L244 762Z" />
<glyph unicode="&#xc1;" glyph-name="Aacute" horiz-adv-x="661" d="M593 153Q598 118 609 104T640 86L646 76L628 -3Q604 -3 579 -2Q558 -2 534 -2T490 -1Q455 -1 421 -2T361 -4Q330 -5 302 -6L295 3L311 87Q353 91 365 97T377 121V178Q358 178 343 179Q330 179
319 179T304 180Q297 180 285 179T259 177Q244 176 227 175L214 131Q208 111 208 104Q208 89 231 89H258L265 79L247 -4Q220 -4 194 -3Q171 -2 145 -2T97 -1Q74 -1 51 -1T9 -2H-33L-16 85Q20 94 39 140L250 642L517 658L531 646Q545 537 557 440Q562 399 567 357T577
276T586 205T593 153ZM274 301H322Q333 301 344 301T371 303L361 478H339L274 301ZM544 746Q505 739 463 730Q427 722 382 712T290 691L271 704L250 775Q296 792 341 810T421 842Q462 859 499 875L515 870L551 762L544 746Z" />
<glyph unicode="&#xc2;" glyph-name="Acircumflex" horiz-adv-x="661" d="M593 153Q598 118 609 104T640 86L646 76L628 -3Q604 -3 579 -2Q558 -2 534 -2T490 -1Q455 -1 421 -2T361 -4Q330 -5 302 -6L295 3L311 87Q353 91 365 97T377 121V178Q358 178 343 179Q330
179 319 179T304 180Q297 180 285 179T259 177Q244 176 227 175L214 131Q208 111 208 104Q208 89 231 89H258L265 79L247 -4Q220 -4 194 -3Q171 -2 145 -2T97 -1Q74 -1 51 -1T9 -2H-33L-16 85Q20 94 39 140L250 642L517 658L531 646Q545 537 557 440Q562 399 567
357T577 276T586 205T593 153ZM274 301H322Q333 301 344 301T371 303L361 478H339L274 301ZM214 770Q247 793 281 817T342 862Q374 886 404 908H431Q431 910 445 898T481 865T531 819T587 770L544 708L520 701Q489 715 454 729T398 752Q375 744 338 730T264 701L242
708L214 770Z" />
<glyph unicode="&#xc3;" glyph-name="Atilde" horiz-adv-x="661" d="M593 153Q598 118 609 104T640 86L646 76L628 -3Q604 -3 579 -2Q558 -2 534 -2T490 -1Q455 -1 421 -2T361 -4Q330 -5 302 -6L295 3L311 87Q353 91 365 97T377 121V178Q358 178 343 179Q330 179
319 179T304 180Q297 180 285 179T259 177Q244 176 227 175L214 131Q208 111 208 104Q208 89 231 89H258L265 79L247 -4Q220 -4 194 -3Q171 -2 145 -2T97 -1Q74 -1 51 -1T9 -2H-33L-16 85Q20 94 39 140L250 642L517 658L531 646Q545 537 557 440Q562 399 567 357T577
276T586 205T593 153ZM274 301H322Q333 301 344 301T371 303L361 478H339L274 301ZM256 675L204 729L206 745L299 860L316 864Q329 864 349 859T390 847T431 836T461 830Q470 830 482 839T506 859Q519 871 534 888H550L602 834L600 818L507 703L490 699Q477 699
457 704T416 716T375 727T345 733Q335 733 323 724T299 704Q286 691 272 675H256Z" />
<glyph unicode="&#xc4;" glyph-name="Adieresis" horiz-adv-x="661" d="M593 153Q598 118 609 104T640 86L646 76L628 -3Q604 -3 579 -2Q558 -2 534 -2T490 -1Q455 -1 421 -2T361 -4Q330 -5 302 -6L295 3L311 87Q353 91 365 97T377 121V178Q358 178 343 179Q330
179 319 179T304 180Q297 180 285 179T259 177Q244 176 227 175L214 131Q208 111 208 104Q208 89 231 89H258L265 79L247 -4Q220 -4 194 -3Q171 -2 145 -2T97 -1Q74 -1 51 -1T9 -2H-33L-16 85Q20 94 39 140L250 642L517 658L531 646Q545 537 557 440Q562 399 567
357T577 276T586 205T593 153ZM274 301H322Q333 301 344 301T371 303L361 478H339L274 301ZM482 695Q411 695 411 762Q411 807 437 834T508 862Q542 862 559 844T577 794Q577 749 551 722T482 695ZM294 695Q224 695 224 762Q224 807 250 834T321 862Q354 862 372
844T390 794Q390 749 364 722T294 695Z" />
<glyph unicode="&#xc5;" glyph-name="Aring" horiz-adv-x="661" d="M593 153Q598 118 609 104T640 86L646 76L628 -3Q604 -3 579 -2Q558 -2 534 -2T490 -1Q455 -1 421 -2T361 -4Q330 -5 302 -6L295 3L311 87Q353 91 365 97T377 121V178Q358 178 343 179Q330 179
319 179T304 180Q297 180 285 179T259 177Q244 176 227 175L214 131Q208 111 208 104Q208 89 231 89H258L265 79L247 -4Q220 -4 194 -3Q171 -2 145 -2T97 -1Q74 -1 51 -1T9 -2H-33L-16 85Q20 94 39 140L250 642L517 658L531 646Q545 537 557 440Q562 399 567 357T577
276T586 205T593 153ZM274 301H322Q333 301 344 301T371 303L361 478H339L274 301ZM403 752Q413 752 427 759T441 790Q441 820 407 820Q388 820 379 810T370 783Q370 765 381 759T403 752ZM387 682Q344 682 322 706T300 771Q300 796 309 818T334 857T372 882T422
892Q471 892 491 866T511 807Q511 783 503 761T478 721T439 693T387 682Z" />
<glyph unicode="&#xc6;" glyph-name="AE" horiz-adv-x="916" d="M312 87Q352 91 366 99T382 130Q383 138 384 144T385 162L388 219L315 206L238 183L219 130Q215 119 213 113T210 101Q210 91 220 90T262 89L265 79L248 -4Q247 -4 223 -4T168 -3T104 -2T54 -1Q38
-1 24 -1T-1 -2H-24L-16 85Q22 94 46 140L247 531Q246 547 241 553T225 559Q220 559 216 559T208 558Q204 557 200 557L189 571L208 650Q255 649 310 648Q357 647 416 647T538 647Q592 647 646 648T747 651T828 655T877 659L888 643Q880 612 871 579Q863 550 855
515T841 444L702 435Q703 444 705 453Q707 461 708 469T709 484Q709 510 691 518T623 527Q589 527 589 503L595 372L665 385L766 411L781 394L756 278L660 266L598 254L599 181Q600 114 643 114Q670 114 687 118T716 133T736 166T754 221L883 230L894 215Q885 186
876 153Q868 124 859 87T841 9L824 -7Q776 -6 720 -4Q672 -2 608 -1T470 0Q438 -1 409 -1T355 -3Q327 -4 302 -6L296 3L312 87ZM344 328L393 337L397 478H375L304 324L344 328Z" />
<glyph unicode="&#xc7;" glyph-name="Ccedilla" horiz-adv-x="584" d="M244 -9Q135 0 77 69T18 259Q18 456 111 557T386 659Q417 659 455 655T528 646Q568 640 608 633L614 613Q605 585 595 552Q587 523 578 484T560 399L404 390Q406 406 409 421Q411 433 413
445T415 465Q415 492 398 506T349 521Q322 521 303 507T271 463T254 384T248 268Q248 193 263 162T316 130Q334 130 347 135T370 153T387 189T402 246L557 256Q550 221 543 185Q537 154 531 117T520 43L505 27Q479 18 448 10Q422 3 386 -2T308 -10L300 -37Q314
-44 330 -54T361 -78T386 -107T396 -138Q396 -159 383 -178T349 -212T298 -234T235 -243Q221 -243 207 -240T180 -230T161 -214T153 -192Q153 -186 159 -177T174 -157T194 -136T214 -118H222Q220 -146 231 -160T262 -174Q293 -174 293 -150Q293 -143 286 -135T268
-118T243 -102T216 -87L244 -9Z" />
<glyph unicode="&#xc8;" glyph-name="Egrave" horiz-adv-x="586" d="M269 151Q269 128 277 122T309 115Q339 115 358 119T391 134T413 166T431 221L560 230L571 215Q562 186 553 153Q545 124 536 87T518 9L501 -7Q455 -6 403 -4Q358 -2 303 -1T190 0Q152 0 115
-1T47 -5Q12 -8 -20 -10L0 82Q37 88 52 106T73 170L116 505Q120 537 116 548T96 559Q92 559 88 559T80 558Q76 557 71 557L61 571L80 650Q121 649 161 648Q196 647 236 647T310 647Q355 647 400 648T485 650T558 654T612 659L623 643Q614 612 605 579Q597 550 590
515T576 444L436 435Q438 444 440 453Q442 461 443 469T444 484Q444 510 426 518T358 527Q338 527 332 522T323 500L303 387Q317 387 339 387T382 386Q393 386 411 386T446 389Q466 390 489 392L499 378L471 263Q450 263 430 264Q413 265 393 265T356 266Q335 266
316 264T283 260Q279 234 274 201T269 151ZM214 762L250 870L266 875Q303 859 344 842Q379 828 423 810T515 775L494 704L475 691Q428 702 383 712T301 730Q259 739 221 746L214 762Z" />
<glyph unicode="&#xc9;" glyph-name="Eacute" horiz-adv-x="586" d="M269 151Q269 128 277 122T309 115Q339 115 358 119T391 134T413 166T431 221L560 230L571 215Q562 186 553 153Q545 124 536 87T518 9L501 -7Q455 -6 403 -4Q358 -2 303 -1T190 0Q152 0 115
-1T47 -5Q12 -8 -20 -10L0 82Q37 88 52 106T73 170L116 505Q120 537 116 548T96 559Q92 559 88 559T80 558Q76 557 71 557L61 571L80 650Q121 649 161 648Q196 647 236 647T310 647Q355 647 400 648T485 650T558 654T612 659L623 643Q614 612 605 579Q597 550 590
515T576 444L436 435Q438 444 440 453Q442 461 443 469T444 484Q444 510 426 518T358 527Q338 527 332 522T323 500L303 387Q317 387 339 387T382 386Q393 386 411 386T446 389Q466 390 489 392L499 378L471 263Q450 263 430 264Q413 265 393 265T356 266Q335 266
316 264T283 260Q279 234 274 201T269 151ZM509 746Q470 739 428 730Q392 722 347 712T255 691L236 704L215 775Q261 792 306 810T386 842Q427 859 464 875L480 870L516 762L509 746Z" />
<glyph unicode="&#xca;" glyph-name="Ecircumflex" horiz-adv-x="586" d="M269 151Q269 128 277 122T309 115Q339 115 358 119T391 134T413 166T431 221L560 230L571 215Q562 186 553 153Q545 124 536 87T518 9L501 -7Q455 -6 403 -4Q358 -2 303 -1T190 0Q152
0 115 -1T47 -5Q12 -8 -20 -10L0 82Q37 88 52 106T73 170L116 505Q120 537 116 548T96 559Q92 559 88 559T80 558Q76 557 71 557L61 571L80 650Q121 649 161 648Q196 647 236 647T310 647Q355 647 400 648T485 650T558 654T612 659L623 643Q614 612 605 579Q597
550 590 515T576 444L436 435Q438 444 440 453Q442 461 443 469T444 484Q444 510 426 518T358 527Q338 527 332 522T323 500L303 387Q317 387 339 387T382 386Q393 386 411 386T446 389Q466 390 489 392L499 378L471 263Q450 263 430 264Q413 265 393 265T356 266Q335
266 316 264T283 260Q279 234 274 201T269 151ZM199 770Q232 793 266 817T327 862Q359 886 389 908H416Q416 910 430 898T466 865T516 819T572 770L529 708L505 701Q474 715 439 729T383 752Q360 744 323 730T249 701L227 708L199 770Z" />
<glyph unicode="&#xcb;" glyph-name="Edieresis" horiz-adv-x="586" d="M269 151Q269 128 277 122T309 115Q339 115 358 119T391 134T413 166T431 221L560 230L571 215Q562 186 553 153Q545 124 536 87T518 9L501 -7Q455 -6 403 -4Q358 -2 303 -1T190 0Q152 0
115 -1T47 -5Q12 -8 -20 -10L0 82Q37 88 52 106T73 170L116 505Q120 537 116 548T96 559Q92 559 88 559T80 558Q76 557 71 557L61 571L80 650Q121 649 161 648Q196 647 236 647T310 647Q355 647 400 648T485 650T558 654T612 659L623 643Q614 612 605 579Q597 550
590 515T576 444L436 435Q438 444 440 453Q442 461 443 469T444 484Q444 510 426 518T358 527Q338 527 332 522T323 500L303 387Q317 387 339 387T382 386Q393 386 411 386T446 389Q466 390 489 392L499 378L471 263Q450 263 430 264Q413 265 393 265T356 266Q335
266 316 264T283 260Q279 234 274 201T269 151ZM467 695Q396 695 396 762Q396 807 422 834T493 862Q527 862 544 844T562 794Q562 749 536 722T467 695ZM279 695Q209 695 209 762Q209 807 235 834T306 862Q339 862 357 844T375 794Q375 749 349 722T279 695Z" />
<glyph unicode="&#xcc;" glyph-name="Igrave" horiz-adv-x="359" d="M323 510Q319 486 313 452T301 378T289 297T278 221T270 161T267 125Q267 102 272 95T292 87Q300 87 305 87T315 88Q319 89 323 90L329 80L310 -4Q276 -3 244 -2Q217 -1 190 -1T147 0Q124 0
96 -1T42 -3Q13 -4 -17 -5L1 80Q21 84 34 90T55 105T67 127T73 162L116 508Q120 539 114 549T88 559Q84 559 80 559T72 558H64L56 572L73 647H232Q247 647 275 647T332 649Q365 650 402 652L384 562Q367 559 357 556T340 548T330 533T323 510ZM82 762L118 870L134
875Q171 859 212 842Q247 828 291 810T383 775L362 704L343 691Q296 702 251 712T169 730Q127 739 89 746L82 762Z" />
<glyph unicode="&#xcd;" glyph-name="Iacute" horiz-adv-x="359" d="M323 510Q319 486 313 452T301 378T289 297T278 221T270 161T267 125Q267 102 272 95T292 87Q300 87 305 87T315 88Q319 89 323 90L329 80L310 -4Q276 -3 244 -2Q217 -1 190 -1T147 0Q124 0
96 -1T42 -3Q13 -4 -17 -5L1 80Q21 84 34 90T55 105T67 127T73 162L116 508Q120 539 114 549T88 559Q84 559 80 559T72 558H64L56 572L73 647H232Q247 647 275 647T332 649Q365 650 402 652L384 562Q367 559 357 556T340 548T330 533T323 510ZM390 746Q351 739
309 730Q273 722 228 712T136 691L117 704L96 775Q142 792 187 810T267 842Q308 859 345 875L361 870L397 762L390 746Z" />
<glyph unicode="&#xce;" glyph-name="Icircumflex" horiz-adv-x="359" d="M323 510Q319 486 313 452T301 378T289 297T278 221T270 161T267 125Q267 102 272 95T292 87Q300 87 305 87T315 88Q319 89 323 90L329 80L310 -4Q276 -3 244 -2Q217 -1 190 -1T147 0Q124
0 96 -1T42 -3Q13 -4 -17 -5L1 80Q21 84 34 90T55 105T67 127T73 162L116 508Q120 539 114 549T88 559Q84 559 80 559T72 558H64L56 572L73 647H232Q247 647 275 647T332 649Q365 650 402 652L384 562Q367 559 357 556T340 548T330 533T323 510ZM317 770Q350 793
384 817T445 862Q477 886 507 908H534Q534 910 548 898T584 865T634 819T690 770L647 708L623 701Q592 715 557 729T501 752Q478 744 441 730T367 701L345 708L317 770Z" />
<glyph unicode="&#xcf;" glyph-name="Idieresis" horiz-adv-x="359" d="M323 510Q319 486 313 452T301 378T289 297T278 221T270 161T267 125Q267 102 272 95T292 87Q300 87 305 87T315 88Q319 89 323 90L329 80L310 -4Q276 -3 244 -2Q217 -1 190 -1T147 0Q124
0 96 -1T42 -3Q13 -4 -17 -5L1 80Q21 84 34 90T55 105T67 127T73 162L116 508Q120 539 114 549T88 559Q84 559 80 559T72 558H64L56 572L73 647H232Q247 647 275 647T332 649Q365 650 402 652L384 562Q367 559 357 556T340 548T330 533T323 510ZM585 695Q514 695
514 762Q514 807 540 834T611 862Q645 862 662 844T680 794Q680 749 654 722T585 695ZM397 695Q327 695 327 762Q327 807 353 834T424 862Q457 862 475 844T493 794Q493 749 467 722T397 695Z" />
<glyph unicode="&#xd0;" glyph-name="Eth" horiz-adv-x="680" d="M299 -12Q272 -9 245 -6Q222 -4 196 -2T146 0Q125 0 101 -1T54 -4Q28 -6 4 -8L24 85Q42 88 54 93T74 107T87 131T96 168L108 266H20L11 274L35 363H120L137 503Q141 535 138 546T120 557Q115 557
110 557T99 556Q94 555 89 555L81 569L100 650Q131 649 159 648Q183 647 208 647T249 647Q266 647 291 647T342 650Q371 651 402 653Q539 653 612 590T685 402Q685 309 658 233T579 102T457 18T299 -12ZM363 526Q352 526 348 521T340 499Q338 488 332 450T318 364L388
367L395 357L377 267H304Q296 218 292 183T287 145Q287 127 293 120T313 113Q383 113 419 185T455 398Q455 469 435 497T363 526Z" />
<glyph unicode="&#xd1;" glyph-name="Ntilde" horiz-adv-x="718" d="M496 333L514 516Q516 542 511 550T488 559H458L454 570L469 651Q500 650 530 649Q556 648 584 648T633 647Q654 647 678 647T722 648T756 649T770 650L754 560Q722 555 709 542T691 497L617
0L425 -12Q394 58 367 117T320 221Q296 272 275 315H260L242 137Q239 108 245 97T274 86Q278 86 283 86T294 88Q300 89 306 90L314 81L293 -4Q262 -3 233 -2Q208 -1 183 -1T142 0Q116 0 89 -1T39 -4Q13 -6 -12 -8L9 82Q38 86 52 100T72 145L126 494Q128 511 127
522T119 540T98 550T62 557L52 571L67 652Q89 650 113 649Q133 648 159 648T213 647Q233 647 255 647T297 649Q319 650 341 651Q365 590 390 533T435 431Q459 379 481 333H496ZM289 675L237 729L239 745L332 860L349 864Q362 864 382 859T423 847T464 836T494 830Q503
830 515 839T539 859Q552 871 567 888H583L635 834L633 818L540 703L523 699Q510 699 490 704T449 716T408 727T378 733Q368 733 356 724T332 704Q319 691 305 675H289Z" />
<glyph unicode="&#xd2;" glyph-name="Ograve" horiz-adv-x="633" d="M310 114Q336 114 354 130T384 181T401 270T407 402Q407 464 391 493T342 522Q292 522 270 455T247 234Q247 172 262 143T310 114ZM283 -12Q158 -12 88 56T18 256Q18 449 108 554T372 659Q500
659 569 594T638 398Q638 302 615 226T546 97T435 16T283 -12ZM228 762L264 870L280 875Q317 859 358 842Q393 828 437 810T529 775L508 704L489 691Q442 702 397 712T315 730Q273 739 235 746L228 762Z" />
<glyph unicode="&#xd3;" glyph-name="Oacute" horiz-adv-x="633" d="M310 114Q336 114 354 130T384 181T401 270T407 402Q407 464 391 493T342 522Q292 522 270 455T247 234Q247 172 262 143T310 114ZM283 -12Q158 -12 88 56T18 256Q18 449 108 554T372 659Q500
659 569 594T638 398Q638 302 615 226T546 97T435 16T283 -12ZM521 746Q482 739 440 730Q404 722 359 712T267 691L248 704L227 775Q273 792 318 810T398 842Q439 859 476 875L492 870L528 762L521 746Z" />
<glyph unicode="&#xd4;" glyph-name="Ocircumflex" horiz-adv-x="633" d="M310 114Q336 114 354 130T384 181T401 270T407 402Q407 464 391 493T342 522Q292 522 270 455T247 234Q247 172 262 143T310 114ZM283 -12Q158 -12 88 56T18 256Q18 449 108 554T372 659Q500
659 569 594T638 398Q638 302 615 226T546 97T435 16T283 -12ZM197 770Q230 793 264 817T325 862Q357 886 387 908H414Q414 910 428 898T464 865T514 819T570 770L527 708L503 701Q472 715 437 729T381 752Q358 744 321 730T247 701L225 708L197 770Z" />
<glyph unicode="&#xd5;" glyph-name="Otilde" horiz-adv-x="633" d="M310 114Q336 114 354 130T384 181T401 270T407 402Q407 464 391 493T342 522Q292 522 270 455T247 234Q247 172 262 143T310 114ZM283 -12Q158 -12 88 56T18 256Q18 449 108 554T372 659Q500
659 569 594T638 398Q638 302 615 226T546 97T435 16T283 -12ZM239 675L187 729L189 745L282 860L299 864Q312 864 332 859T373 847T414 836T444 830Q453 830 465 839T489 859Q502 871 517 888H533L585 834L583 818L490 703L473 699Q460 699 440 704T399 716T358
727T328 733Q318 733 306 724T282 704Q269 691 255 675H239Z" />
<glyph unicode="&#xd6;" glyph-name="Odieresis" horiz-adv-x="633" d="M310 114Q336 114 354 130T384 181T401 270T407 402Q407 464 391 493T342 522Q292 522 270 455T247 234Q247 172 262 143T310 114ZM283 -12Q158 -12 88 56T18 256Q18 449 108 554T372 659Q500
659 569 594T638 398Q638 302 615 226T546 97T435 16T283 -12ZM465 695Q394 695 394 762Q394 807 420 834T491 862Q525 862 542 844T560 794Q560 749 534 722T465 695ZM277 695Q207 695 207 762Q207 807 233 834T304 862Q337 862 355 844T373 794Q373 749 347 722T277
695Z" />
<glyph unicode="&#xd7;" glyph-name="multiply" horiz-adv-x="491" d="M393 449L464 347L346 236Q363 216 380 197T411 163Q427 145 442 129L434 113L319 26L229 132Q207 112 187 93T150 59Q132 41 115 26L100 29L34 133Q49 147 67 164Q82 178 101 195T141 232Q123
252 107 272T76 309Q60 327 46 345L51 361L169 444Q181 428 196 410Q208 395 224 376T257 336Q279 356 301 377T340 416L379 455L393 449Z" />
<glyph unicode="&#xd8;" glyph-name="Oslash" horiz-adv-x="633" d="M85 60Q53 94 36 143T18 256Q18 449 108 554T372 659Q427 659 474 645L543 752L640 698L642 685L576 585Q638 517 638 398Q638 302 615 226T546 97T435 16T283 -12Q230 -12 187 0L108 -117L13
-62L9 -52L85 60ZM310 114Q336 114 354 130T384 181T401 270T407 402Q407 464 391 493T342 522Q292 522 270 455T247 234Q247 172 262 143T310 114Z" />
<glyph unicode="&#xd9;" glyph-name="Ugrave" horiz-adv-x="605" d="M251 220Q250 213 250 205T249 192Q247 115 308 115Q343 115 360 135T384 203Q385 215 387 234T393 276T399 325T405 377Q412 437 420 505Q424 537 420 548T402 559Q398 559 395 559T388 558Q384
557 381 557L378 561L400 650Q423 649 445 648Q464 647 483 647T516 647Q539 647 564 647T610 648Q635 649 659 650L640 560Q624 555 615 551T600 542T593 531T589 516L554 234Q537 109 469 49T274 -12Q158 -12 103 29T47 159Q47 178 50 199L88 505Q92 539 89 549T68
559Q64 559 60 559T50 558Q45 557 40 557L38 561L59 650Q87 649 117 648Q143 647 173 647T233 647Q247 647 269 647T313 649Q338 650 365 651L344 558Q318 555 307 544T292 509L251 220ZM220 762L256 870L272 875Q309 859 350 842Q385 828 429 810T521 775L500
704L481 691Q434 702 389 712T307 730Q265 739 227 746L220 762Z" />
<glyph unicode="&#xda;" glyph-name="Uacute" horiz-adv-x="605" d="M251 220Q250 213 250 205T249 192Q247 115 308 115Q343 115 360 135T384 203Q385 215 387 234T393 276T399 325T405 377Q412 437 420 505Q424 537 420 548T402 559Q398 559 395 559T388 558Q384
557 381 557L378 561L400 650Q423 649 445 648Q464 647 483 647T516 647Q539 647 564 647T610 648Q635 649 659 650L640 560Q624 555 615 551T600 542T593 531T589 516L554 234Q537 109 469 49T274 -12Q158 -12 103 29T47 159Q47 178 50 199L88 505Q92 539 89 549T68
559Q64 559 60 559T50 558Q45 557 40 557L38 561L59 650Q87 649 117 648Q143 647 173 647T233 647Q247 647 269 647T313 649Q338 650 365 651L344 558Q318 555 307 544T292 509L251 220ZM515 746Q476 739 434 730Q398 722 353 712T261 691L242 704L221 775Q267
792 312 810T392 842Q433 859 470 875L486 870L522 762L515 746Z" />
<glyph unicode="&#xdb;" glyph-name="Ucircumflex" horiz-adv-x="605" d="M251 220Q250 213 250 205T249 192Q247 115 308 115Q343 115 360 135T384 203Q385 215 387 234T393 276T399 325T405 377Q412 437 420 505Q424 537 420 548T402 559Q398 559 395 559T388
558Q384 557 381 557L378 561L400 650Q423 649 445 648Q464 647 483 647T516 647Q539 647 564 647T610 648Q635 649 659 650L640 560Q624 555 615 551T600 542T593 531T589 516L554 234Q537 109 469 49T274 -12Q158 -12 103 29T47 159Q47 178 50 199L88 505Q92
539 89 549T68 559Q64 559 60 559T50 558Q45 557 40 557L38 561L59 650Q87 649 117 648Q143 647 173 647T233 647Q247 647 269 647T313 649Q338 650 365 651L344 558Q318 555 307 544T292 509L251 220ZM205 770Q238 793 272 817T333 862Q365 886 395 908H422Q422
910 436 898T472 865T522 819T578 770L535 708L511 701Q480 715 445 729T389 752Q366 744 329 730T255 701L233 708L205 770Z" />
<glyph unicode="&#xdc;" glyph-name="Udieresis" horiz-adv-x="605" d="M251 220Q250 213 250 205T249 192Q247 115 308 115Q343 115 360 135T384 203Q385 215 387 234T393 276T399 325T405 377Q412 437 420 505Q424 537 420 548T402 559Q398 559 395 559T388
558Q384 557 381 557L378 561L400 650Q423 649 445 648Q464 647 483 647T516 647Q539 647 564 647T610 648Q635 649 659 650L640 560Q624 555 615 551T600 542T593 531T589 516L554 234Q537 109 469 49T274 -12Q158 -12 103 29T47 159Q47 178 50 199L88 505Q92
539 89 549T68 559Q64 559 60 559T50 558Q45 557 40 557L38 561L59 650Q87 649 117 648Q143 647 173 647T233 647Q247 647 269 647T313 649Q338 650 365 651L344 558Q318 555 307 544T292 509L251 220ZM473 695Q402 695 402 762Q402 807 428 834T499 862Q533 862
550 844T568 794Q568 749 542 722T473 695ZM285 695Q215 695 215 762Q215 807 241 834T312 862Q345 862 363 844T381 794Q381 749 355 722T285 695Z" />
<glyph unicode="&#xdd;" glyph-name="Yacute" horiz-adv-x="650" d="M332 533Q332 526 335 509T343 471T354 428T365 387H379L429 501Q437 516 442 528T447 547Q447 555 440 558T413 561L411 567L429 646H584Q603 646 623 646T659 648Q677 649 695 650L698 642L680
555Q648 537 615 504T558 429L448 247Q434 221 430 201T422 154Q417 119 426 105T463 91Q472 91 481 91T497 92Q505 93 513 94L517 88L497 -6Q455 -5 416 -3Q383 -2 349 -1T293 0Q269 0 235 -1T169 -5Q132 -7 92 -9L111 83Q142 85 162 89T195 102T213 125T222 162L224
178Q227 200 224 219T208 268L128 467Q117 495 95 516T44 551L40 557L61 648Q94 647 123 647Q148 646 172 646T209 646Q226 646 255 646T314 649Q348 651 386 653L392 642L373 560Q332 560 332 533ZM547 746Q508 739 466 730Q430 722 385 712T293 691L274 704L253
775Q299 792 344 810T424 842Q465 859 502 875L518 870L554 762L547 746Z" />
<glyph unicode="&#xde;" glyph-name="Thorn" horiz-adv-x="590" d="M324 522H390Q500 522 552 482T605 360Q605 310 585 269T529 199T444 155T337 139H268L265 116Q263 98 268 93T292 87Q303 87 310 87T323 88Q329 89 333 90L340 80L321 -4Q283 -3 250 -2Q221
-1 193 -1T147 0Q124 0 96 -1T42 -3Q13 -4 -17 -5L1 80Q20 84 33 89T54 104T66 127T73 162L116 508Q120 539 114 549T88 559Q84 559 80 559T72 558H64L56 572L73 647H232Q247 647 275 647T332 649Q365 650 402 652L384 562Q366 558 355 556T338 549T329 540T325
527L324 522ZM301 385Q300 375 298 359T293 324T288 287T284 256Q303 251 319 249T342 246Q371 254 384 280T398 344Q398 377 380 392T323 407Q304 407 301 385Z" />
<glyph unicode="&#xdf;" glyph-name="germandbls" horiz-adv-x="676" d="M6 384L14 450L102 463L107 511Q111 554 138 595T206 669T297 722T397 742Q442 742 479 732T542 704T584 659T599 598Q599 559 583 532T546 482T510 439T493 395Q493 378 506 365T539 341T581
317T624 287T657 244T670 183Q670 141 652 105T601 43T524 3T428 -12Q376 -12 336 6T286 53Q289 68 296 87T312 125T331 161T351 190L378 188Q377 153 394 130T438 106Q458 106 469 117T481 148Q481 165 469 176T437 199T397 221T356 249T325 287T312 342Q312 381
328 408T365 458T402 503T419 555Q419 581 407 603T363 625Q328 625 307 607T278 541L218 -6Q213 -48 189 -90T131 -166T55 -221T-24 -242Q-72 -242 -110 -224T-158 -180Q-154 -165 -146 -147T-127 -110T-107 -75T-88 -48H-68Q-64 -92 -48 -109T4 -127Q33 -127
51 -107T69 -46Q69 -32 69 -16T69 8L94 369L83 379H9L6 384Z" />
<glyph unicode="&#xe0;" glyph-name="agrave" horiz-adv-x="528" d="M446 154Q451 154 461 162T498 195L521 191L541 143Q500 97 470 67T415 20T371 -5T329 -12Q278 -12 278 36Q278 41 279 49T283 71T290 106T303 158H293Q273 123 256 96T222 49T191 14T160 -12Q88
-12 49 29T9 145Q9 204 31 262T90 367T171 443T263 472L335 452L340 472L359 484L493 472L501 449Q490 401 479 351Q470 308 460 257T442 157L446 154ZM206 143Q214 143 227 160T254 206T283 269T307 341Q266 367 233 367Q226 367 219 353T205 316T196 265T192
209Q192 180 196 162T206 143ZM162 661L234 762H251Q278 737 309 709Q335 685 369 655T438 595L397 534L375 527Q336 550 299 570T231 608Q196 627 164 644L162 661Z" />
<glyph unicode="&#xe1;" glyph-name="aacute" horiz-adv-x="528" d="M446 154Q451 154 461 162T498 195L521 191L541 143Q500 97 470 67T415 20T371 -5T329 -12Q278 -12 278 36Q278 41 279 49T283 71T290 106T303 158H293Q273 123 256 96T222 49T191 14T160 -12Q88
-12 49 29T9 145Q9 204 31 262T90 367T171 443T263 472L335 452L340 472L359 484L493 472L501 449Q490 401 479 351Q470 308 460 257T442 157L446 154ZM206 143Q214 143 227 160T254 206T283 269T307 341Q266 367 233 367Q226 367 219 353T205 316T196 265T192
209Q192 180 196 162T206 143ZM463 642Q431 625 396 606Q366 589 328 569T252 525L230 532L189 593Q224 623 258 653T318 707Q349 735 376 760H393L465 659L463 642Z" />
<glyph unicode="&#xe2;" glyph-name="acircumflex" horiz-adv-x="528" d="M446 154Q451 154 461 162T498 195L521 191L541 143Q500 97 470 67T415 20T371 -5T329 -12Q278 -12 278 36Q278 41 279 49T283 71T290 106T303 158H293Q273 123 256 96T222 49T191 14T160
-12Q88 -12 49 29T9 145Q9 204 31 262T90 367T171 443T263 472L335 452L340 472L359 484L493 472L501 449Q490 401 479 351Q470 308 460 257T442 157L446 154ZM206 143Q214 143 227 160T254 206T283 269T307 341Q266 367 233 367Q226 367 219 353T205 316T196 265T192
209Q192 180 196 162T206 143ZM143 605Q175 631 207 658T266 709Q297 735 325 761H352Q373 735 398 709Q418 686 444 659T496 605L443 543L419 536Q393 556 365 575T319 605Q299 594 267 575T204 536L181 543L143 605Z" />
<glyph unicode="&#xe3;" glyph-name="atilde" horiz-adv-x="528" d="M446 154Q451 154 461 162T498 195L521 191L541 143Q500 97 470 67T415 20T371 -5T329 -12Q278 -12 278 36Q278 41 279 49T283 71T290 106T303 158H293Q273 123 256 96T222 49T191 14T160 -12Q88
-12 49 29T9 145Q9 204 31 262T90 367T171 443T263 472L335 452L340 472L359 484L493 472L501 449Q490 401 479 351Q470 308 460 257T442 157L446 154ZM206 143Q214 143 227 160T254 206T283 269T307 341Q266 367 233 367Q226 367 219 353T205 316T196 265T192
209Q192 180 196 162T206 143ZM160 527L107 581L109 597L202 712L219 716Q232 716 252 711T293 699T334 688T365 682Q373 682 386 691T410 711Q423 723 437 740H453L506 686L504 670L411 555L394 551Q381 551 361 556T320 568T279 579T248 585Q239 585 227 576T203
556Q190 543 176 527H160Z" />
<glyph unicode="&#xe4;" glyph-name="adieresis" horiz-adv-x="528" d="M446 154Q451 154 461 162T498 195L521 191L541 143Q500 97 470 67T415 20T371 -5T329 -12Q278 -12 278 36Q278 41 279 49T283 71T290 106T303 158H293Q273 123 256 96T222 49T191 14T160
-12Q88 -12 49 29T9 145Q9 204 31 262T90 367T171 443T263 472L335 452L340 472L359 484L493 472L501 449Q490 401 479 351Q470 308 460 257T442 157L446 154ZM206 143Q214 143 227 160T254 206T283 269T307 341Q266 367 233 367Q226 367 219 353T205 316T196 265T192
209Q192 180 196 162T206 143ZM413 561Q342 561 342 628Q342 673 368 700T439 728Q473 728 491 710T509 660Q509 615 483 588T413 561ZM224 561Q154 561 154 628Q154 673 180 700T251 728Q285 728 303 710T321 660Q321 615 295 588T224 561Z" />
<glyph unicode="&#xe5;" glyph-name="aring" horiz-adv-x="528" d="M446 154Q451 154 461 162T498 195L521 191L541 143Q500 97 470 67T415 20T371 -5T329 -12Q278 -12 278 36Q278 41 279 49T283 71T290 106T303 158H293Q273 123 256 96T222 49T191 14T160 -12Q88
-12 49 29T9 145Q9 204 31 262T90 367T171 443T263 472L335 452L340 472L359 484L493 472L501 449Q490 401 479 351Q470 308 460 257T442 157L446 154ZM206 143Q214 143 227 160T254 206T283 269T307 341Q266 367 233 367Q226 367 219 353T205 316T196 265T192
209Q192 180 196 162T206 143ZM303 612Q314 612 327 619T341 650Q341 680 308 680Q288 680 279 670T270 643Q270 625 281 619T303 612ZM288 542Q244 542 222 566T200 631Q200 656 209 678T234 717T273 742T322 752Q371 752 391 726T411 667Q411 643 403 621T378
581T339 553T288 542Z" />
<glyph unicode="&#xe6;" glyph-name="ae" horiz-adv-x="686" d="M691 371Q691 336 678 309T634 258T557 215T442 175Q450 126 497 126Q547 126 588 197L610 194L662 136Q649 105 625 78T571 31T505 0T435 -12Q371 -12 329 25T275 127Q241 71 215 39T160 -12Q88
-12 49 29T9 145Q9 204 31 262T90 367T171 443T263 472L415 443Q446 462 480 472T553 483Q617 483 654 453T691 371ZM206 143Q214 143 227 161T254 209T283 276T307 351Q264 367 233 367Q226 367 219 353T205 316T196 265T192 209Q192 180 196 162T206 143ZM516
363Q460 363 445 257Q541 294 541 340Q541 363 516 363Z" />
<glyph unicode="&#xe7;" glyph-name="ccedilla" horiz-adv-x="393" d="M157 -11Q90 -5 52 42T13 167Q13 232 35 289T95 390T185 458T294 483Q324 483 353 477T403 459L407 441L356 312L313 311Q288 363 253 363Q239 363 227 352T207 319T193 269T188 206Q188 128
236 128Q277 128 311 202L332 199L384 141Q374 115 358 92T320 50T274 17T224 -4L214 -37Q228 -44 244 -54T275 -78T300 -107T310 -138Q310 -159 297 -178T263 -212T212 -234T149 -243Q135 -243 121 -240T94 -230T75 -214T67 -192Q67 -186 73 -177T88 -157T108
-136T128 -118H136Q134 -146 145 -160T176 -174Q207 -174 207 -150Q207 -143 200 -135T182 -118T157 -102T130 -87L157 -11Z" />
<glyph unicode="&#xe8;" glyph-name="egrave" horiz-adv-x="429" d="M434 371Q434 336 421 309T377 258T300 215T185 175Q193 126 240 126Q290 126 331 197L353 194L405 136Q392 105 368 78T314 31T248 0T178 -12Q103 -12 59 38T14 173Q14 237 36 293T97 392T187
458T296 483Q360 483 397 453T434 371ZM259 363Q203 363 188 257Q284 294 284 340Q284 363 259 363ZM132 659L204 760H221Q248 735 279 707Q305 683 339 653T408 593L367 532L345 525Q306 548 269 568T201 606Q166 625 134 642L132 659Z" />
<glyph unicode="&#xe9;" glyph-name="eacute" horiz-adv-x="429" d="M434 371Q434 336 421 309T377 258T300 215T185 175Q193 126 240 126Q290 126 331 197L353 194L405 136Q392 105 368 78T314 31T248 0T178 -12Q103 -12 59 38T14 173Q14 237 36 293T97 392T187
458T296 483Q360 483 397 453T434 371ZM259 363Q203 363 188 257Q284 294 284 340Q284 363 259 363ZM406 644Q374 627 339 608Q309 591 271 571T195 527L173 534L132 595Q167 625 201 655T261 709Q292 737 319 762H336L408 661L406 644Z" />
<glyph unicode="&#xea;" glyph-name="ecircumflex" horiz-adv-x="429" d="M434 371Q434 336 421 309T377 258T300 215T185 175Q193 126 240 126Q290 126 331 197L353 194L405 136Q392 105 368 78T314 31T248 0T178 -12Q103 -12 59 38T14 173Q14 237 36 293T97
392T187 458T296 483Q360 483 397 453T434 371ZM259 363Q203 363 188 257Q284 294 284 340Q284 363 259 363ZM123 604Q155 630 187 657T246 708Q277 734 305 760H332Q353 734 378 708Q398 685 424 658T476 604L423 542L399 535Q373 555 345 574T299 604Q279 593
247 574T184 535L161 542L123 604Z" />
<glyph unicode="&#xeb;" glyph-name="edieresis" horiz-adv-x="429" d="M434 371Q434 336 421 309T377 258T300 215T185 175Q193 126 240 126Q290 126 331 197L353 194L405 136Q392 105 368 78T314 31T248 0T178 -12Q103 -12 59 38T14 173Q14 237 36 293T97 392T187
458T296 483Q360 483 397 453T434 371ZM259 363Q203 363 188 257Q284 294 284 340Q284 363 259 363ZM379 559Q308 559 308 626Q308 671 334 698T405 726Q439 726 457 708T475 658Q475 613 449 586T379 559ZM190 559Q120 559 120 626Q120 671 146 698T217 726Q251
726 269 708T287 658Q287 613 261 586T190 559Z" />
<glyph unicode="&#xec;" glyph-name="igrave" horiz-adv-x="304" d="M216 154Q218 154 220 155T228 160T242 172T268 195L291 191L311 143Q271 98 241 68T187 20T143 -5T101 -12Q35 -12 35 55Q47 129 57 190Q61 216 65 241T72 288T78 325T80 346Q80 379 47 379H19L31
461Q64 461 103 463T176 467Q216 470 254 473L270 453Q260 410 249 362Q240 320 230 267T212 157L216 154ZM36 659L108 760H125Q152 735 183 707Q209 683 243 653T312 593L271 532L249 525Q210 548 173 568T105 606Q70 625 38 642L36 659Z" />
<glyph unicode="&#xed;" glyph-name="iacute" horiz-adv-x="304" d="M216 154Q218 154 220 155T228 160T242 172T268 195L291 191L311 143Q271 98 241 68T187 20T143 -5T101 -12Q35 -12 35 55Q47 129 57 190Q61 216 65 241T72 288T78 325T80 346Q80 379 47 379H19L31
461Q64 461 103 463T176 467Q216 470 254 473L270 453Q260 410 249 362Q240 320 230 267T212 157L216 154ZM564 642Q532 625 497 606Q467 589 429 569T353 525L331 532L290 593Q325 623 359 653T419 707Q450 735 477 760H494L566 659L564 642Z" />
<glyph unicode="&#xee;" glyph-name="icircumflex" horiz-adv-x="304" d="M216 154Q218 154 220 155T228 160T242 172T268 195L291 191L311 143Q271 98 241 68T187 20T143 -5T101 -12Q35 -12 35 55Q47 129 57 190Q61 216 65 241T72 288T78 325T80 346Q80 379 47
379H19L31 461Q64 461 103 463T176 467Q216 470 254 473L270 453Q260 410 249 362Q240 320 230 267T212 157L216 154ZM274 604Q306 630 338 657T397 708Q428 734 456 760H483Q504 734 529 708Q549 685 575 658T627 604L574 542L550 535Q524 555 496 574T450 604Q430
593 398 574T335 535L312 542L274 604Z" />
<glyph unicode="&#xef;" glyph-name="idieresis" horiz-adv-x="304" d="M216 154Q218 154 220 155T228 160T242 172T268 195L291 191L311 143Q271 98 241 68T187 20T143 -5T101 -12Q35 -12 35 55Q47 129 57 190Q61 216 65 241T72 288T78 325T80 346Q80 379 47
379H19L31 461Q64 461 103 463T176 467Q216 470 254 473L270 453Q260 410 249 362Q240 320 230 267T212 157L216 154ZM534 559Q463 559 463 626Q463 671 489 698T560 726Q594 726 612 708T630 658Q630 613 604 586T534 559ZM345 559Q275 559 275 626Q275 671 301
698T372 726Q406 726 424 708T442 658Q442 613 416 586T345 559Z" />
<glyph unicode="&#xf0;" glyph-name="eth" horiz-adv-x="493" d="M430 738L450 645L358 599Q421 534 454 456T487 296Q487 226 468 169T412 72T324 10T207 -12Q109 -12 58 38T6 180Q6 240 22 293T67 387T134 450T216 473Q224 468 232 462T250 451L255 460Q239
493 210 527L81 463L72 465L52 559L131 600Q117 613 101 626T68 653L129 734L146 742Q181 725 212 707T273 668L422 742L430 738ZM290 284Q290 296 290 313T289 339Q283 344 277 346T259 349Q244 349 233 336T213 298T200 241T195 169Q195 127 204 111T235 95Q245
95 255 113T272 159T285 220T290 284Z" />
<glyph unicode="&#xf1;" glyph-name="ntilde" horiz-adv-x="538" d="M455 157Q457 157 459 158T467 163T482 176T507 198L531 194L550 146Q511 102 481 72T427 24T382 -1T340 -9Q305 -9 290 5T274 50Q274 66 283 100T304 172T325 243T335 291Q335 319 317 319Q309
319 297 303T269 259T237 191T204 104L197 45Q195 34 183 25T150 9T104 -3T49 -7L29 16Q41 90 52 154Q56 181 60 209T69 261T76 305T81 336Q84 360 77 369T49 379H21L33 461Q66 461 105 463T178 467Q218 470 256 473L270 452L258 404Q253 383 247 356T237 302L244
303Q307 448 362 485Q432 485 471 457T511 378Q511 363 503 333T485 269T465 206T452 160L455 157ZM183 525L130 579L132 595L225 710L242 714Q255 714 275 709T316 697T357 686T388 680Q396 680 409 689T433 709Q446 721 460 738H476L529 684L527 668L434 553L417
549Q404 549 384 554T343 566T302 577T271 583Q262 583 250 574T226 554Q213 541 199 525H183Z" />
<glyph unicode="&#xf2;" glyph-name="ograve" horiz-adv-x="486" d="M236 95Q263 95 275 135T287 267Q287 321 279 342T249 364Q225 364 211 319T197 195Q197 143 206 119T236 95ZM198 -12Q112 -12 66 39T19 184Q19 252 38 307T93 402T178 462T289 484Q377 484
422 436T468 295Q468 226 449 169T394 72T309 10T198 -12ZM110 659L182 760H199Q226 735 257 707Q283 683 317 653T386 593L345 532L323 525Q284 548 247 568T179 606Q144 625 112 642L110 659Z" />
<glyph unicode="&#xf3;" glyph-name="oacute" horiz-adv-x="486" d="M236 95Q263 95 275 135T287 267Q287 321 279 342T249 364Q225 364 211 319T197 195Q197 143 206 119T236 95ZM198 -12Q112 -12 66 39T19 184Q19 252 38 307T93 402T178 462T289 484Q377 484
422 436T468 295Q468 226 449 169T394 72T309 10T198 -12ZM431 642Q399 625 364 606Q334 589 296 569T220 525L198 532L157 593Q192 623 226 653T286 707Q317 735 344 760H361L433 659L431 642Z" />
<glyph unicode="&#xf4;" glyph-name="ocircumflex" horiz-adv-x="486" d="M236 95Q263 95 275 135T287 267Q287 321 279 342T249 364Q225 364 211 319T197 195Q197 143 206 119T236 95ZM198 -12Q112 -12 66 39T19 184Q19 252 38 307T93 402T178 462T289 484Q377
484 422 436T468 295Q468 226 449 169T394 72T309 10T198 -12ZM111 604Q143 630 175 657T234 708Q265 734 293 760H320Q341 734 366 708Q386 685 412 658T464 604L411 542L387 535Q361 555 333 574T287 604Q267 593 235 574T172 535L149 542L111 604Z" />
<glyph unicode="&#xf5;" glyph-name="otilde" horiz-adv-x="486" d="M236 95Q263 95 275 135T287 267Q287 321 279 342T249 364Q225 364 211 319T197 195Q197 143 206 119T236 95ZM198 -12Q112 -12 66 39T19 184Q19 252 38 307T93 402T178 462T289 484Q377 484
422 436T468 295Q468 226 449 169T394 72T309 10T198 -12ZM148 525L95 579L97 595L190 710L207 714Q220 714 240 709T281 697T322 686T353 680Q361 680 374 689T398 709Q411 721 425 738H441L494 684L492 668L399 553L382 549Q369 549 349 554T308 566T267 577T236
583Q227 583 215 574T191 554Q178 541 164 525H148Z" />
<glyph unicode="&#xf6;" glyph-name="odieresis" horiz-adv-x="486" d="M236 95Q263 95 275 135T287 267Q287 321 279 342T249 364Q225 364 211 319T197 195Q197 143 206 119T236 95ZM198 -12Q112 -12 66 39T19 184Q19 252 38 307T93 402T178 462T289 484Q377
484 422 436T468 295Q468 226 449 169T394 72T309 10T198 -12ZM371 559Q300 559 300 626Q300 671 326 698T397 726Q431 726 449 708T467 658Q467 613 441 586T371 559ZM182 559Q112 559 112 626Q112 671 138 698T209 726Q243 726 261 708T279 658Q279 613 253 586T182
559Z" />
<glyph unicode="&#xf7;" glyph-name="divide" horiz-adv-x="491" d="M485 314L455 178L235 177Q202 177 164 177T93 176H16L9 189L43 324Q81 323 121 323H264Q293 323 330 323T401 326Q440 327 480 329L485 314ZM207 -17Q172 -17 155 1T137 52Q137 99 163 126T235
154Q269 154 286 136T304 85Q304 38 278 11T207 -17ZM251 344Q216 344 199 362T181 413Q181 460 207 487T280 515Q313 515 331 497T349 446Q349 399 323 372T251 344Z" />
<glyph unicode="&#xf8;" glyph-name="oslash" horiz-adv-x="486" d="M56 50Q19 99 19 184Q19 252 38 307T93 402T178 462T289 484Q318 484 342 478L425 607L522 553L524 540L440 411Q468 364 468 295Q468 226 449 169T394 72T309 10T198 -12Q187 -12 177 -11T157
-8L70 -138L-25 -83L-29 -73L56 50ZM236 95Q263 95 275 135T287 267Q287 321 279 342T249 364Q225 364 211 319T197 195Q197 143 206 119T236 95Z" />
<glyph unicode="&#xf9;" glyph-name="ugrave" horiz-adv-x="531" d="M301 173Q236 27 184 -9Q113 -9 74 19T35 98Q35 117 44 151T63 223T83 294T92 346Q92 379 59 379H31L43 461Q76 461 115 463T188 467Q228 470 266 473L282 453Q261 384 245 328Q238 304 232
280T220 235T212 200T209 179Q209 157 225 157Q234 157 247 172T275 216T308 284T342 372L353 462L373 474L482 472L502 449Q492 401 481 351Q472 308 462 257T444 157L448 154Q450 154 452 154T459 159T473 171T500 195L523 191L543 143Q502 97 472 67T417 20T373
-5T331 -12Q280 -12 280 36Q280 50 288 82T310 174L301 173ZM148 659L220 760H237Q264 735 295 707Q321 683 355 653T424 593L383 532L361 525Q322 548 285 568T217 606Q182 625 150 642L148 659Z" />
<glyph unicode="&#xfa;" glyph-name="uacute" horiz-adv-x="531" d="M301 173Q236 27 184 -9Q113 -9 74 19T35 98Q35 117 44 151T63 223T83 294T92 346Q92 379 59 379H31L43 461Q76 461 115 463T188 467Q228 470 266 473L282 453Q261 384 245 328Q238 304 232
280T220 235T212 200T209 179Q209 157 225 157Q234 157 247 172T275 216T308 284T342 372L353 462L373 474L482 472L502 449Q492 401 481 351Q472 308 462 257T444 157L448 154Q450 154 452 154T459 159T473 171T500 195L523 191L543 143Q502 97 472 67T417 20T373
-5T331 -12Q280 -12 280 36Q280 50 288 82T310 174L301 173ZM459 642Q427 625 392 606Q362 589 324 569T248 525L226 532L185 593Q220 623 254 653T314 707Q345 735 372 760H389L461 659L459 642Z" />
<glyph unicode="&#xfb;" glyph-name="ucircumflex" horiz-adv-x="531" d="M301 173Q236 27 184 -9Q113 -9 74 19T35 98Q35 117 44 151T63 223T83 294T92 346Q92 379 59 379H31L43 461Q76 461 115 463T188 467Q228 470 266 473L282 453Q261 384 245 328Q238 304
232 280T220 235T212 200T209 179Q209 157 225 157Q234 157 247 172T275 216T308 284T342 372L353 462L373 474L482 472L502 449Q492 401 481 351Q472 308 462 257T444 157L448 154Q450 154 452 154T459 159T473 171T500 195L523 191L543 143Q502 97 472 67T417
20T373 -5T331 -12Q280 -12 280 36Q280 50 288 82T310 174L301 173ZM139 604Q171 630 203 657T262 708Q293 734 321 760H348Q369 734 394 708Q414 685 440 658T492 604L439 542L415 535Q389 555 361 574T315 604Q295 593 263 574T200 535L177 542L139 604Z" />
<glyph unicode="&#xfc;" glyph-name="udieresis" horiz-adv-x="531" d="M301 173Q236 27 184 -9Q113 -9 74 19T35 98Q35 117 44 151T63 223T83 294T92 346Q92 379 59 379H31L43 461Q76 461 115 463T188 467Q228 470 266 473L282 453Q261 384 245 328Q238 304 232
280T220 235T212 200T209 179Q209 157 225 157Q234 157 247 172T275 216T308 284T342 372L353 462L373 474L482 472L502 449Q492 401 481 351Q472 308 462 257T444 157L448 154Q450 154 452 154T459 159T473 171T500 195L523 191L543 143Q502 97 472 67T417 20T373
-5T331 -12Q280 -12 280 36Q280 50 288 82T310 174L301 173ZM399 559Q328 559 328 626Q328 671 354 698T425 726Q459 726 477 708T495 658Q495 613 469 586T399 559ZM210 559Q140 559 140 626Q140 671 166 698T237 726Q271 726 289 708T307 658Q307 613 281 586T210
559Z" />
<glyph unicode="&#xfd;" glyph-name="yacute" horiz-adv-x="488" d="M278 457L466 484Q479 469 486 443T493 385Q493 326 445 233T295 0Q245 -66 203 -112T124 -187T51 -229T-22 -242Q-44 -242 -64 -237T-102 -223T-132 -202T-148 -177Q-145 -162 -138 -143T-122
-104T-102 -66T-81 -36L-55 -38Q-54 -75 -33 -99T20 -124Q43 -124 67 -108T124 -56Q116 10 107 74T90 194T74 291T63 352Q59 369 53 375T32 382Q28 382 24 382T15 381H5L11 460L219 476L230 467Q234 407 236 323T239 133H253Q267 163 279 194T300 252T314 302T319
340Q319 363 306 381T267 409L278 457ZM435 642Q403 625 368 606Q338 589 300 569T224 525L202 532L161 593Q196 623 230 653T290 707Q321 735 348 760H365L437 659L435 642Z" />
<glyph unicode="&#xfe;" glyph-name="thorn" horiz-adv-x="525" d="M-10 -89Q20 103 45 255Q55 320 65 382T83 495T96 578T101 615Q101 648 68 648H40L52 730Q86 730 126 732T200 736Q240 739 279 742L295 722Q280 652 266 580Q254 518 240 444T214 302H224Q244
338 261 365T293 412T324 446T354 472Q430 472 471 429T513 307Q513 243 491 186T431 84T343 14T238 -12Q195 -12 157 -4L145 -96Q141 -125 149 -135T187 -145H233Q233 -147 233 -148T234 -151L218 -230Q168 -230 115 -231T16 -234Q-37 -236 -86 -237L-70 -155Q-42
-151 -29 -139T-10 -89ZM320 334Q311 334 298 316T270 270T242 206T219 136Q227 128 237 123Q245 118 255 114T276 110Q288 110 298 122T316 155T328 204T333 266Q333 295 330 314T320 334Z" />
<glyph unicode="&#xff;" glyph-name="ydieresis" horiz-adv-x="488" d="M278 457L466 484Q479 469 486 443T493 385Q493 326 445 233T295 0Q245 -66 203 -112T124 -187T51 -229T-22 -242Q-44 -242 -64 -237T-102 -223T-132 -202T-148 -177Q-145 -162 -138 -143T-122
-104T-102 -66T-81 -36L-55 -38Q-54 -75 -33 -99T20 -124Q43 -124 67 -108T124 -56Q116 10 107 74T90 194T74 291T63 352Q59 369 53 375T32 382Q28 382 24 382T15 381H5L11 460L219 476L230 467Q234 407 236 323T239 133H253Q267 163 279 194T300 252T314 302T319
340Q319 363 306 381T267 409L278 457ZM365 559Q294 559 294 626Q294 671 320 698T391 726Q425 726 443 708T461 658Q461 613 435 586T365 559ZM176 559Q106 559 106 626Q106 671 132 698T203 726Q237 726 255 708T273 658Q273 613 247 586T176 559Z" />
<glyph unicode="&#x2013;" glyph-name="endash" horiz-adv-x="434" d="M455 305L429 199Q320 199 213 199T-6 198L-14 217L9 322H245Q295 322 346 322T448 324L455 305Z" />
<glyph unicode="&#x2014;" glyph-name="emdash" horiz-adv-x="801" d="M822 305L795 199Q595 199 399 199T-6 198L-14 217L9 322H401Q433 322 473 322T557 322T643 322T721 322T781 322T814 324L822 305Z" />
<glyph unicode="&#x2018;" glyph-name="quoteleft" horiz-adv-x="260" d="M246 392Q219 371 192 360T144 348Q106 348 83 375T59 449Q59 502 103 558T226 659L284 613V588Q255 567 238 538T220 482Q220 462 228 441T249 406L246 392Z" />
<glyph unicode="&#x2019;" glyph-name="quoteright" horiz-adv-x="260" d="M79 615Q105 635 132 647T181 659Q219 659 242 632T266 558Q266 504 221 448T99 348L41 394V419Q70 439 87 468T105 525Q105 545 98 565T76 601L79 615Z" />
<glyph unicode="&#x201a;" glyph-name="quotesinglbase" horiz-adv-x="231" d="M8 145Q35 166 62 177T110 189Q148 189 171 162T195 88Q195 35 151 -21T28 -122L-30 -76V-51Q-1 -30 16 -1T34 55Q34 75 26 96T5 131L8 145Z" />
<glyph unicode="&#x201c;" glyph-name="quotedblleft" horiz-adv-x="471" d="M515 392Q488 371 461 360T413 348Q375 348 352 375T328 449Q328 502 372 558T495 659L553 613V588Q524 567 507 538T489 482Q489 462 497 441T518 406L515 392ZM303 392Q276 371 249
360T201 348Q163 348 140 375T116 449Q116 502 160 558T283 659L341 613V588Q312 567 295 538T277 482Q277 462 285 441T306 406L303 392Z" />
<glyph unicode="&#x201d;" glyph-name="quotedblright" horiz-adv-x="471" d="M353 615Q379 635 406 647T455 659Q493 659 516 632T540 558Q540 504 495 448T373 348L315 394V419Q344 439 361 468T379 525Q379 545 372 565T350 601L353 615ZM141 615Q167 635 194
647T243 659Q281 659 304 632T328 558Q328 504 283 448T161 348L103 394V419Q132 439 149 468T167 525Q167 545 160 565T138 601L141 615Z" />
<glyph unicode="&#x201e;" glyph-name="quotedblbase" horiz-adv-x="436" d="M2 145Q29 166 56 177T104 189Q142 189 165 162T189 88Q189 35 145 -21T22 -122L-36 -76V-51Q-7 -30 10 -1T28 55Q28 75 20 96T-1 131L2 145ZM211 145Q238 166 265 177T313 189Q351
189 374 162T398 88Q398 35 354 -21T231 -122L173 -76V-51Q202 -30 219 -1T237 55Q237 75 229 96T208 131L211 145Z" />
<glyph unicode="&#x2022;" glyph-name="bullet" horiz-adv-x="330" d="M144 109Q91 109 64 136T36 216Q36 288 77 331T188 374Q239 374 266 346T294 267Q294 195 254 152T144 109Z" />
<glyph unicode="&#x2039;" glyph-name="guilsinglleft" horiz-adv-x="262" d="M240 387L245 364Q221 330 199 293T163 232Q171 209 184 173T212 101L202 78L136 42Q115 74 92 105T50 162Q28 192 7 219L10 246L67 303Q92 329 122 359T182 422L240 387Z" />
<glyph unicode="&#x203a;" glyph-name="guilsinglright" horiz-adv-x="262" d="M21 77L17 100Q40 134 62 171T98 232Q90 255 77 291T49 363L59 386L125 422Q146 390 169 359T211 302Q233 272 254 245L251 218Q223 191 194 161Q169 135 139 104T79 42L21 77Z" />
</font>
</defs>
</svg>
