<?xml version="1.0" standalone="no"?>
<!DOCTYPE svg PUBLIC "-//W3C//DTD SVG 1.1//EN" "http://www.w3.org/Graphics/SVG/1.1/DTD/svg11.dtd">
<svg xmlns="http://www.w3.org/2000/svg">
<defs >
<font id="AlegreyaSans" horiz-adv-x="497" ><font-face
    font-family="Alegreya Sans"
    units-per-em="1000"
    panose-1="0 0 8 0 0 0 0 0 0 0"
    ascent="900"
    descent="-300"
    alphabetic="0" />
<glyph unicode=" " glyph-name="space" horiz-adv-x="151" />
<glyph unicode="!" glyph-name="exclam" horiz-adv-x="264" d="M173 237L97 227L84 240L76 644L88 659L193 666L209 650L173 237ZM155 135T172 117T190 67Q190 33 171 13T119 -7Q86 -7 69 11T51 62Q51 95 70 115T124 135Q155 135 172 117Z" />
<glyph unicode="&quot;" glyph-name="quotedbl" horiz-adv-x="354" d="M130 413L68 404L57 413L55 635L158 642L165 633L130 413ZM280 413L217 404L207 413L205 635L307 642L315 633L280 413Z" />
<glyph unicode="#" glyph-name="numbersign" horiz-adv-x="549" d="M398 252H488L496 243L489 175H383L355 32H278L271 41L297 175H197L169 32H92L86 41L112 175H28L20 184L26 252H127L147 356H61L53 365L59 433H162L189 573H263L272 563L247 433H348L375 573H449L458
563L433 433H520L529 424L522 356H418L398 252ZM232 356L212 252H312L333 356H232Z" />
<glyph unicode="$" glyph-name="dollar" horiz-adv-x="450" d="M402 98T364 54T253 -4L245 -136H168L157 -125L165 -7Q98 -2 38 22L55 140L68 149Q101 119 142 101T215 83Q243 83 260 97T278 132Q278 154 258 167T194 198Q149 217 121 233T72 279T51 351Q51 409
90 451T199 507L207 645H283L295 633L287 510Q341 506 390 487L371 375L353 370Q288 418 236 418Q208 418 192 405T176 372Q176 351 196 338T259 306Q304 287 332 271T381 227T402 155Q402 98 364 54Z" />
<glyph unicode="%" glyph-name="percent" horiz-adv-x="854" d="M674 634L208 -92L151 -58L145 -44L612 686L666 653L674 634ZM267 650T305 605T343 475Q343 383 302 335T181 286Q108 286 70 331T31 461Q31 553 73 601T195 650Q267 650 305 605ZM149 562T132 540T115
468Q115 367 187 367Q260 367 260 463Q260 514 242 538T186 562Q149 562 132 540ZM746 358T784 313T822 183Q822 91 781 43T660 -6Q587 -6 549 39T510 169Q510 261 552 309T674 358Q746 358 784 313ZM628 270T611 248T594 176Q594 75 666 75Q739 75 739 171Q739
222 721 246T665 270Q628 270 611 248Z" />
<glyph unicode="&amp;" glyph-name="ampersand" horiz-adv-x="711" d="M557 337Q569 290 569 247Q569 183 545 132L676 14V6Q644 -30 604 -53H595L481 50Q405 -9 283 -9Q173 -9 108 39T42 172Q42 282 156 337V344Q90 413 90 488Q90 563 144 606T300 650Q388 650
463 620L433 523H416Q355 558 296 558Q252 558 229 538T206 481Q206 456 218 435T262 387L472 197Q482 226 482 263Q482 307 465 346H404L398 354L407 439H696L704 430L695 346H560L557 337ZM365 83T410 114L212 293Q156 254 156 194Q156 141 193 112T296 83Q365
83 410 114Z" />
<glyph unicode="&apos;" glyph-name="quotesingle" horiz-adv-x="205" d="M130 413L68 404L57 413L55 635L158 642L165 633L130 413Z" />
<glyph unicode="(" glyph-name="parenleft" horiz-adv-x="295" d="M291 609Q231 555 204 471T177 254Q177 128 204 48T291 -88V-99L243 -139H232Q147 -77 109 15T70 253Q71 406 109 502T232 661H243L291 620V609Z" />
<glyph unicode=")" glyph-name="parenright" horiz-adv-x="295" d="M3 -88Q63 -34 90 50T117 267Q117 393 90 473T3 609V620L51 660H62Q147 598 185 506T224 268Q223 115 185 19T62 -140H51L3 -99V-88Z" />
<glyph unicode="*" glyph-name="asterisk" horiz-adv-x="383" d="M213 611L171 606L164 613L160 729Q197 742 238 742L242 734L213 611ZM144 558L134 554L28 586Q27 621 38 664L48 667L150 600L144 558ZM354 608T369 570L363 564L243 554L224 592L228 601L333
641Q354 608 369 570ZM306 443Q289 418 251 387L242 389L197 508L227 536L238 535L306 443ZM179 505L119 409Q95 416 47 444L48 453L140 535L178 516L179 505Z" />
<glyph unicode="+" glyph-name="plus" horiz-adv-x="480" d="M286 305H448L457 296L450 215H286V50L205 44L195 52V215H32L23 224L30 305H195V471L276 478L286 468V305Z" />
<glyph unicode="," glyph-name="comma" horiz-adv-x="229" d="M188 96T188 46Q188 -41 67 -127L24 -89L23 -79Q78 -33 78 19Q78 53 46 79L47 90Q93 118 143 132Q188 96 188 46Z" />
<glyph unicode="-" glyph-name="hyphen" horiz-adv-x="304" d="M276 226L38 189L27 200V283L265 319L276 308V226Z" />
<glyph unicode="." glyph-name="period" horiz-adv-x="229" d="M148 135T165 117T183 67Q183 33 164 13T112 -7Q79 -7 62 11T44 62Q44 95 63 115T117 135Q148 135 165 117Z" />
<glyph unicode="/" glyph-name="slash" horiz-adv-x="284" d="M99 -115H7L-1 -104L205 680H295L306 668L99 -115Z" />
<glyph unicode="0" glyph-name="zero" horiz-adv-x="521" d="M372 513T427 447T483 260Q483 132 423 62T253 -9Q151 -9 95 57T39 242Q39 371 99 442T270 513Q372 513 427 447ZM200 390T171 357T142 251Q142 178 171 143T261 108Q380 108 380 245Q380 390 260 390Q200
390 171 357Z" />
<glyph unicode="1" glyph-name="one" horiz-adv-x="360" d="M253 208L260 0H125L131 194V360L18 330L8 337V444L242 511L261 497L253 208Z" />
<glyph unicode="2" glyph-name="two" horiz-adv-x="471" d="M311 511T355 479T399 389Q399 309 287 189L212 106L214 102H349L439 110L447 101L431 -6L310 0H83L46 -2L39 3V84L174 217Q222 266 245 298T268 354Q268 374 253 386T211 398Q145 398 79 339H64L42
442Q145 511 242 511Q311 511 355 479Z" />
<glyph unicode="3" glyph-name="three" horiz-adv-x="431" d="M282 513T330 475T378 376Q378 335 355 297T283 231V226Q392 195 392 93Q392 38 361 -5T272 -71T141 -95Q88 -95 33 -85L26 18L35 27Q94 6 146 6Q202 6 233 28T265 90Q265 158 174 161H104L97 170L101
261L145 263Q183 264 213 287T243 347Q243 374 225 389T175 404Q123 404 57 357H43L23 454Q109 513 204 513Q282 513 330 475Z" />
<glyph unicode="4" glyph-name="four" horiz-adv-x="503" d="M387 55L392 -80L385 -89L281 -96L274 -88L277 56H117L30 53L21 65V149L266 506H388L385 158H468L476 146L470 53L387 55ZM279 158V355H270L135 158H279Z" />
<glyph unicode="5" glyph-name="five" horiz-adv-x="432" d="M386 400L376 390L285 400H169L166 288L228 275Q315 257 353 219T392 116Q392 53 360 5T270 -70T136 -97Q84 -97 26 -85L19 19L28 28Q94 5 147 5Q202 5 234 30T266 98Q266 132 243 151T168 180L72 197L63
208L68 493L84 508L142 506H288L392 511L400 503L386 400Z" />
<glyph unicode="6" glyph-name="six" horiz-adv-x="483" d="M361 361T405 312T450 187Q450 133 426 88T353 17T238 -10Q139 -10 86 49T33 215Q33 337 109 436T324 596H331L422 537V524Q317 484 259 442T175 342L183 333Q228 361 284 361Q361 361 405 312ZM285
77T307 101T330 171Q330 268 245 268Q201 268 154 238V217Q154 146 174 112T244 77Q285 77 307 101Z" />
<glyph unicode="7" glyph-name="seven" horiz-adv-x="432" d="M357 506L406 508V410L241 50L185 -100L78 -70L70 -49L279 395H114L23 386L15 397L24 509L136 506H357Z" />
<glyph unicode="8" glyph-name="eight" horiz-adv-x="493" d="M339 595T384 556T430 449Q430 369 342 312V306Q391 282 419 251T447 166Q447 85 389 38T233 -9Q142 -9 92 33T41 142Q41 235 151 285V291Q60 341 60 430Q60 506 114 550T258 595Q339 595 384 556ZM211
503T190 485T169 434Q169 401 192 382T258 345Q290 363 308 383T326 434Q326 466 306 484T249 503Q211 503 190 485ZM195 235T174 215T152 159Q152 123 176 102T244 80Q288 80 312 101T337 156Q337 190 312 209T235 250Q195 235 174 215Z" />
<glyph unicode="9" glyph-name="nine" horiz-adv-x="483" d="M122 145T78 194T33 319Q33 373 57 418T130 489T245 516Q344 516 397 457T450 291Q450 169 374 70T159 -90H152L61 -31V-18Q166 22 224 64T308 164L300 173Q255 145 199 145Q122 145 78 194ZM198 429T176
405T153 335Q153 238 238 238Q282 238 329 268V289Q329 360 309 394T239 429Q198 429 176 405Z" />
<glyph unicode=":" glyph-name="colon" horiz-adv-x="229" d="M400 135T417 117T435 67Q435 33 416 13T364 -7Q331 -7 314 11T296 62Q296 95 315 115T369 135Q400 135 417 117ZM144 397T161 379T179 329Q179 295 160 275T108 255Q75 255 58 273T40 324Q40 357
59 377T113 397Q144 397 161 379Z" />
<glyph unicode=";" glyph-name="semicolon" horiz-adv-x="229" d="M440 96T440 46Q440 -41 319 -127L276 -89L275 -79Q330 -33 330 19Q330 53 298 79L299 90Q345 118 395 132Q440 96 440 46ZM144 397T161 379T179 329Q179 295 160 275T108 255Q75 255 58 273T40
324Q40 357 59 377T113 397Q144 397 161 379Z" />
<glyph unicode="&lt;" glyph-name="less" horiz-adv-x="480" d="M34 314V206L409 63L421 72L440 146L128 260V267L439 385L445 395L416 471L43 326L34 314Z" />
<glyph unicode="=" glyph-name="equal" horiz-adv-x="480" d="M450 308H32L23 317L30 398H448L457 389L450 308ZM450 377H32L23 386L30 467H448L457 458L450 377Z" />
<glyph unicode="&gt;" glyph-name="greater" horiz-adv-x="480" d="M446 314V206L71 63L59 72L40 146L352 260V267L41 385L35 395L64 471L437 326L446 314Z" />
<glyph unicode="?" glyph-name="question" horiz-adv-x="340" d="M216 661T287 620T358 507Q358 421 267 369L195 326L193 321L199 236L106 224L97 233L87 353L92 363L182 409Q238 439 238 486Q238 526 195 547T56 575L47 588L71 662L84 669Q216 661 287 620ZM189
135T206 117T224 67Q224 33 205 13T153 -7Q120 -7 103 11T85 62Q85 95 104 115T158 135Q189 135 206 117Z" />
<glyph unicode="@" glyph-name="at" horiz-adv-x="844" d="M823 164T725 83T446 -1L468 156H456Q396 54 337 -7H319Q265 13 242 52T218 153Q218 219 244 283T322 395T451 462H457L534 442L606 464L616 458L569 112L568 91Q647 103 691 160T736 307Q736 382 702
438T605 523T457 551Q356 549 279 504T160 379T117 201Q117 96 164 21T297 -95T497 -135L502 -148L466 -210Q334 -209 236 -163T83 -27T28 185Q28 313 83 415T240 576T473 635Q578 635 657 596T779 483T823 312Q823 164 725 83ZM363 110T384 135T434 211T493 332L495
347V351L431 371Q382 371 354 322T326 195Q326 110 352 110Q363 110 384 135Z" />
<glyph unicode="A" glyph-name="A" horiz-adv-x="600" d="M446 0L430 84L413 144L287 147L176 144L159 91L142 0H8L226 644H387L584 0H446ZM308 517H299L211 249L297 247L384 249L308 517Z" />
<glyph unicode="B" glyph-name="B" horiz-adv-x="579" d="M547 304T547 182Q547 -5 254 -5Q168 -5 78 0L85 192L78 644L307 645Q406 645 461 604T516 484Q516 432 491 393T418 334Q547 304 547 182ZM377 510T351 528T260 547H211L208 372L302 369Q377 389 377
466Q377 510 351 528ZM340 92T374 117T409 189Q409 260 317 277L206 275L205 204L208 96Q243 92 277 92Q340 92 374 117Z" />
<glyph unicode="C" glyph-name="C" horiz-adv-x="517" d="M430 652T505 613L481 500L470 495Q407 540 330 540Q171 540 171 331Q171 105 334 105Q414 105 482 148L494 141L483 26Q407 -9 323 -9Q179 -9 104 75T28 316Q28 476 108 564T336 652Q430 652 505 613Z" />
<glyph unicode="D" glyph-name="D" horiz-adv-x="655" d="M477 648T552 570T627 346Q627 175 543 84T303 -7Q193 -7 78 0L85 192L78 644L337 648Q477 648 552 570ZM486 98T486 315Q486 433 448 486T327 540Q274 540 214 535L208 204L211 105Q281 98 327 98Q486
98 486 315Z" />
<glyph unicode="E" glyph-name="E" horiz-adv-x="509" d="M491 101L482 0H78L85 192L78 644H486L494 633L484 532L330 537L214 536L211 381L322 379L427 382L435 372L426 271L312 274L209 273L208 204L211 107L324 106L483 112L491 101Z" />
<glyph unicode="F" glyph-name="F" horiz-adv-x="456" d="M211 362L301 361L410 364L419 354L409 253L290 256L209 255L208 204L214 0H78L85 192L78 644H461L469 633L459 531L306 537L214 536L211 362Z" />
<glyph unicode="G" glyph-name="G" horiz-adv-x="598" d="M469 652T553 613L524 491L511 489Q462 517 424 529T341 542Q252 542 211 489T170 315Q170 235 187 188T242 120T340 98Q378 98 425 112L427 167L425 266L550 276L547 188L550 31Q430 -9 329 -9Q179 -9
104 73T28 308Q28 475 115 563T364 652Q469 652 553 613Z" />
<glyph unicode="H" glyph-name="H" horiz-adv-x="696" d="M616 0H479L487 192L486 267L340 269L209 266L208 204L214 0H78L85 192L78 644H216L211 379L349 376L484 379L479 644H618L610 204L616 0Z" />
<glyph unicode="I" glyph-name="I" horiz-adv-x="295" d="M214 0H78L85 192L78 644H216L208 204L214 0Z" />
<glyph unicode="J" glyph-name="J" horiz-adv-x="335" d="M253 121Q253 64 234 24T173 -47T56 -106L15 -34V-22Q77 10 102 41T128 123V199L122 544L16 541L6 551L13 644H258L251 212L253 121Z" />
<glyph unicode="K" glyph-name="K" horiz-adv-x="584" d="M461 180T593 28L591 13Q529 -2 458 -10L442 -2Q298 193 210 331L208 204L213 0H77L85 192L77 644H215L210 345L390 582L427 644H574L346 340Q461 180 593 28Z" />
<glyph unicode="L" glyph-name="L" horiz-adv-x="433" d="M422 0H74L81 192L74 644H212L204 204L207 112H423L431 101L422 0Z" />
<glyph unicode="M" glyph-name="M" horiz-adv-x="797" d="M629 0L619 195L596 443H586L442 68H337L206 443H197L172 208L158 0H44L109 644H265L291 549L393 244H402L509 549L538 644H691L749 0H629Z" />
<glyph unicode="N" glyph-name="N" horiz-adv-x="695" d="M615 0H469L207 436H198L197 222L202 0H78L85 190L79 644H225L487 208H496L492 638L618 646L610 199L615 0Z" />
<glyph unicode="O" glyph-name="O" horiz-adv-x="643" d="M469 653T542 571T616 336Q616 170 537 80T311 -10Q175 -10 102 74T28 314Q28 477 107 565T333 653Q469 653 542 571ZM241 543T205 494T169 332Q169 204 204 150T322 95Q402 95 438 145T474 309Q474 436
439 489T321 543Q241 543 205 494Z" />
<glyph unicode="P" glyph-name="P" horiz-adv-x="553" d="M426 645T480 594T535 448Q535 375 503 321T412 236T272 206H208V204L214 0H78L85 192L78 644L325 645Q426 645 480 594ZM394 331T394 436Q394 490 367 516T282 545L214 541L210 309L302 305Q394 331 394 436Z" />
<glyph unicode="Q" glyph-name="Q" horiz-adv-x="649" d="M709 -163T673 -197L662 -201Q476 -132 333 -10H312Q176 -10 102 74T28 314Q28 477 107 565T333 653Q469 653 542 571T616 334Q616 218 574 137T454 19Q585 -61 731 -96L736 -110Q709 -163 673 -197ZM169
203T205 149T323 95Q401 95 437 146T474 311Q474 436 438 489T320 543Q240 543 205 493T169 329Q169 203 205 149Z" />
<glyph unicode="R" glyph-name="R" horiz-adv-x="590" d="M494 132T571 32L569 17Q504 -6 436 -10L422 1Q350 125 305 217H208V204L214 0H78L85 192L78 644L325 645Q426 645 481 596T536 454Q536 392 505 341T416 256Q494 132 571 32ZM309 318Q394 347 394 441Q394
492 367 517T282 545L214 541L210 322L309 318Z" />
<glyph unicode="S" glyph-name="S" horiz-adv-x="498" d="M367 652T448 619L426 502L406 494Q372 518 336 532T269 546Q229 546 205 525T181 475Q181 446 207 426T291 379Q346 354 380 333T439 276T464 190Q464 135 434 90T349 18T222 -9Q127 -9 31 32L50 158L65
166Q105 131 152 113T237 94Q281 94 305 115T330 167Q330 199 304 219T218 267Q164 291 130 312T72 368T48 453Q48 509 78 554T162 626T285 652Q367 652 448 619Z" />
<glyph unicode="T" glyph-name="T" horiz-adv-x="503" d="M481 532L360 538H320L315 204L321 0H185L192 192L187 538H147L24 532L15 543L24 644H481L489 633L481 532Z" />
<glyph unicode="U" glyph-name="U" horiz-adv-x="638" d="M573 232Q574 117 506 54T311 -9Q189 -9 125 52T64 227L65 320L62 644H198L191 245Q190 102 319 102Q449 102 448 238L441 644H579L574 317L573 232Z" />
<glyph unicode="V" glyph-name="V" horiz-adv-x="587" d="M207 0L10 644H148L164 559L286 126H295L435 552L452 644H586L369 0H207Z" />
<glyph unicode="W" glyph-name="W" horiz-adv-x="903" d="M544 0L448 308H439L342 0H199L19 644H152L162 565L276 140H285L394 487L348 644H486L501 551L617 140H626L756 556L772 644H898L686 0H544Z" />
<glyph unicode="X" glyph-name="X" horiz-adv-x="610" d="M598 0H435L405 64L298 231L182 57L153 0H13L219 318L15 644H178L208 579L309 422L413 584L441 644H584L390 337L598 0Z" />
<glyph unicode="Y" glyph-name="Y" horiz-adv-x="558" d="M339 0H203L211 179L209 217L4 644H148L162 599L271 354H281L402 595L421 644H561L335 219L333 179L339 0Z" />
<glyph unicode="Z" glyph-name="Z" horiz-adv-x="547" d="M190 103H406L515 112L520 104L509 -3L364 0H107L30 -4V93L353 540H149L40 531L34 538L44 645L448 644L510 645V546L190 103Z" />
<glyph unicode="[" glyph-name="bracketleft" horiz-adv-x="295" d="M295 581L188 567V-46L295 -59V-120L289 -126L80 -116L87 261L80 638L289 648L295 641V581Z" />
<glyph unicode="\" glyph-name="backslash" horiz-adv-x="284" d="M196 -115H288L296 -104L90 680H0L-11 668L196 -115Z" />
<glyph unicode="]" glyph-name="bracketright" horiz-adv-x="295" d="M-1 -60L106 -46V567L-1 580V641L5 647L214 637L207 260L214 -117L5 -127L-1 -120V-60Z" />
<glyph unicode="^" glyph-name="asciicircum" horiz-adv-x="441" d="M416 135L341 117L228 403H221L103 117L92 112L17 140L161 489L174 496H281L425 146L416 135Z" />
<glyph unicode="_" glyph-name="underscore" horiz-adv-x="444" d="M452 -173H-6L-15 -163L-8 -89H451L459 -98L452 -173Z" />
<glyph unicode="`" glyph-name="grave" horiz-adv-x="389" d="M73 651L75 638Q97 624 108 618Q233 541 270 520L283 521L315 571Q199 664 134 724L121 723L73 651Z" />
<glyph unicode="a" glyph-name="a" horiz-adv-x="481" d="M321 474T364 440T408 343Q408 325 402 229Q397 114 397 121Q397 104 402 98T420 91Q430 91 446 95L456 87L444 17Q412 -4 371 -8Q308 -2 294 65H287Q237 12 184 -9Q112 -8 71 29T30 130Q30 227 133 247L286
276V317Q286 382 222 382Q162 382 79 324L69 330L54 418Q142 474 244 474Q321 474 364 440ZM148 179T148 144Q148 118 162 104T201 89Q240 89 283 135L285 209L179 186Q148 179 148 144Z" />
<glyph unicode="b" glyph-name="b" horiz-adv-x="522" d="M399 471T446 412T493 246Q493 123 432 57T263 -10Q212 -10 151 13L80 -12L64 1L72 191L65 692L198 702L194 399H199Q254 450 311 471Q399 471 446 412ZM368 77T368 223Q368 364 279 364Q238 364 193 322L191
208L193 95Q230 77 262 77Q368 77 368 223Z" />
<glyph unicode="c" glyph-name="c" horiz-adv-x="385" d="M322 474T375 449L353 343L342 338Q291 366 251 366Q205 366 180 333T155 239Q155 169 182 132T259 95Q304 95 359 120L369 112L356 9Q296 -10 233 -10Q137 -10 83 52T29 227Q29 343 88 408T252 474Q322
474 375 449Z" />
<glyph unicode="d" glyph-name="d" horiz-adv-x="525" d="M450 121Q451 104 455 98T472 91Q482 91 499 95L508 87L496 17Q464 -4 423 -8Q359 -2 342 62H334Q285 17 234 -7Q135 -7 82 55T28 229Q28 347 90 410T262 473Q291 473 326 467L324 692L456 702L448 205L450
121ZM152 383T152 253Q152 97 247 97Q290 97 328 138L330 193L327 365Q288 383 253 383Q152 383 152 253Z" />
<glyph unicode="e" glyph-name="e" horiz-adv-x="471" d="M152 215Q160 89 276 89Q341 89 410 125L421 118L403 20Q333 -10 263 -10Q152 -10 91 54T29 230Q29 343 91 408T259 473Q346 473 393 425T440 290Q440 263 436 235L417 216L152 215ZM325 386T254 386Q215
386 190 361T155 288L323 293L325 305Q325 386 254 386Z" />
<glyph unicode="f" glyph-name="f" horiz-adv-x="329" d="M344 704T390 695L381 596L372 590Q325 610 290 610Q228 610 227 539L226 461H339L343 454L337 381H224L221 205L228 0H95L103 193L101 381H31L26 388L33 461H100L99 516Q99 606 152 655T303 704Q344 704
390 695Z" />
<glyph unicode="g" glyph-name="g" horiz-adv-x="500" d="M481 395T431 387L429 383Q444 353 444 316Q444 241 390 197T242 152Q214 152 184 157Q169 142 169 131Q169 113 193 106T269 92Q328 85 367 75T435 40T464 -31Q464 -78 435 -115T353 -174T235 -195Q144
-195 95 -158T46 -60Q77 -17 129 15V20Q57 46 57 111Q84 144 125 172V177Q52 217 52 306Q52 384 106 428T253 472Q307 472 351 454Q423 467 498 494L508 485V402Q481 395 431 387ZM329 232T329 314Q329 390 251 390Q167 390 167 313Q167 232 246 232Q329 232 329
314ZM352 -28T323 -18T233 0Q211 2 202 4Q154 -29 154 -59Q154 -85 178 -101T248 -117Q295 -117 323 -101T352 -55Q352 -28 323 -18Z" />
<glyph unicode="h" glyph-name="h" horiz-adv-x="531" d="M352 325T336 344T288 364Q243 364 193 322L191 205L198 0H65L72 193L66 692L199 702L194 399H200Q255 449 320 471Q396 471 436 437T474 337L471 204L477 0H343L351 290Q352 325 336 344Z" />
<glyph unicode="i" glyph-name="i" horiz-adv-x="254" d="M163 693T180 675T198 625Q198 591 179 571T127 551Q94 551 77 569T59 620Q59 653 78 673T132 693Q163 693 180 675ZM193 0H60L67 192L61 456L194 467L186 205L193 0Z" />
<glyph unicode="j" glyph-name="j" horiz-adv-x="285" d="M174 693T191 675T209 625Q209 591 190 571T138 551Q105 551 88 569T70 620Q70 653 89 673T143 693Q174 693 191 675ZM212 205L218 27Q218 -52 180 -104T55 -195L8 -136V-124Q54 -99 73 -65T92 23L93 192L89
381H9L1 389L7 461H92L216 468L220 465L212 205Z" />
<glyph unicode="k" glyph-name="k" horiz-adv-x="495" d="M198 0H65L72 193L66 692L199 702L191 205L198 0ZM376 176T488 22V8Q454 1 364 -10L350 -4Q257 128 198 243V252L314 417L338 465H478L326 255Q376 176 488 22Z" />
<glyph unicode="l" glyph-name="l" horiz-adv-x="263" d="M198 0H65L72 193L66 692L199 702L191 205L198 0Z" />
<glyph unicode="m" glyph-name="m" horiz-adv-x="804" d="M626 364T562 364Q517 364 467 323L465 204L470 0H338L346 290Q346 364 282 364Q237 364 186 322V205L192 0H60L67 192L61 456L187 467V399H193Q250 450 314 471Q427 471 458 396H463Q522 449 593 471Q669
471 708 437T747 337L744 204L749 0H617L624 290Q626 364 562 364Z" />
<glyph unicode="n" glyph-name="n" horiz-adv-x="527" d="M346 290Q346 364 283 364Q238 364 187 321V205L193 0H60L67 192L61 456L188 467V399H194Q251 450 315 471Q391 471 430 437T469 337L466 204L471 0H338L346 290Z" />
<glyph unicode="o" glyph-name="o" horiz-adv-x="494" d="M356 474T410 414T464 241Q464 119 406 55T239 -10Q137 -10 83 50T29 223Q29 345 87 409T254 474Q356 474 410 414ZM197 384T176 352T154 249Q154 157 176 118T248 79Q296 79 317 110T339 214Q339 305
317 344T245 384Q197 384 176 352Z" />
<glyph unicode="p" glyph-name="p" horiz-adv-x="515" d="M393 471T440 412T487 245Q487 122 426 56T255 -10Q223 -10 188 -4L191 -185H60L66 192L60 456L187 467L186 399H193Q245 448 305 471Q393 471 440 412ZM362 77T362 223Q362 364 273 364Q232 364 186 321L185
205L187 92Q223 77 256 77Q362 77 362 223Z" />
<glyph unicode="q" glyph-name="q" horiz-adv-x="515" d="M456 467L448 205L455 -185H323L329 25V50H321Q280 15 231 -7Q134 -7 81 55T28 227Q28 346 89 409T256 473Q310 473 376 451L445 473L456 467ZM152 383T152 248Q152 174 176 136T245 97Q288 97 329 138L330
191L327 362Q287 383 252 383Q152 383 152 248Z" />
<glyph unicode="r" glyph-name="r" horiz-adv-x="346" d="M325 466T341 464V341L328 336Q310 343 291 343Q233 343 186 269V205L193 0H60L67 192L61 456L188 467L187 376H194Q243 466 317 466Q325 466 341 464Z" />
<glyph unicode="s" glyph-name="s" horiz-adv-x="384" d="M285 473T345 450L327 352L311 347Q251 386 202 386Q178 386 164 374T150 343Q150 322 168 309T227 280Q267 264 293 249T337 208T356 142Q356 102 336 68T273 12T170 -10Q98 -10 21 20L36 124L49 132Q80
106 118 91T185 75Q212 75 227 88T242 121Q242 142 224 155T165 184Q124 202 98 216T54 258T35 325Q35 390 84 431T217 473Q285 473 345 450Z" />
<glyph unicode="t" glyph-name="t" horiz-adv-x="338" d="M281 98T316 115L327 105L314 26Q263 0 210 -6Q75 8 75 126L80 209L79 381H17L12 388L19 461H78V538L199 577L208 569L205 461H324L328 454L322 381H203L197 157Q197 125 209 112T249 98Q281 98 316 115Z" />
<glyph unicode="u" glyph-name="u" horiz-adv-x="522" d="M447 104T452 98T470 91Q480 91 496 95L506 87L494 17Q462 -4 421 -8Q358 -2 341 67H331Q274 12 214 -6Q139 -6 99 28T59 128L62 246L57 456L186 467L182 172Q182 101 242 101Q284 101 329 140V456L455
467L447 121Q447 104 452 98Z" />
<glyph unicode="v" glyph-name="v" horiz-adv-x="444" d="M220 125H227L311 384L328 465H444L288 0H145L13 462L137 468L150 391L220 125Z" />
<glyph unicode="w" glyph-name="w" horiz-adv-x="698" d="M202 134H210L280 388L296 465H425L435 395L494 135H502L570 388L586 465H698L553 0H428L357 299H348L265 0H134L13 462L134 468L145 395L202 134Z" />
<glyph unicode="x" glyph-name="x" horiz-adv-x="461" d="M240 309L303 417L328 464H445L311 236L451 4L311 -6L288 53L222 160L153 47L131 0H14L149 233L13 461L155 468L176 413L240 309Z" />
<glyph unicode="y" glyph-name="y" horiz-adv-x="447" d="M225 135H233L314 382L331 465H446L295 32Q262 -62 207 -112T49 -192L39 -191Q3 -158 -21 -111L-16 -97Q46 -86 90 -63T169 0L-1 462L127 468L142 394L225 135Z" />
<glyph unicode="z" glyph-name="z" horiz-adv-x="424" d="M340 465L391 466L392 387L167 85H308L393 93L400 84L391 -2L275 0H91L27 -3V75L254 379H120L37 372L29 381L39 467L138 465H340Z" />
<glyph unicode="{" glyph-name="braceleft" horiz-adv-x="295" d="M248 657T284 648L290 638L279 570Q257 575 243 575Q189 575 189 514Q189 493 201 443Q212 390 212 374Q212 303 144 271V266Q177 251 194 225T212 165Q212 142 200 94Q189 39 189 24Q189 -38
243 -38Q257 -38 279 -33L290 -100L284 -110Q254 -119 220 -119Q154 -119 119 -89T84 -1Q84 34 96 92Q105 137 105 158Q105 219 36 237V300Q105 318 105 379Q105 401 96 446Q84 504 84 539Q84 596 119 626T220 657Q248 657 284 648Z" />
<glyph unicode="|" glyph-name="bar" horiz-adv-x="307" d="M203 291V-252L113 -259L102 -247L103 281L104 796L196 803L206 794L203 291Z" />
<glyph unicode="}" glyph-name="braceright" horiz-adv-x="295" d="M46 -120T10 -111L4 -101L15 -33Q37 -38 51 -38Q105 -38 105 23Q105 44 93 94Q82 147 82 163Q82 234 150 266V271Q117 286 100 312T82 372Q82 395 94 443Q105 498 105 513Q105 575 51 575Q37
575 15 570L4 637L10 647Q40 656 74 656Q140 656 175 626T210 538Q210 503 198 445Q189 400 189 379Q189 318 258 300V237Q189 219 189 158Q189 136 198 91Q210 33 210 -2Q210 -59 175 -89T74 -120Q46 -120 10 -111Z" />
<glyph unicode="~" glyph-name="asciitilde" horiz-adv-x="480" d="M135 236T122 224T78 180H65L30 224V236L112 329L124 334Q146 331 227 307Q317 281 332 281Q343 281 355 290T390 322L404 337H416L451 294V282L369 189L357 184Q328 188 249 212Q165 236 150
236Q135 236 122 224Z" />
<glyph unicode="&#xa0;" glyph-name="nbspace" horiz-adv-x="151" />
<glyph unicode="&#xa1;" glyph-name="exclamdown" horiz-adv-x="264" d="M97 231L173 241L186 228L194 -176L182 -191L77 -198L61 -182L97 231ZM115 333T98 351T80 401Q80 435 99 455T151 475Q184 475 201 457T219 406Q219 373 200 353T146 333Q115 333 98 351Z" />
<glyph unicode="&#xa2;" glyph-name="cent" horiz-adv-x="383" d="M304 134T359 159L369 151L356 48Q316 36 273 31L263 -124H177L167 -113L176 36Q106 53 68 113T29 266Q29 368 75 431T206 509L215 657H298L312 645L303 509Q344 503 375 488L353 382L342 377Q291
405 251 405Q205 405 180 372T155 278Q155 208 182 171T259 134Q304 134 359 159Z" />
<glyph unicode="&#xa3;" glyph-name="sterling" horiz-adv-x="446" d="M411 -3L285 0H23L18 7L24 79Q97 97 97 179L96 272H23L18 279L25 343H96L95 413Q94 501 147 548T297 595Q352 595 412 579L404 484L396 478Q335 510 287 510Q210 510 210 433L209 343H337L341
337L336 272H209L208 187Q208 153 199 132T170 94V90H314L415 97L420 90L411 -3Z" />
<glyph unicode="&#xa4;" glyph-name="currency" horiz-adv-x="435" d="M426 489L357 427Q379 391 379 349Q379 314 359 277L429 218L430 206L373 145L361 146L300 215Q263 191 222 191Q183 191 149 212L90 143L78 142L17 199L18 212L86 272Q64 307 64 349Q64 387
85 423L16 482L14 494L71 554H83L146 485Q179 506 222 506Q260 506 293 487L353 556L366 558L426 501V489ZM184 435T160 411T136 349Q136 311 160 288T222 264Q260 264 284 288T308 349Q308 387 284 411T222 435Q184 435 160 411Z" />
<glyph unicode="&#xa5;" glyph-name="yen" horiz-adv-x="526" d="M320 172H500L506 166L501 111H314L318 0H204L209 111H33L28 118L32 172H203L164 247H33L28 255L32 308H132L30 504H150L162 468L261 282H269L377 464L394 504H511L398 308H500L506 303L501 247H363L320
172Z" />
<glyph unicode="&#xa6;" glyph-name="brokenbar" horiz-adv-x="307" d="M203 377L112 366L103 374V796L196 803L206 794L203 377ZM203 -252L113 -259L102 -247L103 150L192 160L203 148V-252Z" />
<glyph unicode="&#xa7;" glyph-name="section" horiz-adv-x="431" d="M365 110T365 54Q365 13 341 -22T273 -77T176 -98Q143 -98 101 -90T25 -69L42 36L54 44Q87 16 123 1T190 -15Q219 -15 235 -1T252 31Q252 51 233 65T171 101Q126 124 99 142T51 190T30 259Q30
302 55 340T123 402Q72 443 72 499Q72 540 96 575T164 631T260 652Q327 652 385 629L369 528L353 523Q288 566 242 566Q216 566 200 552T184 520Q184 501 202 488T265 451Q309 429 337 411T386 363T407 294Q407 251 382 213T313 152Q365 110 365 54ZM142 263T166
243T242 197Q294 222 294 262Q294 291 271 310T194 357Q142 330 142 290Q142 263 166 243Z" />
<glyph unicode="&#xa8;" glyph-name="dieresis" horiz-adv-x="389" d="M140 637T156 621T172 574Q172 543 155 525T107 507Q76 507 60 523T44 570Q44 600 62 618T111 637Q140 637 156 621ZM298 637T314 621T330 574Q330 543 313 525T265 507Q234 507 218 523T202
570Q202 600 220 618T269 637Q298 637 314 621Z" />
<glyph unicode="&#xa9;" glyph-name="copyright" horiz-adv-x="687" d="M432 598T500 560T605 453T643 293Q643 202 606 133T500 26T343 -12Q254 -12 186 26T81 133T43 293Q43 384 80 453T186 560T343 598Q432 598 500 560ZM268 552T211 520T122 429T90 293Q90
216 121 158T210 67T343 34Q418 34 475 66T564 157T596 293Q596 370 565 428T476 519T343 552Q268 552 211 520ZM408 465T454 448L438 378L432 374Q399 392 362 392Q323 392 304 371T285 302Q285 200 366 200Q403 200 438 215L446 211L439 141Q403 127 359 127Q276
127 234 169T192 293Q192 375 237 420T365 465Q408 465 454 448Z" />
<glyph unicode="&#xaa;" glyph-name="ordfeminine" horiz-adv-x="340" d="M232 652T262 628T293 560L290 483Q287 441 287 421Q287 399 300 399Q311 399 316 403L323 397L313 342Q290 325 263 325Q238 325 225 336T205 373H201Q171 337 129 324Q81 325 53 351T25
422Q25 491 98 503L197 519L198 540Q198 580 158 580Q121 580 62 546L55 549L44 616Q108 652 176 652Q232 652 262 628ZM118 456T118 431Q118 395 151 395Q174 395 196 419L197 471L143 461Q118 456 118 431Z" />
<glyph unicode="&#xab;" glyph-name="guillemotleft" horiz-adv-x="429" d="M18 237L154 415L217 382L219 369L115 228L219 88L217 75L154 41L18 215V237ZM203 237L339 415L402 382L404 369L300 228L404 88L402 75L339 41L203 215V237Z" />
<glyph unicode="&#xac;" glyph-name="logicalnot" horiz-adv-x="480" d="M432 50L351 44L341 52V215H31L22 224L29 305H426L432 297V50Z" />
<glyph unicode="&#xad;" glyph-name="softhyphen" horiz-adv-x="304" d="M276 226L38 189L27 200V283L265 319L276 308V226Z" />
<glyph unicode="&#xae;" glyph-name="registered" horiz-adv-x="446" d="M307 702T358 651T409 517Q409 432 358 381T223 330Q139 330 88 381T37 517Q37 600 88 651T223 702Q307 702 358 651ZM292 363T334 405T376 517Q376 585 334 627T224 669Q155 669 113 627T71
517Q71 447 113 405T224 363Q292 363 334 405ZM305 525T268 502Q286 474 317 436L316 431Q299 424 269 422L263 426Q243 458 228 488H197L199 425H151L152 482L151 620L236 621Q269 621 287 605T305 560Q305 525 268 502ZM229 524Q254 534 254 556Q254 584 219
585L199 584L198 526L229 524Z" />
<glyph unicode="&#xaf;" glyph-name="overscore" horiz-adv-x="389" d="M336 577H56L47 586L54 660H334L342 651L336 577Z" />
<glyph unicode="&#xb0;" glyph-name="degree" horiz-adv-x="293" d="M201 653T238 616T276 523Q276 469 239 432T147 394Q92 394 54 431T16 523Q16 578 54 615T147 653Q201 653 238 616ZM115 595T95 575T74 523Q74 493 94 473T146 452Q177 452 197 472T218 523Q218
554 198 574T146 595Q115 595 95 575Z" />
<glyph unicode="&#xb1;" glyph-name="plusminus" horiz-adv-x="480" d="M286 305H448L457 296L450 215H286V50L205 44L195 52V215H32L23 224L30 305H195V471L276 478L286 468V305ZM450 -116H32L23 -107L30 -26H448L457 -35L450 -116Z" />
<glyph unicode="&#xb2;" glyph-name="twosuperior" horiz-adv-x="361" d="M236 705T270 680T304 611Q304 582 285 548T223 462L172 398L174 396H265L332 400L337 393L326 311L232 315H65L39 314L33 317V379L127 481Q166 526 181 547T197 587Q197 601 187 610T157
620Q136 620 111 608T63 574H51L33 653Q110 705 184 705Q236 705 270 680Z" />
<glyph unicode="&#xb3;" glyph-name="threesuperior" horiz-adv-x="321" d="M208 706T242 681T277 613Q277 554 216 522V518Q288 497 288 428Q288 375 239 342T110 309Q71 309 34 317L27 391L35 398Q74 387 112 387Q185 387 185 431Q185 469 135 469H83L78 476L79
545L110 546Q134 547 151 560T169 593Q169 624 127 624Q96 624 49 599H38L22 669Q82 706 151 706Q208 706 242 681Z" />
<glyph unicode="&#xb4;" glyph-name="acute" horiz-adv-x="389" d="M316 651L314 638Q292 624 281 618Q156 541 119 520L106 521L74 571Q190 664 255 724L268 723L316 651Z" />
<glyph unicode="&#xb5;" glyph-name="mu" horiz-adv-x="522" d="M491 17Q457 -7 420 -7Q386 -7 366 9T334 62H326Q274 9 219 -6Q197 -6 182 -2V-185H57L61 192L57 456L182 467V172Q182 101 244 101Q284 101 329 140V456L455 467L447 125Q446 88 470 88Q479 88
495 95L505 88L491 17Z" />
<glyph unicode="&#xb6;" glyph-name="paragraph" horiz-adv-x="522" d="M495 541H428L423 197L424 136Q424 59 381 8T232 -85L196 -25V-12Q251 18 275 51T299 130V181L294 542H249Q209 536 188 507T167 427Q167 380 191 342T261 281L215 211Q124 232 75 289T25
432Q25 533 88 588T269 644H495L504 633L495 541Z" />
<glyph unicode="&#xb7;" glyph-name="middot" horiz-adv-x="229" d="M148 323T165 305T183 255Q183 221 164 201T112 181Q79 181 62 199T44 250Q44 283 63 303T117 323Q148 323 165 305Z" />
<glyph unicode="&#xb8;" glyph-name="cedilla" horiz-adv-x="389" d="M244 -67Q285 -89 285 -126Q285 -159 259 -180T191 -201Q146 -201 109 -173L118 -117L124 -114Q154 -144 183 -144Q207 -144 207 -123Q207 -112 190 -103L141 -75L164 26H228L210 -48L244 -67Z" />
<glyph unicode="&#xb9;" glyph-name="onesuperior" horiz-adv-x="276" d="M196 453L200 315H92L96 441V590L17 572L10 577V660L186 706L201 695L196 453Z" />
<glyph unicode="&#xba;" glyph-name="ordmasculine" horiz-adv-x="347" d="M250 652T287 612T324 493Q324 410 284 367T168 323Q97 323 60 363T23 482Q23 565 63 608T179 652Q250 652 287 612ZM145 581T133 561T121 493Q121 437 133 415T175 392Q204 392 216 412T228
481Q228 536 216 558T173 581Q145 581 133 561Z" />
<glyph unicode="&#xbb;" glyph-name="guillemotright" horiz-adv-x="426" d="M405 221L269 43L206 76L204 89L308 230L204 370L206 383L269 417L405 243V221ZM477 221L341 43L278 76L276 89L380 230L276 370L278 383L341 417L477 243V221Z" />
<glyph unicode="&#xbc;" glyph-name="onequarter" horiz-adv-x="747" d="M128 -92L71 -58L65 -44L533 686L587 653L594 634L128 -92ZM17 516L10 521V604L186 650L201 639L196 397L200 259H92L96 385V534L17 516ZM662 86L667 7L661 0L578 -4L572 1L574 87H473L407
84L400 93V158L565 386H663L660 165H714L720 156L715 84L662 86ZM576 165L575 273H569L492 165H576Z" />
<glyph unicode="&#xbd;" glyph-name="onehalf" horiz-adv-x="773" d="M594 634L128 -92L71 -58L65 -44L533 686L587 653L594 634ZM196 397L200 259H92L96 385V534L17 516L10 521V604L186 650L201 639L196 397ZM648 390T682 365T716 296Q716 267 697 233T635 147L584
83L586 81H677L744 85L749 78L738 -4L644 0H477L451 -1L445 2V64L539 166Q578 211 593 232T609 272Q609 286 599 295T569 305Q548 305 523 293T475 259H463L445 338Q522 390 596 390Q648 390 682 365Z" />
<glyph unicode="&#xbe;" glyph-name="threequarters" horiz-adv-x="785" d="M166 -92L109 -58L103 -44L571 686L625 653L632 634L166 -92ZM288 319T239 286T110 253Q71 253 34 261L27 335L35 342Q74 331 112 331Q185 331 185 375Q185 413 135 413H83L78 420L79
489L110 490Q134 491 151 504T169 537Q169 568 127 568Q96 568 49 543H38L22 613Q82 650 151 650Q208 650 242 625T277 557Q277 498 216 466V462Q288 441 288 372Q288 319 239 286ZM700 86L705 7L699 0L616 -4L610 1L612 87H511L445 84L438 93V158L603 386H701L698
165H752L758 156L753 84L700 86ZM614 165L613 273H607L530 165H614Z" />
<glyph unicode="&#xbf;" glyph-name="questiondown" horiz-adv-x="340" d="M128 -193T57 -152T-14 -39Q-14 47 77 99L149 142L151 147L145 232L238 244L247 235L257 115L252 105L162 59Q106 29 106 -18Q106 -58 149 -79T288 -107L297 -120L273 -194L260 -201Q128
-193 57 -152ZM155 333T138 351T120 401Q120 435 139 455T191 475Q224 475 241 457T259 406Q259 373 240 353T186 333Q155 333 138 351Z" />
<glyph unicode="&#xc0;" glyph-name="Agrave" horiz-adv-x="600" d="M273 760T181 796L177 808L211 887L223 890Q310 838 431 777L409 722L396 718Q273 760 181 796ZM446 0L430 84L413 144L287 147L176 144L159 91L142 0H8L225 644H387L584 0H446ZM308 517H299L211
249L296 247L384 249L308 517Z" />
<glyph unicode="&#xc1;" glyph-name="Aacute" horiz-adv-x="600" d="M446 0L430 84L413 144L287 147L176 144L159 91L142 0H8L226 644H387L584 0H446ZM308 517H299L211 249L297 247L384 249L308 517ZM450 807L446 795Q354 759 231 717L218 721L196 776Q317 837
404 889L416 886L450 807Z" />
<glyph unicode="&#xc2;" glyph-name="Acircumflex" horiz-adv-x="600" d="M154 781Q223 827 288 885H315Q377 830 449 781L425 728H412L381 746Q344 765 302 791Q260 765 223 746L192 728H179L154 781ZM446 0L430 84L413 144L287 147L176 144L159 91L142 0H8L225
644H387L584 0H446ZM308 517H299L211 249L296 247L384 249L308 517Z" />
<glyph unicode="&#xc3;" glyph-name="Atilde" horiz-adv-x="600" d="M446 0L430 84L413 144L287 147L176 144L159 91L142 0H8L226 644H387L584 0H446ZM308 517H299L211 249L297 247L384 249L308 517ZM476 830L406 741L393 736Q366 739 310 755Q250 771 239 771Q228
771 218 762T195 740T177 720H165L125 759V770L196 859L208 864Q232 861 293 844Q349 829 362 829Q374 829 385 839T409 862T425 880H437L476 841V830Z" />
<glyph unicode="&#xc4;" glyph-name="Adieresis" horiz-adv-x="600" d="M184 732T168 748T152 795Q152 826 169 844T218 862Q247 862 263 846T279 800Q279 768 262 750T213 732Q184 732 168 748ZM358 732T342 748T326 795Q326 826 343 844T392 862Q421 862 437
846T453 800Q453 768 436 750T387 732Q358 732 342 748ZM446 0L430 84L413 144L287 147L176 144L159 91L142 0H8L225 644H387L584 0H446ZM308 517H299L211 249L296 247L384 249L308 517Z" />
<glyph unicode="&#xc5;" glyph-name="Aring" horiz-adv-x="600" d="M446 0L430 84L413 144L287 147L176 144L159 91L142 0H8L226 644H387L584 0H446ZM308 517H299L211 249L297 247L384 249L308 517ZM349 903T373 879T397 812Q397 765 371 740T298 714Q254 714
230 738T205 808Q205 853 230 878T303 903Q349 903 373 879ZM260 846T260 809Q260 769 301 769Q342 769 342 807Q342 846 300 846Q260 846 260 809Z" />
<glyph unicode="&#xc6;" glyph-name="AE" horiz-adv-x="822" d="M805 0H416L411 84L394 221L182 165L147 91L117 0H-18L292 644H732L741 633L730 532L575 537H487L509 356L703 406L713 398L724 303L521 255L539 106H641L806 112L814 101L805 0ZM358 517H349L240
286L382 323L358 517Z" />
<glyph unicode="&#xc7;" glyph-name="Ccedilla" horiz-adv-x="517" d="M414 105T481 148L494 141L483 26Q416 -4 343 -9L333 -48L367 -67Q408 -89 408 -126Q408 -159 382 -180T314 -201Q269 -201 232 -173L241 -117L247 -114Q277 -144 306 -144Q330 -144 330 -123Q330
-112 313 -103L264 -75L280 -7Q156 6 92 88T28 316Q28 476 108 564T335 652Q430 652 505 613L480 500L470 495Q407 540 330 540Q170 540 170 331Q170 105 334 105Q414 105 481 148Z" />
<glyph unicode="&#xc8;" glyph-name="Egrave" horiz-adv-x="509" d="M254 760T162 796L158 808L192 887L204 890Q291 838 412 777L390 722L377 718Q254 760 162 796ZM490 101L482 0H78L86 192L78 644H486L493 633L484 532L329 537L214 536L212 380L321 379L427
382L435 372L426 271L312 274L210 273L209 204L212 107L324 106L483 112L490 101Z" />
<glyph unicode="&#xc9;" glyph-name="Eacute" horiz-adv-x="509" d="M491 101L482 0H78L85 192L78 644H486L494 633L484 532L330 537L214 536L211 381L322 379L427 382L435 372L426 271L312 274L209 273L208 204L211 107L324 106L483 112L491 101ZM431 807L427
795Q335 759 212 717L199 721L177 776Q298 837 385 889L397 886L431 807Z" />
<glyph unicode="&#xca;" glyph-name="Ecircumflex" horiz-adv-x="509" d="M135 781Q204 827 269 885H296Q358 830 430 781L406 728H393L362 746Q325 765 283 791Q241 765 204 746L173 728H160L135 781ZM490 101L482 0H78L86 192L78 644H486L493 633L484 532L329
537L214 536L212 380L321 379L427 382L435 372L426 271L312 274L210 273L209 204L212 107L324 106L483 112L490 101Z" />
<glyph unicode="&#xcb;" glyph-name="Edieresis" horiz-adv-x="509" d="M165 732T149 748T133 795Q133 826 150 844T199 862Q228 862 244 846T260 800Q260 768 243 750T194 732Q165 732 149 748ZM339 732T323 748T307 795Q307 826 324 844T373 862Q402 862 418
846T434 800Q434 768 417 750T368 732Q339 732 323 748ZM490 101L482 0H78L86 192L78 644H486L493 633L484 532L329 537L214 536L212 380L321 379L427 382L435 372L426 271L312 274L210 273L209 204L212 107L324 106L483 112L490 101Z" />
<glyph unicode="&#xcc;" glyph-name="Igrave" horiz-adv-x="295" d="M155 838T276 777L254 722L241 718Q118 760 26 796L22 808L56 887L68 890Q155 838 276 777ZM215 0H78L86 192L78 644H216L209 204L215 0Z" />
<glyph unicode="&#xcd;" glyph-name="Iacute" horiz-adv-x="295" d="M214 0H78L85 192L78 644H216L208 204L214 0ZM296 807L292 795Q200 759 77 717L64 721L42 776Q163 837 250 889L262 886L296 807Z" />
<glyph unicode="&#xce;" glyph-name="Icircumflex" horiz-adv-x="295" d="M68 827T133 885H160Q222 830 294 781L270 728H257L226 746Q189 765 147 791Q105 765 68 746L37 728H24L-1 781Q68 827 133 885ZM215 0H78L86 192L78 644H216L209 204L215 0Z" />
<glyph unicode="&#xcf;" glyph-name="Idieresis" horiz-adv-x="295" d="M103 862T119 846T135 800Q135 768 118 750T69 732Q40 732 24 748T8 795Q8 826 25 844T74 862Q103 862 119 846ZM256 862T272 846T288 800Q288 768 271 750T222 732Q193 732 177 748T161
795Q161 826 178 844T227 862Q256 862 272 846ZM215 0H78L86 192L78 644H216L209 204L215 0Z" />
<glyph unicode="&#xd0;" glyph-name="Eth" horiz-adv-x="680" d="M503 648T577 570T652 346Q652 175 568 84T328 -7Q218 -7 104 0H103L111 192L110 275H21L15 284L20 365H108L103 644H104L363 648Q503 648 577 570ZM511 98T511 315Q511 433 473 486T352 540Q301
540 239 535L237 365H354L360 356L356 275H235L234 204L237 105Q307 98 353 98Q511 98 511 315Z" />
<glyph unicode="&#xd1;" glyph-name="Ntilde" horiz-adv-x="695" d="M615 0H469L207 436H198L197 222L202 0H78L85 190L79 644H225L487 208H496L492 638L618 646L610 199L615 0ZM521 830L451 741L438 736Q411 739 355 755Q295 771 284 771Q273 771 263 762T240
740T222 720H210L170 759V770L241 859L253 864Q277 861 338 844Q394 829 407 829Q419 829 430 839T454 862T470 880H482L521 841V830Z" />
<glyph unicode="&#xd2;" glyph-name="Ograve" horiz-adv-x="643" d="M331 838T452 777L430 722L417 718Q294 760 202 796L198 808L232 887L244 890Q331 838 452 777ZM468 653T541 571T615 336Q615 170 536 80T311 -10Q175 -10 102 74T28 314Q28 477 107 565T333
653Q468 653 541 571ZM240 543T205 494T169 332Q169 204 204 150T322 95Q401 95 437 145T474 309Q474 436 438 489T320 543Q240 543 205 494Z" />
<glyph unicode="&#xd3;" glyph-name="Oacute" horiz-adv-x="643" d="M469 653T542 571T616 336Q616 170 537 80T311 -10Q175 -10 102 74T28 314Q28 477 107 565T333 653Q469 653 542 571ZM241 543T205 494T169 332Q169 204 204 150T322 95Q402 95 438 145T474
309Q474 436 439 489T321 543Q241 543 205 494ZM471 807L467 795Q375 759 252 717L239 721L217 776Q338 837 425 889L437 886L471 807Z" />
<glyph unicode="&#xd4;" glyph-name="Ocircumflex" horiz-adv-x="643" d="M244 827T309 885H336Q398 830 470 781L446 728H433L402 746Q365 765 323 791Q281 765 244 746L213 728H200L175 781Q244 827 309 885ZM468 653T541 571T615 336Q615 170 536 80T311 -10Q175
-10 102 74T28 314Q28 477 107 565T333 653Q468 653 541 571ZM240 543T205 494T169 332Q169 204 204 150T322 95Q401 95 437 145T474 309Q474 436 438 489T320 543Q240 543 205 494Z" />
<glyph unicode="&#xd5;" glyph-name="Otilde" horiz-adv-x="643" d="M469 653T542 571T616 336Q616 170 537 80T311 -10Q175 -10 102 74T28 314Q28 477 107 565T333 653Q469 653 542 571ZM241 543T205 494T169 332Q169 204 204 150T322 95Q402 95 438 145T474
309Q474 436 439 489T321 543Q241 543 205 494ZM497 830L427 741L414 736Q387 739 331 755Q271 771 260 771Q249 771 239 762T216 740T198 720H186L146 759V770L217 859L229 864Q253 861 314 844Q370 829 383 829Q395 829 406 839T430 862T446 880H458L497 841V830Z"
/>
<glyph unicode="&#xd6;" glyph-name="Odieresis" horiz-adv-x="643" d="M268 862T284 846T300 800Q300 768 283 750T234 732Q205 732 189 748T173 795Q173 826 190 844T239 862Q268 862 284 846ZM442 862T458 846T474 800Q474 768 457 750T408 732Q379 732 363
748T347 795Q347 826 364 844T413 862Q442 862 458 846ZM468 653T541 571T615 336Q615 170 536 80T311 -10Q175 -10 102 74T28 314Q28 477 107 565T333 653Q468 653 541 571ZM240 543T205 494T169 332Q169 204 204 150T322 95Q401 95 437 145T474 309Q474 436 438
489T320 543Q240 543 205 494Z" />
<glyph unicode="&#xd7;" glyph-name="multiply" horiz-adv-x="480" d="M419 375L304 261L419 145V133L357 80L240 196L123 79L62 133V144L177 261L62 375V389L123 441L240 324L357 441L419 389V375Z" />
<glyph unicode="&#xd8;" glyph-name="Oslash" horiz-adv-x="643" d="M615 518T615 336Q615 170 536 80T311 -10Q263 -10 226 0L169 -119L84 -88L78 -76L135 43Q28 126 28 314Q28 477 107 565T333 653Q379 653 421 642L472 748L555 718L563 704L512 598Q615 518
615 336ZM401 95T437 145T474 309Q474 436 438 489T320 543Q240 543 205 494T169 332Q169 204 204 150T322 95Q401 95 437 145Z" />
<glyph unicode="&#xd9;" glyph-name="Ugrave" horiz-adv-x="638" d="M330 838T451 777L429 722L416 718Q293 760 201 796L197 808L231 887L243 890Q330 838 451 777ZM573 232Q574 117 506 54T311 -9Q189 -9 125 52T63 227L65 320L62 644H198L191 245Q190 102 319
102Q448 102 447 238L441 644H578L574 317L573 232Z" />
<glyph unicode="&#xda;" glyph-name="Uacute" horiz-adv-x="638" d="M573 232Q574 117 506 54T311 -9Q189 -9 125 52T64 227L65 320L62 644H198L191 245Q190 102 319 102Q449 102 448 238L441 644H579L574 317L573 232ZM470 807L466 795Q374 759 251 717L238 721L216
776Q337 837 424 889L436 886L470 807Z" />
<glyph unicode="&#xdb;" glyph-name="Ucircumflex" horiz-adv-x="638" d="M243 827T308 885H335Q397 830 469 781L445 728H432L401 746Q364 765 322 791Q280 765 243 746L212 728H199L174 781Q243 827 308 885ZM573 232Q574 117 506 54T311 -9Q189 -9 125 52T63
227L65 320L62 644H198L191 245Q190 102 319 102Q448 102 447 238L441 644H578L574 317L573 232Z" />
<glyph unicode="&#xdc;" glyph-name="Udieresis" horiz-adv-x="638" d="M268 862T284 846T300 800Q300 768 283 750T234 732Q205 732 189 748T173 795Q173 826 190 844T239 862Q268 862 284 846ZM442 862T458 846T474 800Q474 768 457 750T408 732Q379 732 363
748T347 795Q347 826 364 844T413 862Q442 862 458 846ZM573 232Q574 117 506 54T311 -9Q189 -9 125 52T63 227L65 320L62 644H198L191 245Q190 102 319 102Q448 102 447 238L441 644H578L574 317L573 232Z" />
<glyph unicode="&#xdd;" glyph-name="Yacute" horiz-adv-x="558" d="M339 0H203L211 179L209 217L4 644H148L162 599L271 354H281L402 595L421 644H561L335 219L333 179L339 0ZM425 807L421 795Q329 759 206 717L193 721L171 776Q292 837 379 889L391 886L425 807Z" />
<glyph unicode="&#xde;" glyph-name="Thorn" horiz-adv-x="561" d="M432 543T486 493T540 345Q540 232 472 170T276 108L212 107L215 0H78L85 192L80 542L78 644H217L215 543H329Q432 543 486 493ZM397 233T397 335Q397 390 370 415T286 443L214 440L210 212L304
208Q397 233 397 335Z" />
<glyph unicode="&#xdf;" glyph-name="germandbls" horiz-adv-x="608" d="M416 347T435 329T496 286Q531 266 553 249T590 206T606 143Q606 102 586 67T523 11T422 -10Q353 -10 279 20L295 124L307 132Q337 106 371 91T434 75Q460 75 475 88T491 120Q491 141 475
155T420 193Q383 215 359 233T318 281T301 350Q301 388 315 410T357 460Q381 483 392 500T403 543Q403 610 322 610Q225 610 224 505L219 204L226 0H93L101 190L98 381H30L26 388L32 461H97V490Q97 591 160 647T330 704Q420 704 467 665T514 563Q514 525 500 501T457
447Q436 425 426 410T416 374Q416 347 435 329Z" />
<glyph unicode="&#xe0;" glyph-name="agrave" horiz-adv-x="481" d="M239 664T355 571L323 521L310 520Q273 541 148 618Q137 624 115 638L113 651L161 723L174 724Q239 664 355 571ZM321 474T364 440T408 343Q408 325 402 229Q397 114 397 121Q397 104 402 98T421
91Q431 91 447 95L456 87L445 17Q411 -4 371 -8Q308 -2 294 65H287Q237 12 185 -9Q113 -8 72 29T30 130Q30 227 133 247L286 276V317Q286 382 222 382Q162 382 79 324L69 330L54 418Q143 474 244 474Q321 474 364 440ZM163 182T156 173T148 144Q148 118 162 104T201
89Q240 89 283 135L285 209L180 186Q163 182 156 173Z" />
<glyph unicode="&#xe1;" glyph-name="aacute" horiz-adv-x="481" d="M321 474T364 440T408 343Q408 325 402 229Q397 114 397 121Q397 104 402 98T420 91Q430 91 446 95L456 87L444 17Q412 -4 371 -8Q308 -2 294 65H287Q237 12 184 -9Q112 -8 71 29T30 130Q30
227 133 247L286 276V317Q286 382 222 382Q162 382 79 324L69 330L54 418Q142 474 244 474Q321 474 364 440ZM148 179T148 144Q148 118 162 104T201 89Q240 89 283 135L285 209L179 186Q148 179 148 144ZM379 651L377 638Q355 624 344 618Q219 541 182 520L169
521L137 571Q253 664 318 724L331 723L379 651Z" />
<glyph unicode="&#xe2;" glyph-name="acircumflex" horiz-adv-x="481" d="M136 629T220 718H249Q327 632 389 577L356 526H343Q277 578 234 618Q195 581 126 526H113L79 577Q136 629 220 718ZM321 474T364 440T408 343Q408 325 402 229Q397 114 397 121Q397 104
402 98T421 91Q431 91 447 95L456 87L445 17Q411 -4 371 -8Q308 -2 294 65H287Q237 12 185 -9Q113 -8 72 29T30 130Q30 227 133 247L286 276V317Q286 382 222 382Q162 382 79 324L69 330L54 418Q143 474 244 474Q321 474 364 440ZM163 182T156 173T148 144Q148
118 162 104T201 89Q240 89 283 135L285 209L180 186Q163 182 156 173Z" />
<glyph unicode="&#xe3;" glyph-name="atilde" horiz-adv-x="481" d="M321 474T364 440T408 343Q408 325 402 229Q397 114 397 121Q397 104 402 98T420 91Q430 91 446 95L456 87L444 17Q412 -4 371 -8Q308 -2 294 65H287Q237 12 184 -9Q112 -8 71 29T30 130Q30
227 133 247L286 276V317Q286 382 222 382Q162 382 79 324L69 330L54 418Q142 474 244 474Q321 474 364 440ZM148 179T148 144Q148 118 162 104T201 89Q240 89 283 135L285 209L179 186Q148 179 148 144ZM408 651L338 562L325 557Q298 560 242 576Q182 592 171
592Q160 592 150 583T127 561T109 541H97L57 580V591L128 680L140 685Q164 682 225 665Q281 650 294 650Q306 650 317 660T341 683T357 701H369L408 662V651Z" />
<glyph unicode="&#xe4;" glyph-name="adieresis" horiz-adv-x="481" d="M180 683T196 667T212 621Q212 589 195 571T146 553Q117 553 101 569T85 616Q85 647 102 665T151 683Q180 683 196 667ZM354 683T370 667T386 621Q386 589 369 571T320 553Q291 553 275 569T259
616Q259 647 276 665T325 683Q354 683 370 667ZM321 474T364 440T408 343Q408 325 402 229Q397 114 397 121Q397 104 402 98T421 91Q431 91 447 95L456 87L445 17Q411 -4 371 -8Q308 -2 294 65H287Q237 12 185 -9Q113 -8 72 29T30 130Q30 227 133 247L286 276V317Q286
382 222 382Q162 382 79 324L69 330L54 418Q143 474 244 474Q321 474 364 440ZM163 182T156 173T148 144Q148 118 162 104T201 89Q240 89 283 135L285 209L180 186Q163 182 156 173Z" />
<glyph unicode="&#xe5;" glyph-name="aring" horiz-adv-x="481" d="M321 474T364 440T408 343Q408 325 402 229Q397 114 397 121Q397 104 402 98T420 91Q430 91 446 95L456 87L444 17Q412 -4 371 -8Q308 -2 294 65H287Q237 12 184 -9Q112 -8 71 29T30 130Q30 227
133 247L286 276V317Q286 382 222 382Q162 382 79 324L69 330L54 418Q142 474 244 474Q321 474 364 440ZM148 179T148 144Q148 118 162 104T201 89Q240 89 283 135L285 209L179 186Q148 179 148 144ZM281 724T305 700T329 633Q329 586 303 561T230 535Q186 535
162 559T137 629Q137 674 162 699T235 724Q281 724 305 700ZM192 667T192 630Q192 590 233 590Q274 590 274 628Q274 667 232 667Q192 667 192 630Z" />
<glyph unicode="&#xe6;" glyph-name="ae" horiz-adv-x="694" d="M574 473T621 424T668 283Q668 268 667 260L654 244L388 213Q393 149 421 119T506 88Q571 88 637 124L648 117L629 20Q562 -10 495 -10Q376 -10 322 76Q267 18 197 -9Q120 -8 74 27T28 128Q28 177
54 209T131 248L281 264V317Q281 382 218 382Q159 382 76 323L67 329L51 419Q138 474 234 474Q320 474 356 421Q410 473 493 473Q574 473 621 424ZM441 385T414 355T387 279V278L550 301Q551 386 480 386Q441 385 414 355ZM221 90T240 100T290 139Q283 177 282
198L186 184Q147 177 147 142Q147 117 161 104T201 90Q221 90 240 100Z" />
<glyph unicode="&#xe7;" glyph-name="ccedilla" horiz-adv-x="385" d="M303 95T358 120L369 112L355 9Q304 -8 253 -9L244 -48L278 -67Q319 -89 319 -126Q319 -159 293 -180T225 -201Q180 -201 143 -173L152 -117L158 -114Q188 -144 217 -144Q241 -144 241 -123Q241
-112 224 -103L175 -75L191 -7Q114 7 72 67T29 227Q29 343 88 408T252 474Q322 474 374 449L352 343L341 338Q290 366 251 366Q205 366 180 334T155 239Q155 169 182 132T259 95Q303 95 358 120Z" />
<glyph unicode="&#xe8;" glyph-name="egrave" horiz-adv-x="471" d="M288 541T163 618Q152 624 130 638L128 651L176 723L189 724Q254 664 370 571L338 521L325 520Q288 541 163 618ZM151 215Q159 89 275 89Q340 89 410 125L421 118L403 20Q331 -10 262 -10Q152
-10 91 54T29 230Q29 343 91 408T259 473Q345 473 392 425T440 290Q440 263 436 235L417 216L151 215ZM325 386T254 386Q214 386 189 361T154 288L323 293L325 305Q325 386 254 386Z" />
<glyph unicode="&#xe9;" glyph-name="eacute" horiz-adv-x="471" d="M152 215Q160 89 276 89Q341 89 410 125L421 118L403 20Q333 -10 263 -10Q152 -10 91 54T29 230Q29 343 91 408T259 473Q346 473 393 425T440 290Q440 263 436 235L417 216L152 215ZM325 386T254
386Q215 386 190 361T155 288L323 293L325 305Q325 386 254 386ZM394 651L392 638Q370 624 359 618Q234 541 197 520L184 521L152 571Q268 664 333 724L346 723L394 651Z" />
<glyph unicode="&#xea;" glyph-name="ecircumflex" horiz-adv-x="471" d="M95 577Q152 629 236 718H265Q343 632 405 577L372 526H359Q293 578 250 618Q211 581 142 526H129L95 577ZM151 215Q159 89 275 89Q340 89 410 125L421 118L403 20Q331 -10 262 -10Q152
-10 91 54T29 230Q29 343 91 408T259 473Q345 473 392 425T440 290Q440 263 436 235L417 216L151 215ZM325 386T254 386Q214 386 189 361T154 288L323 293L325 305Q325 386 254 386Z" />
<glyph unicode="&#xeb;" glyph-name="edieresis" horiz-adv-x="471" d="M132 553T116 569T100 616Q100 647 117 665T166 683Q195 683 211 667T227 621Q227 589 210 571T161 553Q132 553 116 569ZM306 553T290 569T274 616Q274 647 291 665T340 683Q369 683 385
667T401 621Q401 589 384 571T335 553Q306 553 290 569ZM151 215Q159 89 275 89Q340 89 410 125L421 118L403 20Q331 -10 262 -10Q152 -10 91 54T29 230Q29 343 91 408T259 473Q345 473 392 425T440 290Q440 263 436 235L417 216L151 215ZM325 386T254 386Q214
386 189 361T154 288L323 293L325 305Q325 386 254 386Z" />
<glyph unicode="&#xec;" glyph-name="igrave" horiz-adv-x="254" d="M134 664T250 571L218 521L205 520Q168 541 43 618Q32 624 10 638L8 651L56 723L69 724Q134 664 250 571ZM193 0H60L67 192L61 456L194 467L186 205L193 0Z" />
<glyph unicode="&#xed;" glyph-name="iacute" horiz-adv-x="254" d="M193 0H60L67 192L61 456L194 467L186 205L193 0ZM530 651L528 638Q506 624 495 618Q370 541 333 520L320 521L288 571Q404 664 469 724L482 723L530 651Z" />
<glyph unicode="&#xee;" glyph-name="icircumflex" horiz-adv-x="254" d="M31 629T115 718H144Q222 632 284 577L251 526H238Q172 578 129 618Q90 581 21 526H8L-26 577Q31 629 115 718ZM193 0H60L67 192L61 456L194 467L186 205L193 0Z" />
<glyph unicode="&#xef;" glyph-name="idieresis" horiz-adv-x="254" d="M85 683T101 667T117 621Q117 589 100 571T51 553Q22 553 6 569T-10 616Q-10 647 7 665T56 683Q85 683 101 667ZM238 683T254 667T270 621Q270 589 253 571T204 553Q175 553 159 569T143
616Q143 647 160 665T209 683Q238 683 254 667ZM193 0H60L67 192L61 456L194 467L186 205L193 0Z" />
<glyph unicode="&#xf0;" glyph-name="eth" d="M462 452T462 248Q462 124 405 57T242 -10Q143 -10 88 50T33 224Q33 337 87 398T245 459Q271 459 290 455Q262 500 214 538L98 472L87 476L60 529L151 581Q104 608 52 631V647L135 709H143Q212 674 255 641L364 703L375
700L402 646L311 594Q462 452 462 248ZM300 76T321 113T343 235Q343 293 334 339Q300 369 252 369Q200 369 176 335T152 224Q152 146 176 111T250 76Q300 76 321 113Z" />
<glyph unicode="&#xf1;" glyph-name="ntilde" horiz-adv-x="527" d="M346 290Q346 364 283 364Q238 364 187 321V205L193 0H60L67 192L61 456L188 467V399H194Q251 450 315 471Q391 471 430 437T469 337L466 204L471 0H338L346 290ZM455 651L385 562L372 557Q345
560 289 576Q229 592 218 592Q207 592 197 583T174 561T156 541H144L104 580V591L175 680L187 685Q211 682 272 665Q328 650 341 650Q353 650 364 660T388 683T404 701H416L455 662V651Z" />
<glyph unicode="&#xf2;" glyph-name="ograve" horiz-adv-x="494" d="M253 664T369 571L337 521L324 520Q287 541 162 618Q151 624 129 638L127 651L175 723L188 724Q253 664 369 571ZM355 474T409 414T463 241Q463 119 406 55T239 -10Q137 -10 83 50T29 223Q29
345 86 409T253 474Q355 474 409 414ZM198 384T176 352T154 249Q154 157 176 118T249 79Q297 79 318 110T339 214Q339 305 317 344T245 384Q198 384 176 352Z" />
<glyph unicode="&#xf3;" glyph-name="oacute" horiz-adv-x="494" d="M356 474T410 414T464 241Q464 119 406 55T239 -10Q137 -10 83 50T29 223Q29 345 87 409T254 474Q356 474 410 414ZM197 384T176 352T154 249Q154 157 176 118T248 79Q296 79 317 110T339 214Q339
305 317 344T245 384Q197 384 176 352ZM393 651L391 638Q369 624 358 618Q233 541 196 520L183 521L151 571Q267 664 332 724L345 723L393 651Z" />
<glyph unicode="&#xf4;" glyph-name="ocircumflex" horiz-adv-x="494" d="M151 629T235 718H264Q342 632 404 577L371 526H358Q292 578 249 618Q210 581 141 526H128L94 577Q151 629 235 718ZM355 474T409 414T463 241Q463 119 406 55T239 -10Q137 -10 83 50T29
223Q29 345 86 409T253 474Q355 474 409 414ZM198 384T176 352T154 249Q154 157 176 118T249 79Q297 79 318 110T339 214Q339 305 317 344T245 384Q198 384 176 352Z" />
<glyph unicode="&#xf5;" glyph-name="otilde" horiz-adv-x="494" d="M356 474T410 414T464 241Q464 119 406 55T239 -10Q137 -10 83 50T29 223Q29 345 87 409T254 474Q356 474 410 414ZM197 384T176 352T154 249Q154 157 176 118T248 79Q296 79 317 110T339 214Q339
305 317 344T245 384Q197 384 176 352ZM423 651L353 562L340 557Q313 560 257 576Q197 592 186 592Q175 592 165 583T142 561T124 541H112L72 580V591L143 680L155 685Q179 682 240 665Q296 650 309 650Q321 650 332 660T356 683T372 701H384L423 662V651Z" />
<glyph unicode="&#xf6;" glyph-name="odieresis" horiz-adv-x="494" d="M194 683T210 667T226 621Q226 589 209 571T160 553Q131 553 115 569T99 616Q99 647 116 665T165 683Q194 683 210 667ZM368 683T384 667T400 621Q400 589 383 571T334 553Q305 553 289 569T273
616Q273 647 290 665T339 683Q368 683 384 667ZM355 474T409 414T463 241Q463 119 406 55T239 -10Q137 -10 83 50T29 223Q29 345 86 409T253 474Q355 474 409 414ZM198 384T176 352T154 249Q154 157 176 118T249 79Q297 79 318 110T339 214Q339 305 317 344T245
384Q198 384 176 352Z" />
<glyph unicode="&#xf7;" glyph-name="divide" horiz-adv-x="480" d="M455 215H37L28 224L35 305H453L462 296L455 215ZM267 151T282 135T298 91Q298 61 281 44T235 26Q206 26 191 42T175 87Q175 116 192 133T239 151Q267 151 282 135ZM267 449T282 433T298 389Q298
359 281 342T235 324Q206 324 191 340T175 385Q175 414 192 431T239 449Q267 449 282 433Z" />
<glyph unicode="&#xf8;" glyph-name="oslash" horiz-adv-x="494" d="M463 359T463 241Q463 119 406 55T239 -10Q204 -10 172 -2L103 -125L27 -88L24 -77L90 43Q29 102 29 223Q29 345 86 409T253 474Q288 474 322 466L381 571L453 535L460 523L403 421Q463 359
463 241ZM297 79T318 110T339 214Q339 305 317 344T245 384Q198 384 176 352T154 249Q154 157 176 118T249 79Q297 79 318 110Z" />
<glyph unicode="&#xf9;" glyph-name="ugrave" horiz-adv-x="522" d="M264 664T380 571L348 521L335 520Q298 541 173 618Q162 624 140 638L138 651L186 723L199 724Q264 664 380 571ZM447 91T470 91Q480 91 496 95L506 87L494 17Q462 -4 421 -8Q360 -2 341 67H332Q273
11 214 -6Q139 -6 99 28T59 128L62 246L57 456L186 467L183 172Q181 101 242 101Q285 101 329 140V456L456 467L447 121Q447 91 470 91Z" />
<glyph unicode="&#xfa;" glyph-name="uacute" horiz-adv-x="522" d="M447 104T452 98T470 91Q480 91 496 95L506 87L494 17Q462 -4 421 -8Q358 -2 341 67H331Q274 12 214 -6Q139 -6 99 28T59 128L62 246L57 456L186 467L182 172Q182 101 242 101Q284 101 329 140V456L455
467L447 121Q447 104 452 98ZM404 651L402 638Q380 624 369 618Q244 541 207 520L194 521L162 571Q278 664 343 724L356 723L404 651Z" />
<glyph unicode="&#xfb;" glyph-name="ucircumflex" horiz-adv-x="522" d="M161 629T245 718H274Q352 632 414 577L381 526H368Q302 578 259 618Q220 581 151 526H138L104 577Q161 629 245 718ZM447 91T470 91Q480 91 496 95L506 87L494 17Q462 -4 421 -8Q360 -2
341 67H332Q273 11 214 -6Q139 -6 99 28T59 128L62 246L57 456L186 467L183 172Q181 101 242 101Q285 101 329 140V456L456 467L447 121Q447 91 470 91Z" />
<glyph unicode="&#xfc;" glyph-name="udieresis" horiz-adv-x="522" d="M205 683T221 667T237 621Q237 589 220 571T171 553Q142 553 126 569T110 616Q110 647 127 665T176 683Q205 683 221 667ZM379 683T395 667T411 621Q411 589 394 571T345 553Q316 553 300
569T284 616Q284 647 301 665T350 683Q379 683 395 667ZM447 91T470 91Q480 91 496 95L506 87L494 17Q462 -4 421 -8Q360 -2 341 67H332Q273 11 214 -6Q139 -6 99 28T59 128L62 246L57 456L186 467L183 172Q181 101 242 101Q285 101 329 140V456L456 467L447 121Q447
91 470 91Z" />
<glyph unicode="&#xfd;" glyph-name="yacute" horiz-adv-x="447" d="M225 135H233L314 382L331 465H446L295 32Q262 -62 207 -112T49 -192L39 -191Q3 -158 -21 -111L-16 -97Q46 -86 90 -63T169 0L-1 462L127 468L142 394L225 135ZM373 651L371 638Q349 624 338
618Q213 541 176 520L163 521L131 571Q247 664 312 724L325 723L373 651Z" />
<glyph unicode="&#xfe;" glyph-name="thorn" horiz-adv-x="522" d="M399 471T445 412T492 246Q492 123 431 57T262 -10Q228 -10 193 -1L196 -185H65L71 192L65 692L197 702L193 399H199Q252 449 311 471Q399 471 445 412ZM368 77T368 225Q368 364 279 364Q238
364 192 321L190 207L192 95Q230 77 261 77Q368 77 368 225Z" />
<glyph unicode="&#xff;" glyph-name="ydieresis" horiz-adv-x="447" d="M174 683T190 667T206 621Q206 589 189 571T140 553Q111 553 95 569T79 616Q79 647 96 665T145 683Q174 683 190 667ZM348 683T364 667T380 621Q380 589 363 571T314 553Q285 553 269 569T253
616Q253 647 270 665T319 683Q348 683 364 667ZM225 135H234L315 382L331 465H447L296 32Q263 -62 208 -112T50 -192L40 -191Q4 -158 -20 -111L-15 -97Q47 -86 91 -63T170 0L0 462L128 468L143 394L225 135Z" />
<glyph unicode="&#x2013;" glyph-name="endash" horiz-adv-x="466" d="M475 213H-6L-15 222L-8 303H472L481 293L475 213Z" />
<glyph unicode="&#x2014;" glyph-name="emdash" horiz-adv-x="889" d="M900 213H-9L-17 222L-11 303H897L906 293L900 213Z" />
<glyph unicode="&#x2018;" glyph-name="quoteleft" horiz-adv-x="207" d="M33 422T33 485Q33 561 125 649L171 619L173 609Q133 565 133 524Q133 477 173 453V442Q131 410 90 391Q33 422 33 485Z" />
<glyph unicode="&#x2019;" glyph-name="quoteright" horiz-adv-x="207" d="M175 619T175 556Q175 480 83 392L37 422L35 432Q75 476 75 517Q75 564 35 588V599Q77 631 118 650Q175 619 175 556Z" />
<glyph unicode="&#x201a;" glyph-name="quotesinglbase" horiz-adv-x="229" d="M440 96T440 46Q440 -41 319 -127L276 -89L275 -79Q330 -33 330 19Q330 53 298 79L299 90Q345 118 395 132Q440 96 440 46Z" />
<glyph unicode="&#x201c;" glyph-name="quotedblleft" horiz-adv-x="367" d="M196 423T196 486Q196 562 288 650L334 620L336 610Q296 566 296 525Q296 478 336 454V443Q294 411 253 392Q196 423 196 486ZM30 423T30 486Q30 562 122 650L168 620L170 610Q130 566
130 525Q130 478 170 454V443Q128 411 87 392Q30 423 30 486Z" />
<glyph unicode="&#x201d;" glyph-name="quotedblright" horiz-adv-x="365" d="M332 619T332 556Q332 480 240 392L194 422L192 432Q232 476 232 517Q232 564 192 588V599Q234 631 275 650Q332 619 332 556ZM430 619T430 556Q430 480 338 392L292 422L290 432Q330
476 330 517Q330 564 290 588V599Q332 631 373 650Q430 619 430 556Z" />
<glyph unicode="&#x201e;" glyph-name="quotedblbase" horiz-adv-x="394" d="M348 96T348 46Q348 -41 227 -127L184 -89L183 -79Q238 -33 238 19Q238 53 206 79L207 90Q253 118 303 132Q348 96 348 46ZM440 96T440 46Q440 -41 319 -127L276 -89L275 -79Q330 -33
330 19Q330 53 298 79L299 90Q345 118 395 132Q440 96 440 46Z" />
<glyph unicode="&#x2022;" glyph-name="bullet" horiz-adv-x="277" d="M180 373T201 351T223 288Q223 246 200 221T135 196Q94 196 73 218T51 282Q51 323 75 348T141 373Q180 373 201 351Z" />
<glyph unicode="&#x2039;" glyph-name="guilsinglleft" horiz-adv-x="244" d="M22 236L158 414L221 381L223 368L119 227L223 87L221 74L158 40L22 214V236Z" />
<glyph unicode="&#x203a;" glyph-name="guilsinglright" horiz-adv-x="246" d="M226 221L90 43L27 76L25 89L129 230L25 370L27 383L90 417L226 243V221Z" />
</font>
</defs>
</svg>
