<?xml version="1.0" standalone="no"?>
<!DOCTYPE svg PUBLIC "-//W3C//DTD SVG 1.1//EN" "http://www.w3.org/Graphics/SVG/1.1/DTD/svg11.dtd">
<svg xmlns="http://www.w3.org/2000/svg">
<defs >
<font id="AlegreyaSans" horiz-adv-x="504" ><font-face
    font-family="Alegreya Sans ExtraBold"
    units-per-em="1000"
    panose-1="0 0 9 0 0 0 0 0 0 0"
    ascent="900"
    descent="-300"
    alphabetic="0" />
<glyph unicode=" " glyph-name="space" horiz-adv-x="145" />
<glyph unicode="!" glyph-name="exclam" horiz-adv-x="268" d="M183 246L93 233L78 249L66 642L80 660L207 668L225 649L183 246ZM163 158T183 137T203 79Q203 39 181 16T120 -8Q82 -8 62 13T41 72Q41 111 64 134T126 158Q163 158 183 137Z" />
<glyph unicode="&quot;" glyph-name="quotedbl" horiz-adv-x="391" d="M145 396L72 385L60 395L54 636L177 644L185 633L145 396ZM312 396L239 385L227 395L222 636L344 644L353 633L312 396Z" />
<glyph unicode="#" glyph-name="numbersign" horiz-adv-x="564" d="M421 254H503L513 244L506 164H405L381 31H290L282 42L304 164H208L184 31H93L85 42L107 164H29L20 174L27 254H123L141 352H61L52 362L58 442H157L181 573H269L279 561L258 442H354L378 573H466L476
561L455 442H535L544 432L537 352H439L421 254ZM242 352L224 254H320L338 352H242Z" />
<glyph unicode="$" glyph-name="dollar" horiz-adv-x="458" d="M416 102T379 57T266 -4L258 -138H166L154 -126L161 -8Q95 -3 32 20L53 155L68 166Q103 135 146 117T221 98Q242 98 255 108T268 133Q268 150 251 161T193 189Q148 207 119 224T68 271T46 347Q46
407 85 451T193 510L201 646H291L305 633L298 515Q354 509 405 491L383 361L361 356Q329 379 296 392T239 405Q218 405 207 396T195 372Q195 355 212 344T270 316Q314 299 343 283T394 236T416 161Q416 102 379 57Z" />
<glyph unicode="%" glyph-name="percent" horiz-adv-x="868" d="M686 630L221 -93L154 -52L148 -37L614 689L677 650L686 630ZM270 652T309 607T348 476Q348 383 305 334T180 285Q106 285 66 330T26 461Q26 553 70 602T196 652Q270 652 309 607ZM152 552T138 533T123
469Q123 421 138 400T187 378Q221 378 236 398T252 463Q252 510 236 531T186 552Q152 552 138 533ZM763 361T802 316T841 185Q841 92 798 43T673 -6Q599 -6 559 39T519 170Q519 262 563 311T689 361Q763 361 802 316ZM645 261T631 242T616 178Q616 130 631 109T680
87Q714 87 729 107T745 172Q745 219 729 240T679 261Q645 261 631 242Z" />
<glyph unicode="&amp;" glyph-name="ampersand" horiz-adv-x="719" d="M574 330Q582 295 582 254Q582 189 558 138L688 20V10Q652 -30 603 -61L593 -60L478 44Q401 -10 282 -10Q168 -10 101 39T33 174Q33 282 146 337L147 346Q84 415 84 488Q84 564 141 608T302
652Q393 652 468 625L432 508H413Q352 543 297 543Q222 543 222 479Q222 457 232 439T274 395L471 216Q479 245 479 273Q479 309 468 340H411L404 349L414 451H705L714 440L704 340H578L574 330ZM354 99T394 120L212 284Q169 250 169 200Q169 151 202 125T297 99Q354
99 394 120Z" />
<glyph unicode="&apos;" glyph-name="quotesingle" horiz-adv-x="223" d="M145 396L72 385L60 395L54 636L177 644L185 633L145 396Z" />
<glyph unicode="(" glyph-name="parenleft" horiz-adv-x="298" d="M295 600Q241 548 217 465T191 253Q192 131 216 53T295 -78V-91L238 -138H224Q141 -77 103 16T64 252Q65 404 103 501T224 660H238L295 613V600Z" />
<glyph unicode=")" glyph-name="parenright" horiz-adv-x="298" d="M2 -79Q56 -27 80 56T106 268Q105 390 81 468T2 599V612L59 659H73Q156 598 194 505T233 269Q232 117 194 20T73 -139H59L2 -92V-79Z" />
<glyph unicode="*" glyph-name="asterisk" horiz-adv-x="388" d="M216 612L170 607L162 614L158 731Q195 744 243 746L248 737L216 612ZM142 556L132 552L22 583Q22 626 34 669L44 672L150 602L142 556ZM365 605T378 566L372 559L247 552L226 593L231 603L338
644Q365 605 378 566ZM313 442Q292 411 252 380L243 383L198 504L231 535L242 534L313 442ZM180 502L119 405Q91 413 40 442L41 453L138 534L179 513L180 502Z" />
<glyph unicode="+" glyph-name="plus" horiz-adv-x="480" d="M294 311H450L461 301L453 205H294V45L198 38L187 48V205H30L20 216L28 311H187V471L283 479L294 469V311Z" />
<glyph unicode="," glyph-name="comma" horiz-adv-x="228" d="M196 113T196 59Q196 -39 63 -133L12 -89L11 -77Q67 -30 67 25Q67 61 34 91L35 105Q95 138 150 153Q196 113 196 59Z" />
<glyph unicode="-" glyph-name="hyphen" horiz-adv-x="302" d="M275 218L38 181L26 193V291L263 327L275 316V218Z" />
<glyph unicode="." glyph-name="period" horiz-adv-x="228" d="M154 158T174 137T195 79Q195 39 172 16T111 -8Q73 -8 53 13T33 72Q33 111 55 134T117 158Q154 158 174 137Z" />
<glyph unicode="/" glyph-name="slash" horiz-adv-x="282" d="M107 -116H-3L-12 -104L195 681H302L314 668L107 -116Z" />
<glyph unicode="0" glyph-name="zero" horiz-adv-x="518" d="M371 518T427 452T483 264Q483 133 422 62T250 -10Q148 -10 92 56T35 243Q35 373 96 445T270 518Q371 518 427 452ZM205 370T182 343T158 253Q158 189 182 159T259 129Q312 129 336 157T361 246Q361
311 336 340T258 370Q205 370 182 343Z" />
<glyph unicode="1" glyph-name="one" horiz-adv-x="368" d="M270 209L277 0H116L123 192V335L18 309L7 317V445L255 516L278 499L270 209Z" />
<glyph unicode="2" glyph-name="two" horiz-adv-x="479" d="M320 516T367 482T414 388Q414 308 304 192L242 125L245 121H356L449 130L457 120L439 -7L308 0H80L44 -3L36 3V100L168 223Q214 268 235 296T257 346Q257 381 209 381Q179 381 145 367T79 326H62L35
449Q147 516 247 516Q320 516 367 482Z" />
<glyph unicode="3" glyph-name="three" horiz-adv-x="440" d="M293 517T344 478T395 375Q395 336 373 298T302 233V227Q405 196 405 94Q405 38 373 -4T281 -70T143 -94Q88 -94 31 -84L22 36L33 46Q96 26 148 26Q253 26 253 95Q253 149 181 150H105L98 160L102
269L146 271Q182 272 207 291T233 341Q233 389 174 389Q130 389 59 348H43L20 460Q111 517 210 517Q293 517 344 478Z" />
<glyph unicode="4" glyph-name="four" horiz-adv-x="514" d="M405 45L410 -77L402 -88L278 -96L270 -86L274 46H126L29 43L19 56V157L260 509H406L403 168H479L489 154L482 43L405 45ZM276 168V332H266L154 168H276Z" />
<glyph unicode="5" glyph-name="five" horiz-adv-x="438" d="M394 384L384 373L284 385H184L181 294L242 281Q326 263 364 224T402 120Q402 56 369 7T277 -69T139 -96Q78 -96 21 -83L13 35L24 46Q88 25 146 25Q195 25 223 45T251 100Q251 129 232 145T170 169L68
186L59 198L64 495L81 512L141 509H293L402 516L411 506L394 384Z" />
<glyph unicode="6" glyph-name="six" horiz-adv-x="489" d="M345 367T383 343T441 279T461 190Q461 137 436 91T362 17T241 -11Q140 -11 84 50T27 217Q27 336 102 435T315 597H323L428 527V511Q330 474 277 438T198 355L205 347Q248 367 292 367Q345 367 383 343ZM281
92T299 112T318 173Q318 257 244 257Q211 257 171 236V219Q171 153 187 123T246 92Q281 92 299 112Z" />
<glyph unicode="7" glyph-name="seven" horiz-adv-x="440" d="M362 509L414 511V395L263 66L201 -99L74 -64L65 -39L262 378H120L20 367L12 380L22 513L146 509H362Z" />
<glyph unicode="8" glyph-name="eight" horiz-adv-x="502" d="M348 596T396 556T445 447Q445 370 360 314V307Q406 284 433 252T460 169Q460 86 400 38T237 -10Q142 -10 90 32T38 142Q38 233 145 280V287Q55 335 55 425Q55 504 112 550T264 596Q348 596 396 556ZM220
488T202 473T184 431Q184 402 205 385T266 351Q321 385 321 429Q321 456 303 472T253 488Q220 488 202 473ZM203 227T186 210T169 163Q169 132 190 114T250 95Q289 95 310 113T331 157Q331 187 308 204T238 240Q203 227 186 210Z" />
<glyph unicode="9" glyph-name="nine" horiz-adv-x="489" d="M144 142T106 166T48 230T28 319Q28 372 53 418T127 492T248 520Q349 520 405 459T462 292Q462 173 387 74T174 -88H166L61 -18V-2Q159 35 212 71T291 154L284 162Q241 142 197 142Q144 142 106 166ZM208
417T190 397T171 336Q171 252 245 252Q278 252 318 273V290Q318 356 302 386T243 417Q208 417 190 397Z" />
<glyph unicode=":" glyph-name="colon" horiz-adv-x="228" d="M406 158T426 137T447 79Q447 39 424 16T363 -8Q325 -8 305 13T285 72Q285 111 307 134T369 158Q406 158 426 137ZM150 417T170 396T191 338Q191 298 168 275T107 251Q69 251 49 272T29 331Q29 370
51 393T113 417Q150 417 170 396Z" />
<glyph unicode=";" glyph-name="semicolon" horiz-adv-x="228" d="M448 113T448 59Q448 -39 315 -133L264 -89L263 -77Q319 -30 319 25Q319 61 286 91L287 105Q347 138 402 153Q448 113 448 59ZM150 417T170 396T191 338Q191 298 168 275T107 251Q69 251 49 272T29
331Q29 370 51 393T113 417Q150 417 170 396Z" />
<glyph unicode="&lt;" glyph-name="less" horiz-adv-x="480" d="M33 322V194L405 55L418 65L440 154L143 258V266L440 373L446 384L413 475L43 336L33 322Z" />
<glyph unicode="=" glyph-name="equal" horiz-adv-x="480" d="M453 303H30L20 314L28 409H450L461 399L453 303ZM453 362H30L20 373L28 468H450L461 458L453 362Z" />
<glyph unicode="&gt;" glyph-name="greater" horiz-adv-x="480" d="M447 322V194L75 55L62 65L40 154L337 258V266L40 373L34 384L67 475L437 336L447 322Z" />
<glyph unicode="?" glyph-name="question" horiz-adv-x="345" d="M220 665T294 623T368 508Q368 466 344 430T274 368L208 330L205 325L212 246L101 230L90 241L79 363L85 374L172 414Q225 441 225 484Q225 519 186 537T51 562L40 576L69 664L83 672Q220 665 294
623ZM200 158T220 137T241 79Q241 39 218 16T157 -8Q119 -8 99 13T79 72Q79 111 101 134T163 158Q200 158 220 137Z" />
<glyph unicode="@" glyph-name="at" horiz-adv-x="853" d="M836 166T734 84T442 0L461 135H447Q401 51 348 -6H329Q267 13 242 52T216 153Q216 217 241 279T319 389T447 459H452L536 441L620 463L631 456L584 113V108Q654 121 694 176T734 313Q734 383 702 436T612
518T474 547Q372 547 294 503T172 380T129 202Q129 99 176 24T308 -90T508 -129L514 -143L472 -216Q337 -215 236 -169T80 -32T24 184Q24 315 81 420T241 585T480 645Q587 645 667 606T792 492T836 318Q836 166 734 84ZM383 127T415 176T486 318L488 337L424 356Q386
356 365 316T344 207Q344 127 367 127Q383 127 415 176Z" />
<glyph unicode="A" glyph-name="A" horiz-adv-x="611" d="M433 0L416 93L407 130L291 132L191 129L183 103L165 0H6L214 645H409L598 0H433ZM313 497H303L228 252L302 250L376 252L313 497Z" />
<glyph unicode="B" glyph-name="B" horiz-adv-x="600" d="M510 317T540 281T570 184Q570 -6 262 -6Q162 -6 71 0H70L79 191L70 645L324 646Q427 646 485 604T543 483Q543 432 518 394T445 333Q510 317 540 281ZM378 502T353 518T261 534H229L225 377L311 373Q345
383 361 404T378 461Q378 502 353 518ZM346 106T376 128T406 191Q406 222 387 240T328 268L223 266L222 207L225 110Q277 106 292 106Q346 106 376 128Z" />
<glyph unicode="C" glyph-name="C" horiz-adv-x="516" d="M434 654T509 621L480 488L469 482Q408 522 336 522Q264 522 230 477T195 335Q195 125 344 125Q416 125 481 159L495 151L482 18Q412 -10 331 -10Q180 -10 102 74T24 317Q24 478 107 566T342 654Q434 654
509 621Z" />
<glyph unicode="D" glyph-name="D" horiz-adv-x="659" d="M485 649T560 572T635 348Q635 176 549 84T303 -8Q211 -8 71 0H70L79 191L70 645H71L343 649Q485 649 560 572ZM466 115T466 309Q466 423 434 472T330 521Q277 521 233 517L227 207L229 123Q288 115 333
115Q466 115 466 309Z" />
<glyph unicode="E" glyph-name="E" horiz-adv-x="522" d="M506 120L496 0H70L79 191L70 645H502L511 633L500 513L343 519L233 518L231 389H336L441 392L450 380L440 260L325 263H228L227 207L229 127L335 126L497 132L506 120Z" />
<glyph unicode="F" glyph-name="F" horiz-adv-x="466" d="M230 368H311L423 371L432 359L422 239L299 242H228L227 207L233 0H70L79 191L70 645H474L483 633L472 513L316 519L233 518L230 368Z" />
<glyph unicode="G" glyph-name="G" horiz-adv-x="597" d="M480 654T559 619L525 474H511Q462 501 424 512T342 524Q288 524 256 505T209 440T193 317Q193 240 208 197T255 134T345 115Q373 115 410 125L411 170L408 274L557 284L555 197L556 32Q437 -10 331 -10Q178
-10 101 72T24 309Q24 477 114 565T372 654Q480 654 559 619Z" />
<glyph unicode="H" glyph-name="H" horiz-adv-x="702" d="M629 0H466L474 191L473 256L343 258L228 255L227 207L233 0H70L79 191L70 645H236L231 389L353 386L471 388L466 645H631L622 207L629 0Z" />
<glyph unicode="I" glyph-name="I" horiz-adv-x="308" d="M233 0H70L79 191L70 645H236L227 207L233 0Z" />
<glyph unicode="J" glyph-name="J" horiz-adv-x="346" d="M270 122Q270 63 251 22T186 -51T62 -109L16 -24V-10Q74 19 97 49T120 126V197L114 529L17 526L7 537L14 645H277L268 213L270 122Z" />
<glyph unicode="K" glyph-name="K" horiz-adv-x="602" d="M486 190T615 34L613 16Q531 -4 452 -11L434 -1Q310 183 228 319L226 207L233 0H70L79 191L70 645H235L229 356L386 580L422 645H596L384 341Q486 190 615 34Z" />
<glyph unicode="L" glyph-name="L" horiz-adv-x="441" d="M429 0H66L75 191L66 645H231L222 207L225 133H430L440 121L429 0Z" />
<glyph unicode="M" glyph-name="M" horiz-adv-x="801" d="M616 0L608 196L590 408H580L452 65H328L216 408H205L185 211L172 0H37L101 645H288L311 551L394 275H404L494 548L520 645H704L759 0H616Z" />
<glyph unicode="N" glyph-name="N" horiz-adv-x="701" d="M628 0H452L223 399H213L212 227L219 0H70L79 190L71 645H247L476 246H486L481 639L631 648L622 204L628 0Z" />
<glyph unicode="O" glyph-name="O" horiz-adv-x="647" d="M474 655T549 573T624 338Q624 172 542 81T311 -11Q174 -11 99 73T24 313Q24 477 105 566T336 655Q474 655 549 573ZM274 525T246 507T206 448T193 335Q193 250 206 202T247 133T325 112Q372 112 400 130T441
190T454 304Q454 388 441 435T400 504T322 525Q274 525 246 507Z" />
<glyph unicode="P" glyph-name="P" horiz-adv-x="570" d="M446 646T502 594T559 446Q559 371 525 315T429 227T285 196H227L233 0H70L79 191L70 645L342 646Q446 646 502 594ZM389 338T389 430Q389 480 365 504T288 530L234 527L229 317L314 313Q389 338 389 430Z" />
<glyph unicode="Q" glyph-name="Q" horiz-adv-x="654" d="M705 -161T661 -200L649 -206Q475 -132 330 -11H312Q174 -11 99 73T24 313Q24 477 105 566T336 655Q474 655 549 573T624 337Q624 224 586 145T475 27Q599 -45 732 -81L738 -97Q705 -161 661 -200ZM193
249T206 202T248 133T326 112Q373 112 400 130T441 191T454 305Q454 388 441 435T399 504T321 525Q274 525 246 507T206 447T193 333Q193 249 206 202Z" />
<glyph unicode="R" glyph-name="R" horiz-adv-x="607" d="M528 126T595 38L593 20Q517 -5 432 -11L416 2Q356 114 312 207H227L233 0H70L79 191L70 645L342 646Q447 646 503 596T560 451Q560 392 530 341T445 255Q528 126 595 38ZM317 325Q389 351 389 436Q389
483 365 505T288 530L234 527L230 329L317 325Z" />
<glyph unicode="S" glyph-name="S" horiz-adv-x="510" d="M379 655T467 621L441 485L417 476Q335 529 275 529Q242 529 223 513T203 474Q203 449 227 432T305 390Q361 364 395 343T455 285T481 197Q481 139 450 92T360 18T226 -10Q125 -10 26 30L49 175L66 185Q108
150 157 131T243 111Q281 111 300 128T320 168Q320 195 295 213T217 255Q163 280 129 301T69 359T44 447Q44 506 75 553T163 628T293 655Q379 655 467 621Z" />
<glyph unicode="T" glyph-name="T" horiz-adv-x="510" d="M490 514L364 520H336L331 207L337 0H175L184 191L179 520H149L22 514L12 526L22 645H490L499 633L490 514Z" />
<glyph unicode="U" glyph-name="U" horiz-adv-x="644" d="M584 225Q585 112 515 51T314 -10Q188 -10 122 50T58 222L60 320L56 645H218L211 244Q210 180 237 150T321 120Q379 120 406 149T433 240L426 645H591L585 318L584 225Z" />
<glyph unicode="V" glyph-name="V" horiz-adv-x="599" d="M196 0L7 645H172L189 551L292 148H302L422 542L440 645H599L391 0H196Z" />
<glyph unicode="W" glyph-name="W" horiz-adv-x="907" d="M530 0L449 278H439L359 0H187L18 645H176L186 557L279 165H289L384 491L344 645H508L522 541L619 165H629L738 548L755 645H905L701 0H530Z" />
<glyph unicode="X" glyph-name="X" horiz-adv-x="620" d="M616 0H422L390 70L303 212L204 62L174 0H9L209 315L7 645H202L234 574L317 439L405 581L434 645H604L413 339L616 0Z" />
<glyph unicode="Y" glyph-name="Y" horiz-adv-x="573" d="M360 0H198L206 175L205 210L-1 645H170L185 597L279 372H290L396 591L416 645H583L355 214L353 175L360 0Z" />
<glyph unicode="Z" glyph-name="Z" horiz-adv-x="557" d="M220 122H414L528 130L534 122L521 -4L362 0H116L29 -5V111L334 523H150L36 514L30 521L42 647L180 645H454L522 646V529L220 122Z" />
<glyph unicode="[" glyph-name="bracketleft" horiz-adv-x="298" d="M302 570L200 556V-33L302 -46V-117L295 -125L71 -115L80 262L71 638L295 648L302 640V570Z" />
<glyph unicode="\" glyph-name="backslash" horiz-adv-x="282" d="M189 -116H299L308 -104L101 681H-6L-18 668L189 -116Z" />
<glyph unicode="]" glyph-name="bracketright" horiz-adv-x="298" d="M-5 -47L97 -33V556L-5 569V640L2 648L226 638L217 261L226 -115L2 -125L-5 -117V-47Z" />
<glyph unicode="^" glyph-name="asciicircum" horiz-adv-x="449" d="M424 139L336 118L232 390H224L116 118L105 111L15 144L153 490L168 499H295L435 152L424 139Z" />
<glyph unicode="_" glyph-name="underscore" horiz-adv-x="442" d="M449 -189H-5L-15 -178L-7 -90H447L457 -101L449 -189Z" />
<glyph unicode="`" glyph-name="grave" horiz-adv-x="388" d="M64 649L67 635Q166 578 273 520L287 521L324 581Q219 661 135 737L121 736L64 649Z" />
<glyph unicode="a" glyph-name="a" horiz-adv-x="490" d="M333 478T379 443T425 341Q425 346 420 231Q415 159 415 132Q415 106 435 106Q444 106 457 110L468 101L454 18Q421 -5 373 -9Q310 -3 292 63H285Q235 10 183 -10Q109 -9 67 30T24 136Q24 239 132 257L280
282V311Q280 342 267 355T223 369Q164 369 79 315L69 322L51 425Q145 478 250 478Q333 478 379 443ZM164 185T164 152Q164 128 176 115T211 102Q243 102 279 136L280 208L194 191Q164 185 164 152Z" />
<glyph unicode="b" glyph-name="b" horiz-adv-x="527" d="M408 474T456 414T504 247Q504 123 441 56T269 -11Q214 -11 148 13L72 -12L56 3L63 191L57 691L214 702L209 401H215Q264 452 320 474Q408 474 456 414ZM355 90T355 219Q355 348 275 348Q240 348 208 320L206
211L208 102Q238 90 264 90Q355 90 355 219Z" />
<glyph unicode="c" glyph-name="c" horiz-adv-x="384" d="M324 478T378 454L352 330L340 325Q287 350 255 350Q174 350 174 243Q174 113 265 113Q301 113 358 134L370 125L354 6Q294 -11 230 -11Q132 -11 78 51T23 227Q23 345 84 411T255 478Q324 478 378 454Z" />
<glyph unicode="d" glyph-name="d" horiz-adv-x="529" d="M463 133Q463 118 467 112T481 106Q491 106 504 110L514 101L500 18Q468 -5 419 -9Q353 -3 332 61H325Q281 18 227 -8Q130 -8 76 55T22 229Q22 349 85 412T261 476Q290 476 315 471L312 691L470 702L461
207L463 133ZM211 370T191 344T170 256Q171 112 250 112Q285 112 317 145L318 192L316 355Q283 370 254 370Q211 370 191 344Z" />
<glyph unicode="e" glyph-name="e" horiz-adv-x="480" d="M168 207Q174 155 202 130T286 105Q349 105 420 136L433 127L410 15Q340 -11 269 -11Q152 -11 88 53T23 233Q23 347 87 412T260 477Q352 477 402 428T452 289Q452 253 447 230L427 208L168 207ZM316 375T256
375Q185 375 170 287L314 293L316 306Q316 375 256 375Z" />
<glyph unicode="f" glyph-name="f" horiz-adv-x="342" d="M361 704T409 695L399 579L389 571Q335 593 302 593Q248 593 247 534L246 464H357L361 455L354 370H244L242 207L249 0H91L99 192L97 370H26L22 378L29 464H96L95 506Q95 601 153 652T318 704Q361 704 409 695Z" />
<glyph unicode="g" glyph-name="g" horiz-adv-x="507" d="M487 386T448 383L446 379Q459 353 459 319Q459 243 402 198T247 153Q214 153 190 157Q180 146 180 137Q180 120 202 114T276 102Q338 95 377 86T446 49T476 -27Q476 -76 447 -114T364 -174T240 -196Q145
-196 93 -159T41 -60Q75 -19 122 10V15Q52 42 52 111Q87 149 123 172V178Q46 216 46 308Q46 386 103 431T258 476Q315 476 362 457Q436 472 508 500L519 491V394Q487 386 448 383ZM323 245T323 315Q323 349 307 364T255 380Q217 380 200 365T182 316Q182 245 251
245Q323 245 323 315ZM344 -31T318 -22T233 -6L201 -3Q167 -28 167 -54Q167 -79 189 -93T255 -108Q344 -108 344 -55Q344 -31 318 -22Z" />
<glyph unicode="h" glyph-name="h" horiz-adv-x="536" d="M341 279Q341 348 285 348Q252 348 209 318L207 207L214 0H56L64 192L58 691L215 702L210 401H216Q271 453 335 474Q411 474 450 440T488 341L485 207L491 0H332L341 279Z" />
<glyph unicode="i" glyph-name="i" horiz-adv-x="261" d="M173 708T193 687T214 629Q214 589 191 566T130 542Q92 542 72 563T52 622Q52 661 74 684T136 708Q173 708 193 687ZM209 0H51L59 191L53 458L210 470L202 207L209 0Z" />
<glyph unicode="j" glyph-name="j" horiz-adv-x="294" d="M186 708T206 687T227 629Q227 589 204 566T143 542Q105 542 85 563T65 622Q65 661 87 684T149 708Q186 708 206 687ZM229 207L236 30Q236 -49 195 -103T62 -196L8 -126V-112Q49 -90 67 -57T86 26V191L82
370H9L0 379L7 464H86L233 471L238 468L229 207Z" />
<glyph unicode="k" glyph-name="k" horiz-adv-x="513" d="M214 0H56L64 192L58 691L215 702L207 207L214 0ZM410 170T507 26L506 10Q455 -1 359 -11L342 -3Q263 121 208 244V254L311 416L334 468H498L359 258Q410 170 507 26Z" />
<glyph unicode="l" glyph-name="l" horiz-adv-x="271" d="M214 0H56L64 192L58 691L215 702L207 207L214 0Z" />
<glyph unicode="m" glyph-name="m" horiz-adv-x="807" d="M611 280Q611 349 554 349Q520 349 480 320L477 207L483 0H326L335 280Q335 349 278 349Q244 349 201 319V207L208 0H51L59 191L53 458L202 470V401H208Q262 452 328 474Q441 474 471 399H476Q531 451
604 474Q679 474 718 440T757 341L753 207L759 0H602L611 280Z" />
<glyph unicode="n" glyph-name="n" horiz-adv-x="533" d="M335 279Q335 348 278 348Q245 348 202 318V207L209 0H51L59 191L53 458L203 470V401H210Q262 452 329 474Q405 474 444 440T482 341L479 207L485 0H326L335 279Z" />
<glyph unicode="o" glyph-name="o" horiz-adv-x="495" d="M361 478T416 418T472 243Q472 119 413 54T240 -11Q134 -11 79 49T23 223Q23 347 82 412T255 478Q361 478 416 418ZM204 371T188 345T171 252Q171 191 178 157T203 108T251 93Q290 93 306 119T323 213Q323
302 306 336T244 371Q204 371 188 345Z" />
<glyph unicode="p" glyph-name="p" horiz-adv-x="520" d="M402 474T449 414T497 246Q497 122 435 56T261 -11Q229 -11 205 -6L208 -185H50L58 191L51 458L202 470V401H208Q257 451 314 474Q402 474 449 414ZM348 90T348 219Q348 348 268 348Q234 348 201 319V207L203
100Q230 90 257 90Q348 90 348 219Z" />
<glyph unicode="q" glyph-name="q" horiz-adv-x="519" d="M470 470L461 207L468 -185H311L318 20V48H310Q273 14 225 -8Q129 -8 76 55T22 227Q22 347 85 411T253 476Q307 476 374 452L456 478L470 470ZM209 370T190 343T170 250Q172 112 249 112Q284 112 317 145L318
190L315 354Q283 370 252 370Q209 370 190 343Z" />
<glyph unicode="r" glyph-name="r" horiz-adv-x="358" d="M336 469T354 467V322L338 317Q325 324 302 324Q247 324 202 266V207L209 0H51L59 191L53 458L203 470V380H211Q256 469 330 469Q336 469 354 467Z" />
<glyph unicode="s" glyph-name="s" horiz-adv-x="392" d="M295 477T359 453L339 340L320 334Q253 376 205 376Q185 376 174 367T163 344Q163 326 181 315T236 289Q278 272 304 257T349 215T369 147Q369 105 348 69T283 11T172 -11Q98 -11 15 17L34 137L48 147Q81
120 121 104T191 88Q213 88 224 98T236 123Q236 140 219 151T163 178Q122 194 95 209T49 251T29 321Q29 390 81 433T223 477Q295 477 359 453Z" />
<glyph unicode="t" glyph-name="t" horiz-adv-x="348" d="M292 116T326 131L337 119L322 28Q272 0 218 -7Q145 -3 107 31T69 126L74 217L73 370H11L6 378L13 464H72V544L217 587L228 577L224 464H334L339 455L332 370H221L215 168Q215 139 225 128T262 116Q292
116 326 131Z" />
<glyph unicode="u" glyph-name="u" horiz-adv-x="527" d="M461 106T480 106Q490 106 503 110L513 101L499 18Q467 -5 418 -9Q355 -3 334 70H323Q267 12 206 -6Q131 -6 91 28T52 127L54 239L49 458L201 470L199 185Q199 120 251 120Q286 120 320 150V458L470 470L461
132Q461 106 480 106Z" />
<glyph unicode="v" glyph-name="v" horiz-adv-x="454" d="M226 147H235L302 378L320 468H457L308 0H136L10 465L158 471L171 387L226 147Z" />
<glyph unicode="w" glyph-name="w" horiz-adv-x="709" d="M209 158H217L274 383L291 468H444L453 392L501 158H510L564 383L581 468H713L571 0H422L363 272H352L283 0H128L10 465L153 471L164 392L209 158Z" />
<glyph unicode="x" glyph-name="x" horiz-adv-x="473" d="M248 323L300 416L326 467H463L333 237L467 5L300 -7L276 57L226 147L170 50L147 0H9L139 234L8 464L177 471L198 410L248 323Z" />
<glyph unicode="y" glyph-name="y" horiz-adv-x="457" d="M231 157H240L307 376L325 468H460L315 39Q281 -59 225 -110T62 -193L50 -192Q6 -148 -20 -96L-14 -82Q97 -63 165 0L-5 465L146 471L162 391L231 157Z" />
<glyph unicode="z" glyph-name="z" horiz-adv-x="430" d="M343 468L400 469L401 375L190 100H313L402 107L410 97L400 -3L273 0H97L24 -4V89L237 368H121L33 361L24 371L35 470L142 468H343Z" />
<glyph unicode="{" glyph-name="braceleft" horiz-adv-x="298" d="M254 658T290 647L296 636L283 557Q263 562 249 562Q198 562 198 506Q198 487 210 443Q222 399 222 378Q222 307 153 275V269Q187 254 204 227T222 168Q222 146 210 100Q198 58 198 39Q198 -18
249 -18Q263 -18 283 -13L296 -92L290 -103Q257 -113 219 -113Q149 -113 112 -82T74 7Q74 41 86 97Q95 140 95 161Q95 217 32 236V308Q95 329 95 384Q95 404 86 447Q74 503 74 537Q74 595 111 626T219 658Q254 658 290 647Z" />
<glyph unicode="|" glyph-name="bar" horiz-adv-x="304" d="M210 292L211 -249L103 -258L91 -244L92 280L93 797L203 806L214 795L210 292Z" />
<glyph unicode="}" glyph-name="braceright" horiz-adv-x="298" d="M43 -114T7 -103L1 -92L14 -13Q34 -18 48 -18Q99 -18 99 38Q99 57 87 101Q75 145 75 166Q75 237 144 269V275Q110 290 93 317T75 376Q75 398 87 444Q99 486 99 505Q99 562 48 562Q34 562 14 557L1
636L7 647Q40 657 78 657Q148 657 185 626T223 537Q223 503 211 447Q202 404 202 383Q202 327 265 308V236Q202 215 202 160Q202 140 211 97Q223 41 223 7Q223 -51 186 -82T78 -114Q43 -114 7 -103Z" />
<glyph unicode="~" glyph-name="asciitilde" horiz-adv-x="480" d="M136 226T123 215T95 189T76 168H62L20 220V234L106 335L120 342Q157 335 223 314Q312 287 332 287Q346 287 359 298T387 325T406 345H419L460 293V280L375 178L361 173Q334 177 250 202Q164
226 150 226Q136 226 123 215Z" />
<glyph unicode="&#xa0;" glyph-name="nbspace" horiz-adv-x="145" />
<glyph unicode="&#xa1;" glyph-name="exclamdown" horiz-adv-x="268" d="M93 225L183 238L198 222L210 -171L196 -189L69 -197L51 -178L93 225ZM113 313T93 334T73 392Q73 432 95 455T156 479Q194 479 214 458T235 399Q235 360 212 337T150 313Q113 313 93 334Z" />
<glyph unicode="&#xa2;" glyph-name="cent" horiz-adv-x="382" d="M301 152T358 173L370 164L354 45Q316 35 282 31L273 -126H167L155 -114L164 37Q96 56 60 115T23 266Q23 365 67 428T191 510L199 659H302L318 645L310 512Q350 506 378 493L352 369L340 364Q287
389 255 389Q174 389 174 282Q174 152 265 152Q301 152 358 173Z" />
<glyph unicode="&#xa3;" glyph-name="sterling" horiz-adv-x="460" d="M426 -4L287 0H21L15 8L22 95Q60 104 77 127T95 191L94 262H21L15 270L22 347H94L93 404Q92 496 150 546T314 596Q369 596 432 581L423 470L413 463Q348 495 300 495Q231 495 231 429L230
347H358L362 340L356 262H230L229 199Q229 166 221 146T192 109V105H327L432 113L437 105L426 -4Z" />
<glyph unicode="&#xa4;" glyph-name="currency" horiz-adv-x="434" d="M439 483L369 421Q389 386 389 345Q389 312 372 276L442 219L445 204L376 132H363L302 202Q269 181 225 181Q189 181 155 199L98 130L84 128L11 196L12 210L81 270Q61 304 61 345Q61 382 79
416L10 474L8 488L76 560L89 559L151 489Q185 509 225 509Q258 509 294 492L353 562L367 565L439 496V483ZM189 425T167 403T145 345Q145 309 167 287T225 265Q261 265 283 287T305 345Q305 381 283 403T225 425Q189 425 167 403Z" />
<glyph unicode="&#xa5;" glyph-name="yen" horiz-adv-x="548" d="M346 177H519L526 171L521 106H335L340 0H203L208 106H36L31 114L35 177H197L162 244H36L31 252L35 316H125L27 507H171L184 467L272 299H280L378 462L396 507H536L426 316H519L526 310L521 244H385L346
177Z" />
<glyph unicode="&#xa6;" glyph-name="brokenbar" horiz-adv-x="304" d="M211 379L103 365L92 375V797L203 806L214 795L211 379ZM211 -249L103 -258L91 -244L92 148L198 161L210 147L211 -249Z" />
<glyph unicode="&#xa7;" glyph-name="section" horiz-adv-x="437" d="M379 121T379 62Q379 19 354 -17T283 -75T180 -97Q146 -97 101 -89T21 -68L40 53L54 62Q89 34 127 18T196 2Q220 2 232 12T245 35Q245 50 227 62T170 91Q125 111 96 129T45 176T23 247Q23 291
48 331T116 396Q64 436 64 493Q64 537 89 574T160 633T263 655Q334 655 396 631L377 515L359 509Q291 553 242 553Q221 553 209 543T197 519Q197 504 214 493T272 464Q319 443 347 426T398 380T420 309Q420 265 395 226T325 161Q379 121 379 62ZM156 263T176 247T240
209Q286 232 286 268Q286 293 265 310T201 348Q156 324 156 287Q156 263 176 247Z" />
<glyph unicode="&#xa8;" glyph-name="dieresis" horiz-adv-x="388" d="M140 641T158 622T177 570Q177 534 157 513T102 492Q68 492 50 511T32 564Q32 599 52 620T107 641Q140 641 158 622ZM303 641T321 622T340 570Q340 534 320 513T265 492Q231 492 213 511T195
564Q195 599 215 620T270 641Q303 641 321 622Z" />
<glyph unicode="&#xa9;" glyph-name="copyright" horiz-adv-x="688" d="M433 598T501 560T607 453T645 293Q645 202 608 133T502 26T343 -12Q254 -12 186 26T80 133T42 293Q42 384 79 453T185 560T343 598Q433 598 501 560ZM270 546T214 515T126 426T95 293Q95
218 126 161T213 72T343 40Q417 40 473 71T561 160T592 293Q592 368 561 425T474 514T343 546Q270 546 214 515ZM412 464T456 451L437 368L431 364Q403 379 365 379Q331 379 316 362T301 304Q301 257 317 235T371 213Q405 213 437 223L446 219L438 137Q409 128
363 128Q191 128 191 293Q191 374 237 419T369 464Q412 464 456 451Z" />
<glyph unicode="&#xaa;" glyph-name="ordfeminine" horiz-adv-x="350" d="M241 653T273 629T305 558Q305 530 302 485L300 424Q300 405 311 405Q321 405 325 408L333 401L322 340Q298 321 268 321Q241 321 228 331T206 369H202Q172 334 131 320Q80 321 51 348T21
422Q21 495 97 507L196 521L197 536Q197 572 161 572Q122 572 62 538L54 542L41 618Q108 653 180 653Q241 653 273 629ZM127 455T127 433Q127 401 156 401Q176 401 196 418V468L149 460Q127 455 127 433Z" />
<glyph unicode="&#xab;" glyph-name="guillemotleft" horiz-adv-x="444" d="M18 238L149 419L223 380L226 365L132 228L226 92L223 78L149 39L18 214V238ZM212 238L343 419L417 380L420 365L326 228L420 92L417 78L343 39L212 214V238Z" />
<glyph unicode="&#xac;" glyph-name="logicalnot" horiz-adv-x="480" d="M435 45L339 38L328 48V205H29L19 216L27 311H429L435 303V45Z" />
<glyph unicode="&#xad;" glyph-name="softhyphen" horiz-adv-x="302" d="M275 218L38 181L26 193V291L263 327L275 316V218Z" />
<glyph unicode="&#xae;" glyph-name="registered" horiz-adv-x="449" d="M310 703T361 651T413 514Q413 429 362 377T225 325Q140 325 88 377T36 514Q36 599 88 651T225 703Q310 703 361 651ZM293 362T335 404T377 514Q377 582 335 624T225 666Q157 666 115 624T73
514Q73 446 115 404T225 362Q293 362 335 404ZM311 521T274 499Q289 477 323 435L322 429Q306 423 269 419L262 423Q244 453 229 483H201L204 423H149L151 479L149 618L240 619Q274 619 292 603T311 557Q311 521 274 499ZM254 578T221 579L204 578L202 524L232
522Q254 533 254 553Q254 578 221 579Z" />
<glyph unicode="&#xaf;" glyph-name="overscore" horiz-adv-x="388" d="M335 574H57L47 585L54 673H333L343 662L335 574Z" />
<glyph unicode="&#xb0;" glyph-name="degree" horiz-adv-x="292" d="M201 655T239 617T278 524Q278 469 240 431T146 392Q110 392 80 409T32 457T14 524Q14 560 31 590T79 637T146 655Q201 655 239 617ZM118 589T99 571T80 524Q80 496 99 477T146 458Q175 458
193 477T212 524Q212 552 193 570T146 589Q118 589 99 571Z" />
<glyph unicode="&#xb1;" glyph-name="plusminus" horiz-adv-x="480" d="M294 311H450L461 301L453 205H294V45L198 38L187 48V205H30L20 216L28 311H187V471L283 479L294 469V311ZM453 -128H30L20 -117L28 -22H450L461 -32L453 -128Z" />
<glyph unicode="&#xb2;" glyph-name="twosuperior" horiz-adv-x="367" d="M242 706T278 681T314 609Q314 580 296 546T235 461L190 407L192 404H269L338 410L344 402L330 307L231 312H63L36 310L30 315V386L123 482Q160 523 175 543T190 580Q190 607 156 607Q135
607 110 596T63 564H49L29 655Q113 706 187 706Q242 706 278 681Z" />
<glyph unicode="&#xb3;" glyph-name="threesuperior" horiz-adv-x="328" d="M216 707T253 681T290 611Q290 552 229 520V516Q299 496 299 426Q299 371 248 338T112 305Q71 305 31 313L24 399L32 406Q77 394 114 394Q180 394 180 430Q180 459 139 460H83L77 467L79
547L111 548Q134 549 149 559T165 587Q165 613 128 613Q98 613 50 590H37L18 670Q81 707 155 707Q216 707 253 681Z" />
<glyph unicode="&#xb4;" glyph-name="acute" horiz-adv-x="388" d="M325 649L322 635Q223 578 116 520L102 521L65 581Q170 661 254 737L268 736L325 649Z" />
<glyph unicode="&#xb5;" glyph-name="mu" horiz-adv-x="527" d="M497 18Q462 -8 419 -8Q383 -8 361 9T325 65H318Q271 11 220 -6Q206 -6 199 -5V-185H50L55 191L49 458L199 470V185Q199 120 252 120Q286 120 320 150V458L470 470L461 136Q461 104 481 104Q490
104 503 110L513 101L497 18Z" />
<glyph unicode="&#xb6;" glyph-name="paragraph" horiz-adv-x="539" d="M515 524H451L445 203L447 139Q447 58 401 6T238 -89L197 -17V-3Q251 26 274 56T297 133V186L291 525H252Q189 510 189 421Q189 335 263 283L208 203Q117 226 68 283T19 426Q19 531 85 588T275
645H516L525 634L515 524Z" />
<glyph unicode="&#xb7;" glyph-name="middot" horiz-adv-x="228" d="M154 338T174 317T195 259Q195 219 172 196T111 172Q73 172 53 193T33 252Q33 291 55 314T117 338Q154 338 174 317Z" />
<glyph unicode="&#xb8;" glyph-name="cedilla" horiz-adv-x="388" d="M249 -65Q291 -87 291 -126Q291 -160 264 -182T190 -204Q146 -204 104 -178L114 -114L121 -111Q152 -140 180 -140Q201 -140 201 -122Q201 -112 186 -104L137 -77L160 29H231L215 -46L249 -65Z" />
<glyph unicode="&#xb9;" glyph-name="onesuperior" horiz-adv-x="284" d="M211 451L215 312H90L95 439V572L15 557L7 563V658L199 706L216 694L211 451Z" />
<glyph unicode="&#xba;" glyph-name="ordmasculine" horiz-adv-x="351" d="M331 653T331 493Q331 319 169 319Q95 319 57 360T19 480Q19 653 181 653Q331 653 331 493ZM149 573T140 556T130 494Q130 438 140 417T177 396Q202 396 212 414T222 479Q222 533 212
553T174 573Q149 573 140 556Z" />
<glyph unicode="&#xbb;" glyph-name="guillemotright" horiz-adv-x="442" d="M420 222L289 41L215 80L212 95L306 232L212 368L215 382L289 421L420 246V222ZM483 222L352 41L278 80L275 95L369 232L275 368L278 382L352 421L483 246V222Z" />
<glyph unicode="&#xbc;" glyph-name="onequarter" horiz-adv-x="768" d="M146 -93L79 -52L73 -37L539 689L602 650L611 630L146 -93ZM15 502L7 508V603L199 651L216 639L211 396L215 257H90L95 384V517L15 502ZM690 80L695 8L688 0L591 -5L585 2L587 81H492L419
78L411 88V162L576 389H690L688 170H738L745 160L740 78L690 80ZM589 170V260H582L516 170H589Z" />
<glyph unicode="&#xbd;" glyph-name="onehalf" horiz-adv-x="799" d="M611 630L146 -93L79 -52L73 -37L539 689L602 650L611 630ZM211 396L215 257H90L95 384V517L15 502L7 508V603L199 651L216 639L211 396ZM675 394T711 369T747 297Q747 268 729 234T668 149L623
95L625 92H702L771 98L777 90L763 -5L664 0H496L469 -2L463 3V74L556 170Q593 211 608 231T623 268Q623 295 589 295Q568 295 543 284T496 252H482L462 343Q546 394 620 394Q675 394 711 369Z" />
<glyph unicode="&#xbe;" glyph-name="threequarters" horiz-adv-x="808" d="M186 -93L119 -52L113 -37L579 689L642 650L651 630L186 -93ZM299 316T248 283T112 250Q71 250 31 258L24 344L32 351Q77 339 114 339Q180 339 180 375Q180 404 139 405H83L77 412L79
492L111 493Q134 494 149 504T165 532Q165 558 128 558Q98 558 50 535H37L18 615Q81 652 155 652Q216 652 253 626T290 556Q290 497 229 465V461Q299 441 299 371Q299 316 248 283ZM729 80L734 8L727 0L630 -5L624 2L626 81H531L458 78L450 88V162L615 389H729L727
170H777L784 160L779 78L729 80ZM628 170V260H621L555 170H628Z" />
<glyph unicode="&#xbf;" glyph-name="questiondown" horiz-adv-x="345" d="M129 -194T55 -152T-19 -37Q-19 5 5 41T75 103L141 141L144 146L137 225L248 241L259 230L270 108L264 97L177 57Q124 30 124 -13Q124 -48 163 -66T298 -91L309 -105L280 -193L266 -201Q129
-194 55 -152ZM149 313T129 334T108 392Q108 432 131 455T192 479Q230 479 250 458T270 399Q270 360 248 337T186 313Q149 313 129 334Z" />
<glyph unicode="&#xc0;" glyph-name="Agrave" horiz-adv-x="611" d="M272 755T179 789L174 802L214 897L228 900Q335 837 443 784L418 718L403 714Q272 755 179 789ZM433 0L416 93L407 130L292 132L191 129L183 103L165 0H6L215 645H409L598 0H433ZM314 497H303L228
252L302 250L376 252L314 497Z" />
<glyph unicode="&#xc1;" glyph-name="Aacute" horiz-adv-x="611" d="M433 0L416 93L407 130L291 132L191 129L183 103L165 0H6L214 645H409L598 0H433ZM313 497H303L228 252L302 250L376 252L313 497ZM461 802L456 789Q363 755 232 714L217 718L192 784Q300 837
407 900L421 897L461 802Z" />
<glyph unicode="&#xc2;" glyph-name="Acircumflex" horiz-adv-x="611" d="M151 788Q227 839 292 898H322Q390 837 464 788L436 725H421L307 787Q324 797 239 749L194 725H179L151 788ZM433 0L416 93L407 130L292 132L191 129L183 103L165 0H6L215 645H409L598
0H433ZM314 497H303L228 252L302 250L376 252L314 497Z" />
<glyph unicode="&#xc3;" glyph-name="Atilde" horiz-adv-x="611" d="M433 0L416 93L407 130L291 132L191 129L183 103L165 0H6L214 645H409L598 0H433ZM313 497H303L228 252L302 250L376 252L313 497ZM490 836L416 737L402 731Q388 733 319 750Q266 766 248 766Q235
766 223 756T200 732T183 712H169L123 758V771L197 870L211 875Q233 872 298 855Q351 840 365 840Q378 840 389 850T412 874T430 895H444L490 849V836Z" />
<glyph unicode="&#xc4;" glyph-name="Adieresis" horiz-adv-x="611" d="M181 726T163 744T144 797Q144 833 164 854T220 875Q253 875 271 856T290 804Q290 768 270 747T215 726Q181 726 163 744ZM363 726T345 744T326 797Q326 833 346 854T402 875Q435 875 453
856T472 804Q472 768 452 747T397 726Q363 726 345 744ZM433 0L416 93L407 130L292 132L191 129L183 103L165 0H6L215 645H409L598 0H433ZM314 497H303L228 252L302 250L376 252L314 497Z" />
<glyph unicode="&#xc5;" glyph-name="Aring" horiz-adv-x="611" d="M433 0L416 93L407 130L291 132L191 129L183 103L165 0H6L214 645H409L598 0H433ZM313 497H303L228 252L302 250L376 252L313 497ZM359 914T384 889T409 818Q409 768 382 741T304 713Q256 713
231 738T205 812Q205 862 232 888T310 914Q359 914 384 889ZM269 849T269 815Q269 777 308 777Q345 777 345 812Q345 849 306 849Q269 849 269 815Z" />
<glyph unicode="&#xc6;" glyph-name="AE" horiz-adv-x="830" d="M814 0H406L401 93L389 202L192 146L173 103L141 0H-19L277 645H750L760 633L748 513L595 519H513L529 366L713 417L724 408L738 295L541 244L553 126H651L815 132L825 120L814 0ZM357 497H347L255
289L376 323L357 497Z" />
<glyph unicode="&#xc7;" glyph-name="Ccedilla" horiz-adv-x="516" d="M418 125T481 159L495 151L482 18Q420 -7 348 -10L340 -45L374 -64Q416 -86 416 -125Q416 -159 389 -181T315 -203Q271 -203 229 -177L239 -113L246 -110Q277 -139 305 -139Q326 -139 326
-121Q326 -111 311 -103L262 -76L277 -7Q152 7 88 90T24 317Q24 478 107 566T343 654Q434 654 509 621L481 488L469 482Q410 522 336 522Q265 522 230 477T195 335Q195 125 344 125Q418 125 481 159Z" />
<glyph unicode="&#xc8;" glyph-name="Egrave" horiz-adv-x="522" d="M252 755T159 789L154 802L194 897L208 900Q315 837 423 784L398 718L383 714Q252 755 159 789ZM506 120L496 0H70L79 191L70 645H501L510 633L499 513L343 519L232 518L230 389H336L441 392L450
380L440 260L325 263H227L226 207L229 127L335 126L497 132L506 120Z" />
<glyph unicode="&#xc9;" glyph-name="Eacute" horiz-adv-x="522" d="M506 120L496 0H70L79 191L70 645H502L511 633L500 513L343 519L233 518L231 389H336L441 392L450 380L440 260L325 263H228L227 207L229 127L335 126L497 132L506 120ZM441 802L436 789Q343
755 212 714L197 718L172 784Q280 837 387 900L401 897L441 802Z" />
<glyph unicode="&#xca;" glyph-name="Ecircumflex" horiz-adv-x="522" d="M130 788Q206 839 271 898H301Q369 837 443 788L415 725H400L286 787Q303 797 218 749L173 725H158L130 788ZM506 120L496 0H70L79 191L70 645H501L510 633L499 513L343 519L232 518L230
389H336L441 392L450 380L440 260L325 263H227L226 207L229 127L335 126L497 132L506 120Z" />
<glyph unicode="&#xcb;" glyph-name="Edieresis" horiz-adv-x="522" d="M160 726T142 744T123 797Q123 833 143 854T199 875Q232 875 250 856T269 804Q269 768 249 747T194 726Q160 726 142 744ZM342 726T324 744T305 797Q305 833 325 854T381 875Q414 875 432
856T451 804Q451 768 431 747T376 726Q342 726 324 744ZM506 120L496 0H70L79 191L70 645H501L510 633L499 513L343 519L232 518L230 389H336L441 392L450 380L440 260L325 263H227L226 207L229 127L335 126L497 132L506 120Z" />
<glyph unicode="&#xcc;" glyph-name="Igrave" horiz-adv-x="308" d="M181 837T289 784L264 718L249 714Q118 755 25 789L20 802L60 897L74 900Q181 837 289 784ZM233 0H70L79 191L70 645H235L226 207L233 0Z" />
<glyph unicode="&#xcd;" glyph-name="Iacute" horiz-adv-x="308" d="M233 0H70L79 191L70 645H236L227 207L233 0ZM307 802L302 789Q209 755 78 714L63 718L38 784Q146 837 253 900L267 897L307 802Z" />
<glyph unicode="&#xce;" glyph-name="Icircumflex" horiz-adv-x="308" d="M73 839T138 898H168Q236 837 310 788L282 725H267L153 787Q170 797 85 749L40 725H25L-3 788Q73 839 138 898ZM233 0H70L79 191L70 645H235L226 207L233 0Z" />
<glyph unicode="&#xcf;" glyph-name="Idieresis" horiz-adv-x="308" d="M107 875T125 856T144 804Q144 768 124 747T69 726Q35 726 17 744T-2 797Q-2 833 18 854T74 875Q107 875 125 856ZM272 875T290 856T309 804Q309 768 289 747T234 726Q200 726 182 744T163
797Q163 833 183 854T239 875Q272 875 290 856ZM233 0H70L79 191L70 645H235L226 207L233 0Z" />
<glyph unicode="&#xd0;" glyph-name="Eth" horiz-adv-x="686" d="M512 649T587 571T663 348Q663 176 577 84T331 -8Q240 -8 98 0L106 191L105 265H24L17 276L22 371H103L98 645L371 649Q512 649 587 571ZM493 115T493 309Q493 423 461 472T357 521Q304 521 260
517L257 371H361L368 360L363 265H255L254 207L257 123Q315 115 361 115Q493 115 493 309Z" />
<glyph unicode="&#xd1;" glyph-name="Ntilde" horiz-adv-x="701" d="M628 0H452L223 399H213L212 227L219 0H70L79 190L71 645H247L476 246H486L481 639L631 648L622 204L628 0ZM533 836L459 737L445 731Q431 733 362 750Q309 766 291 766Q278 766 266 756T243
732T226 712H212L166 758V771L240 870L254 875Q276 872 341 855Q394 840 408 840Q421 840 432 850T455 874T473 895H487L533 849V836Z" />
<glyph unicode="&#xd2;" glyph-name="Ograve" horiz-adv-x="647" d="M353 837T461 784L436 718L421 714Q290 755 197 789L192 802L232 897L246 900Q353 837 461 784ZM474 655T549 573T624 338Q624 171 543 80T312 -11Q174 -11 99 73T24 313Q24 477 105 566T337
655Q474 655 549 573ZM274 525T246 507T206 448T193 335Q193 250 206 202T247 133T325 112Q372 112 400 130T441 190T454 304Q454 388 441 435T400 504T322 525Q274 525 246 507Z" />
<glyph unicode="&#xd3;" glyph-name="Oacute" horiz-adv-x="647" d="M474 655T549 573T624 338Q624 172 542 81T311 -11Q174 -11 99 73T24 313Q24 477 105 566T336 655Q474 655 549 573ZM274 525T246 507T206 448T193 335Q193 250 206 202T247 133T325 112Q372
112 400 130T441 190T454 304Q454 388 441 435T400 504T322 525Q274 525 246 507ZM479 802L474 789Q381 755 250 714L235 718L210 784Q318 837 425 900L439 897L479 802Z" />
<glyph unicode="&#xd4;" glyph-name="Ocircumflex" horiz-adv-x="647" d="M244 839T309 898H339Q407 837 481 788L453 725H438L324 787Q341 797 256 749L211 725H196L168 788Q244 839 309 898ZM474 655T549 573T624 338Q624 171 543 80T312 -11Q174 -11 99 73T24
313Q24 477 105 566T337 655Q474 655 549 573ZM274 525T246 507T206 448T193 335Q193 250 206 202T247 133T325 112Q372 112 400 130T441 190T454 304Q454 388 441 435T400 504T322 525Q274 525 246 507Z" />
<glyph unicode="&#xd5;" glyph-name="Otilde" horiz-adv-x="647" d="M474 655T549 573T624 338Q624 172 542 81T311 -11Q174 -11 99 73T24 313Q24 477 105 566T336 655Q474 655 549 573ZM274 525T246 507T206 448T193 335Q193 250 206 202T247 133T325 112Q372
112 400 130T441 190T454 304Q454 388 441 435T400 504T322 525Q274 525 246 507ZM507 836L433 737L419 731Q405 733 336 750Q283 766 265 766Q252 766 240 756T217 732T200 712H186L140 758V771L214 870L228 875Q250 872 315 855Q368 840 382 840Q395 840 406
850T429 874T447 895H461L507 849V836Z" />
<glyph unicode="&#xd6;" glyph-name="Odieresis" horiz-adv-x="647" d="M270 875T288 856T307 804Q307 768 287 747T232 726Q198 726 180 744T161 797Q161 833 181 854T237 875Q270 875 288 856ZM452 875T470 856T489 804Q489 768 469 747T414 726Q380 726 362
744T343 797Q343 833 363 854T419 875Q452 875 470 856ZM474 655T549 573T624 338Q624 171 543 80T312 -11Q174 -11 99 73T24 313Q24 477 105 566T337 655Q474 655 549 573ZM274 525T246 507T206 448T193 335Q193 250 206 202T247 133T325 112Q372 112 400 130T441
190T454 304Q454 388 441 435T400 504T322 525Q274 525 246 507Z" />
<glyph unicode="&#xd7;" glyph-name="multiply" horiz-adv-x="480" d="M427 369L316 258L426 147V132L353 70L241 183L127 69L54 132V146L165 258L54 369V384L127 446L241 334L353 446L426 384L427 369Z" />
<glyph unicode="&#xd8;" glyph-name="Oslash" horiz-adv-x="647" d="M624 512T624 338Q624 171 543 80T312 -11Q273 -11 236 -3L176 -127L75 -90L68 -76L127 47Q24 130 24 313Q24 477 105 566T337 655Q381 655 418 646L474 761L572 724L581 708L526 595Q624 512
624 338ZM372 112T400 130T441 190T454 304Q454 388 441 435T400 504T322 525Q274 525 246 507T206 448T193 335Q193 250 206 202T247 133T325 112Q372 112 400 130Z" />
<glyph unicode="&#xd9;" glyph-name="Ugrave" horiz-adv-x="644" d="M353 837T461 784L436 718L421 714Q290 755 197 789L192 802L232 897L246 900Q353 837 461 784ZM584 225Q584 112 514 51T313 -10Q188 -10 122 50T58 222L60 320L56 645H218L211 244Q210 180
236 150T321 120Q379 120 406 149T433 240L426 645H590L585 318L584 225Z" />
<glyph unicode="&#xda;" glyph-name="Uacute" horiz-adv-x="644" d="M584 225Q585 112 515 51T314 -10Q188 -10 122 50T58 222L60 320L56 645H218L211 244Q210 180 237 150T321 120Q379 120 406 149T433 240L426 645H591L585 318L584 225ZM478 802L473 789Q380
755 249 714L234 718L209 784Q317 837 424 900L438 897L478 802Z" />
<glyph unicode="&#xdb;" glyph-name="Ucircumflex" horiz-adv-x="644" d="M244 839T309 898H339Q407 837 481 788L453 725H438L324 787Q341 797 256 749L211 725H196L168 788Q244 839 309 898ZM584 225Q584 112 514 51T313 -10Q188 -10 122 50T58 222L60 320L56
645H218L211 244Q210 180 236 150T321 120Q379 120 406 149T433 240L426 645H590L585 318L584 225Z" />
<glyph unicode="&#xdc;" glyph-name="Udieresis" horiz-adv-x="644" d="M270 875T288 856T307 804Q307 768 287 747T232 726Q198 726 180 744T161 797Q161 833 181 854T237 875Q270 875 288 856ZM452 875T470 856T489 804Q489 768 469 747T414 726Q380 726 362
744T343 797Q343 833 363 854T419 875Q452 875 470 856ZM584 225Q584 112 514 51T313 -10Q188 -10 122 50T58 222L60 320L56 645H218L211 244Q210 180 236 150T321 120Q379 120 406 149T433 240L426 645H590L585 318L584 225Z" />
<glyph unicode="&#xdd;" glyph-name="Yacute" horiz-adv-x="573" d="M360 0H198L206 175L205 210L-1 645H170L185 597L279 372H290L396 591L416 645H583L355 214L353 175L360 0ZM439 802L434 789Q341 755 210 714L195 718L170 784Q278 837 385 900L399 897L439 802Z" />
<glyph unicode="&#xde;" glyph-name="Thorn" horiz-adv-x="578" d="M453 549T509 498T566 347Q566 232 494 169T289 105L231 104L235 0H71L79 191L73 546L71 548H73L71 645H237L235 549H347Q453 549 509 498ZM355 234T374 261T394 335Q394 385 370 408T292 433L233
429L228 225L317 221Q355 234 374 261Z" />
<glyph unicode="&#xdf;" glyph-name="germandbls" horiz-adv-x="629" d="M445 351T463 334T520 295Q555 274 577 258T614 214T630 149Q630 106 609 70T545 11T437 -11Q366 -11 289 17L308 137L321 147Q352 120 388 104T453 88Q473 88 484 97T496 121Q496 138 481
151T432 185Q395 206 371 225T329 274T311 347Q311 385 324 408T364 456Q385 477 395 493T405 532Q405 593 332 593Q245 593 244 502L239 206L247 0H88L96 190L94 370H26L21 378L28 464H92V482Q92 587 160 645T341 704Q437 704 486 663T536 557Q536 521 523 497T482
443Q463 422 454 408T445 376Q445 351 463 334Z" />
<glyph unicode="&#xe0;" glyph-name="agrave" horiz-adv-x="490" d="M263 661T368 581L331 521L317 520Q210 578 111 635L108 649L165 736L179 737Q263 661 368 581ZM334 478T379 443T425 341Q425 308 420 231Q416 145 416 132Q416 106 435 106Q445 106 458 110L468
101L454 18Q422 -5 373 -9Q310 -3 292 63H285Q236 10 184 -10Q110 -9 67 30T24 136Q24 239 132 257L280 282L281 311Q281 342 268 355T224 369Q164 369 80 315L69 322L51 425Q145 478 250 478Q334 478 379 443ZM164 185T164 152Q164 102 210 102Q244 102 278 136L279
208L194 191Q164 185 164 152Z" />
<glyph unicode="&#xe1;" glyph-name="aacute" horiz-adv-x="490" d="M333 478T379 443T425 341Q425 346 420 231Q415 159 415 132Q415 106 435 106Q444 106 457 110L468 101L454 18Q421 -5 373 -9Q310 -3 292 63H285Q235 10 183 -10Q109 -9 67 30T24 136Q24 239
132 257L280 282V311Q280 342 267 355T223 369Q164 369 79 315L69 322L51 425Q145 478 250 478Q333 478 379 443ZM164 185T164 152Q164 128 176 115T211 102Q243 102 279 136L280 208L194 191Q164 185 164 152ZM391 649L388 635Q289 578 182 520L168 521L131 581Q236
661 320 737L334 736L391 649Z" />
<glyph unicode="&#xe2;" glyph-name="acircumflex" horiz-adv-x="490" d="M135 642T223 732H254Q321 662 404 587L365 528H350Q273 583 239 614Q207 587 128 528H112L73 587Q135 642 223 732ZM334 478T379 443T425 341Q425 308 420 231Q416 145 416 132Q416 106
435 106Q445 106 458 110L468 101L454 18Q422 -5 373 -9Q310 -3 292 63H285Q236 10 184 -10Q110 -9 67 30T24 136Q24 239 132 257L280 282L281 311Q281 342 268 355T224 369Q164 369 80 315L69 322L51 425Q145 478 250 478Q334 478 379 443ZM164 185T164 152Q164
102 210 102Q244 102 278 136L279 208L194 191Q164 185 164 152Z" />
<glyph unicode="&#xe3;" glyph-name="atilde" horiz-adv-x="490" d="M333 478T379 443T425 341Q425 346 420 231Q415 159 415 132Q415 106 435 106Q444 106 457 110L468 101L454 18Q421 -5 373 -9Q310 -3 292 63H285Q235 10 183 -10Q109 -9 67 30T24 136Q24 239
132 257L280 282V311Q280 342 267 355T223 369Q164 369 79 315L69 322L51 425Q145 478 250 478Q333 478 379 443ZM164 185T164 152Q164 128 176 115T211 102Q243 102 279 136L280 208L194 191Q164 185 164 152ZM421 659L347 560L333 554Q319 556 250 573Q197 589
179 589Q166 589 154 579T131 555T114 535H100L54 581V594L128 693L142 698Q164 695 229 678Q282 663 296 663Q309 663 320 673T343 697T361 718H375L421 672V659Z" />
<glyph unicode="&#xe4;" glyph-name="adieresis" horiz-adv-x="490" d="M185 698T203 679T222 627Q222 591 202 570T147 549Q113 549 95 567T76 620Q76 656 96 677T152 698Q185 698 203 679ZM367 698T385 679T404 627Q404 591 384 570T329 549Q295 549 277 567T258
620Q258 656 278 677T334 698Q367 698 385 679ZM334 478T379 443T425 341Q425 308 420 231Q416 145 416 132Q416 106 435 106Q445 106 458 110L468 101L454 18Q422 -5 373 -9Q310 -3 292 63H285Q236 10 184 -10Q110 -9 67 30T24 136Q24 239 132 257L280 282L281
311Q281 342 268 355T224 369Q164 369 80 315L69 322L51 425Q145 478 250 478Q334 478 379 443ZM164 185T164 152Q164 102 210 102Q244 102 278 136L279 208L194 191Q164 185 164 152Z" />
<glyph unicode="&#xe5;" glyph-name="aring" horiz-adv-x="490" d="M333 478T379 443T425 341Q425 346 420 231Q415 159 415 132Q415 106 435 106Q444 106 457 110L468 101L454 18Q421 -5 373 -9Q310 -3 292 63H285Q235 10 183 -10Q109 -9 67 30T24 136Q24 239
132 257L280 282V311Q280 342 267 355T223 369Q164 369 79 315L69 322L51 425Q145 478 250 478Q333 478 379 443ZM164 185T164 152Q164 128 176 115T211 102Q243 102 279 136L280 208L194 191Q164 185 164 152ZM290 737T315 712T340 641Q340 591 313 564T235 536Q187
536 162 561T136 635Q136 685 163 711T241 737Q290 737 315 712ZM200 672T200 638Q200 600 239 600Q276 600 276 635Q276 672 237 672Q200 672 200 638Z" />
<glyph unicode="&#xe6;" glyph-name="ae" horiz-adv-x="701" d="M579 477T627 426T676 282Q676 262 675 252L661 234L403 210Q408 155 434 130T513 105Q577 105 645 136L658 128L634 15Q567 -11 499 -11Q378 -11 321 70Q267 16 202 -10Q121 -9 72 28T23 133Q23
183 50 217T131 256L275 269V311Q275 341 262 355T219 369Q165 369 77 315L66 321L48 425Q138 478 239 478Q322 478 362 432Q414 477 494 477Q579 477 627 426ZM448 374T425 348T402 282L537 298Q543 374 483 374Q448 374 425 348ZM239 103T285 141Q279 171 276
196L198 186Q165 181 165 148Q165 103 210 103Q239 103 285 141Z" />
<glyph unicode="&#xe7;" glyph-name="ccedilla" horiz-adv-x="384" d="M301 113T358 134L370 125L354 6Q310 -7 254 -10L247 -45L281 -64Q323 -86 323 -125Q323 -159 296 -181T222 -203Q178 -203 136 -177L146 -113L153 -110Q184 -139 212 -139Q233 -139 233 -121Q233
-110 218 -103L169 -76L184 -7Q107 7 65 68T23 227Q23 345 84 411T255 478Q324 478 378 454L352 330L340 325Q287 350 255 350Q174 350 174 243Q174 113 265 113Q301 113 358 134Z" />
<glyph unicode="&#xe8;" glyph-name="egrave" horiz-adv-x="480" d="M222 577T123 634L120 648L177 735L191 736Q275 660 380 580L343 520L329 519Q222 577 123 634ZM168 207Q174 155 202 130T286 105Q349 105 420 136L433 127L410 15Q340 -11 269 -11Q152 -11
88 53T23 233Q23 347 87 412T260 477Q352 477 402 428T452 289Q452 253 447 230L427 208L168 207ZM316 375T256 375Q185 375 170 287L314 293L316 306Q316 375 256 375Z" />
<glyph unicode="&#xe9;" glyph-name="eacute" horiz-adv-x="480" d="M168 207Q174 155 202 130T286 105Q349 105 420 136L433 127L410 15Q340 -11 269 -11Q152 -11 88 53T23 233Q23 347 87 412T260 477Q352 477 402 428T452 289Q452 253 447 230L427 208L168 207ZM316
375T256 375Q185 375 170 287L314 293L316 306Q316 375 256 375ZM403 904L400 890Q301 833 194 775L180 776L143 836Q248 916 332 992L346 991L403 904Z" />
<glyph unicode="&#xea;" glyph-name="ecircumflex" horiz-adv-x="480" d="M85 586Q147 641 235 731H266Q333 661 416 586L377 527H362Q285 582 251 613Q219 586 140 527H124L85 586ZM168 207Q174 155 202 130T286 105Q349 105 420 136L433 127L410 15Q340 -11
269 -11Q152 -11 88 53T23 233Q23 347 87 412T260 477Q352 477 402 428T452 289Q452 253 447 230L427 208L168 207ZM316 375T256 375Q185 375 170 287L314 293L316 306Q316 375 256 375Z" />
<glyph unicode="&#xeb;" glyph-name="edieresis" horiz-adv-x="480" d="M124 548T106 566T87 619Q87 655 107 676T163 697Q196 697 214 678T233 626Q233 590 213 569T158 548Q124 548 106 566ZM306 548T288 566T269 619Q269 655 289 676T345 697Q378 697 396 678T415
626Q415 590 395 569T340 548Q306 548 288 566ZM168 207Q174 155 202 130T286 105Q349 105 420 136L433 127L410 15Q340 -11 269 -11Q152 -11 88 53T23 233Q23 347 87 412T260 477Q352 477 402 428T452 289Q452 253 447 230L427 208L168 207ZM316 375T256 375Q185
375 170 287L314 293L316 306Q316 375 256 375Z" />
<glyph unicode="&#xec;" glyph-name="igrave" horiz-adv-x="261" d="M157 661T262 581L225 521L211 520Q104 578 5 635L2 649L59 736L73 737Q157 661 262 581ZM209 0H51L59 191L53 458L210 470L202 207L209 0Z" />
<glyph unicode="&#xed;" glyph-name="iacute" horiz-adv-x="261" d="M209 0H51L59 191L53 458L210 470L202 207L209 0ZM541 649L538 635Q439 578 332 520L318 521L281 581Q386 661 470 737L484 736L541 649Z" />
<glyph unicode="&#xee;" glyph-name="icircumflex" horiz-adv-x="261" d="M30 642T118 732H149Q216 662 299 587L260 528H245Q168 583 134 614Q102 587 23 528H7L-32 587Q30 642 118 732ZM209 0H51L59 191L53 458L210 470L202 207L209 0Z" />
<glyph unicode="&#xef;" glyph-name="idieresis" horiz-adv-x="261" d="M87 698T105 679T124 627Q124 591 104 570T49 549Q15 549 -3 567T-22 620Q-22 656 -2 677T54 698Q87 698 105 679ZM252 698T270 679T289 627Q289 591 269 570T214 549Q180 549 162 567T143
620Q143 656 163 677T219 698Q252 698 270 679ZM209 0H51L59 191L53 458L210 470L202 207L209 0Z" />
<glyph unicode="&#xf0;" glyph-name="eth" horiz-adv-x="501" d="M471 452T471 249Q471 124 412 57T242 -11Q139 -11 84 48T28 223Q28 337 83 398T244 459Q263 459 272 458Q246 494 204 527L90 458L77 463L45 523L131 575Q99 592 44 618V636L145 710H155Q211 680
254 649L359 712L372 708L404 648L318 596Q471 452 471 249ZM294 91T310 122T327 232Q327 288 320 330Q292 351 253 351Q209 351 191 323T172 225Q172 151 191 121T253 91Q294 91 310 122Z" />
<glyph unicode="&#xf1;" glyph-name="ntilde" horiz-adv-x="533" d="M335 279Q335 348 278 348Q245 348 202 318V207L209 0H51L59 191L53 458L203 470V401H210Q262 452 329 474Q405 474 444 440T482 341L479 207L485 0H326L335 279ZM467 659L393 560L379 554Q365
556 296 573Q243 589 225 589Q212 589 200 579T177 555T160 535H146L100 581V594L174 693L188 698Q210 695 275 678Q328 663 342 663Q355 663 366 673T389 697T407 718H421L467 672V659Z" />
<glyph unicode="&#xf2;" glyph-name="ograve" horiz-adv-x="495" d="M274 661T379 581L342 521L328 520Q221 578 122 635L119 649L176 736L190 737Q274 661 379 581ZM361 478T416 418T472 243Q472 119 413 54T240 -11Q134 -11 79 49T23 223Q23 347 82 412T255
478Q361 478 416 418ZM204 371T188 345T171 252Q171 191 178 157T203 108T251 93Q290 93 306 119T323 213Q323 302 306 336T244 371Q204 371 188 345Z" />
<glyph unicode="&#xf3;" glyph-name="oacute" horiz-adv-x="495" d="M361 478T416 418T472 243Q472 119 413 54T240 -11Q134 -11 79 49T23 223Q23 347 82 412T255 478Q361 478 416 418ZM204 371T188 345T171 252Q171 191 178 157T203 108T251 93Q290 93 306 119T323
213Q323 302 306 336T244 371Q204 371 188 345ZM402 649L399 635Q300 578 193 520L179 521L142 581Q247 661 331 737L345 736L402 649Z" />
<glyph unicode="&#xf4;" glyph-name="ocircumflex" horiz-adv-x="495" d="M146 642T234 732H265Q332 662 415 587L376 528H361Q284 583 250 614Q218 587 139 528H123L84 587Q146 642 234 732ZM361 478T416 418T472 243Q472 119 413 54T240 -11Q134 -11 79 49T23
223Q23 347 82 412T255 478Q361 478 416 418ZM204 371T188 345T171 252Q171 191 178 157T203 108T251 93Q290 93 306 119T323 213Q323 302 306 336T244 371Q204 371 188 345Z" />
<glyph unicode="&#xf5;" glyph-name="otilde" horiz-adv-x="495" d="M361 478T416 418T472 243Q472 119 413 54T240 -11Q134 -11 79 49T23 223Q23 347 82 412T255 478Q361 478 416 418ZM204 371T188 345T171 252Q171 191 178 157T203 108T251 93Q290 93 306 119T323
213Q323 302 306 336T244 371Q204 371 188 345ZM432 659L358 560L344 554Q330 556 261 573Q208 589 190 589Q177 589 165 579T142 555T125 535H111L65 581V594L139 693L153 698Q175 695 240 678Q293 663 307 663Q320 663 331 673T354 697T372 718H386L432 672V659Z"
/>
<glyph unicode="&#xf6;" glyph-name="odieresis" horiz-adv-x="495" d="M195 698T213 679T232 627Q232 591 212 570T157 549Q123 549 105 567T86 620Q86 656 106 677T162 698Q195 698 213 679ZM377 698T395 679T414 627Q414 591 394 570T339 549Q305 549 287 567T268
620Q268 656 288 677T344 698Q377 698 395 679ZM361 478T416 418T472 243Q472 119 413 54T240 -11Q134 -11 79 49T23 223Q23 347 82 412T255 478Q361 478 416 418ZM204 371T188 345T171 252Q171 191 178 157T203 108T251 93Q290 93 306 119T323 213Q323 302 306
336T244 371Q204 371 188 345Z" />
<glyph unicode="&#xf7;" glyph-name="divide" horiz-adv-x="480" d="M456 205H33L23 216L31 311H453L464 301L456 205ZM265 159T282 141T300 92Q300 57 281 37T228 17Q196 17 179 35T161 86Q161 119 180 139T233 159Q265 159 282 141ZM265 444T282 426T300 377Q300
342 281 322T228 302Q196 302 179 320T161 371Q161 404 180 424T233 444Q265 444 282 426Z" />
<glyph unicode="&#xf8;" glyph-name="oslash" horiz-adv-x="495" d="M472 357T472 243Q472 119 413 54T240 -11Q203 -11 175 -4L103 -129L13 -84L9 -71L78 49Q23 109 23 223Q23 347 82 412T255 478Q293 478 320 471L384 580L470 537L478 522L417 417Q472 357 472
243ZM290 93T306 119T323 213Q323 302 306 336T244 371Q204 371 188 345T171 252Q171 191 178 157T203 108T251 93Q290 93 306 119Z" />
<glyph unicode="&#xf9;" glyph-name="ugrave" horiz-adv-x="527" d="M285 661T390 581L353 521L339 520Q232 578 133 635L130 649L187 736L201 737Q285 661 390 581ZM461 106T480 106Q490 106 503 110L513 101L499 18Q467 -5 418 -9Q355 -3 334 70H323Q267 12
206 -6Q131 -6 91 28T52 127L54 239L49 458L201 470L199 185Q199 120 251 120Q286 120 320 150V458L470 470L461 132Q461 106 480 106Z" />
<glyph unicode="&#xfa;" glyph-name="uacute" horiz-adv-x="527" d="M461 106T480 106Q490 106 503 110L513 101L499 18Q467 -5 418 -9Q355 -3 334 70H323Q267 12 206 -6Q131 -6 91 28T52 127L54 239L49 458L201 470L199 185Q199 120 251 120Q286 120 320 150V458L470
470L461 132Q461 106 480 106ZM413 649L410 635Q311 578 204 520L190 521L153 581Q258 661 342 737L356 736L413 649Z" />
<glyph unicode="&#xfb;" glyph-name="ucircumflex" horiz-adv-x="527" d="M157 642T245 732H276Q343 662 426 587L387 528H372Q295 583 261 614Q229 587 150 528H134L95 587Q157 642 245 732ZM461 106T480 106Q490 106 503 110L513 101L499 18Q467 -5 418 -9Q355
-3 334 70H323Q267 12 206 -6Q131 -6 91 28T52 127L54 239L49 458L201 470L199 185Q199 120 251 120Q286 120 320 150V458L470 470L461 132Q461 106 480 106Z" />
<glyph unicode="&#xfc;" glyph-name="udieresis" horiz-adv-x="527" d="M207 698T225 679T244 627Q244 591 224 570T169 549Q135 549 117 567T98 620Q98 656 118 677T174 698Q207 698 225 679ZM389 698T407 679T426 627Q426 591 406 570T351 549Q317 549 299 567T280
620Q280 656 300 677T356 698Q389 698 407 679ZM461 106T480 106Q490 106 503 110L513 101L499 18Q467 -5 418 -9Q355 -3 334 70H323Q267 12 206 -6Q131 -6 91 28T52 127L54 239L49 458L201 470L199 185Q199 120 251 120Q286 120 320 150V458L470 470L461 132Q461
106 480 106Z" />
<glyph unicode="&#xfd;" glyph-name="yacute" horiz-adv-x="457" d="M231 157H240L307 376L325 468H460L315 39Q281 -59 225 -110T62 -193L50 -192Q6 -148 -20 -96L-14 -82Q97 -63 165 0L-5 465L146 471L162 391L231 157ZM386 649L383 635Q284 578 177 520L163
521L126 581Q231 661 315 737L329 736L386 649Z" />
<glyph unicode="&#xfe;" glyph-name="thorn" horiz-adv-x="526" d="M407 474T455 414T503 247Q503 123 441 56T268 -11Q239 -11 209 -5L211 -185H57L63 191L56 691L214 702L209 401H214Q266 453 319 474Q407 474 455 414ZM355 90T355 226Q353 348 275 348Q241
348 208 319L206 210L207 102Q237 90 262 90Q355 90 355 226Z" />
<glyph unicode="&#xff;" glyph-name="ydieresis" horiz-adv-x="457" d="M180 698T198 679T217 627Q217 591 197 570T142 549Q108 549 90 567T71 620Q71 656 91 677T147 698Q180 698 198 679ZM362 698T380 679T399 627Q399 591 379 570T324 549Q290 549 272 567T253
620Q253 656 273 677T329 698Q362 698 380 679ZM232 157H241L308 376L326 468H461L315 39Q282 -58 226 -109T63 -193L51 -192Q8 -151 -19 -96L-13 -82Q97 -62 166 0L-5 465L147 471L163 391L232 157Z" />
<glyph unicode="&#x2013;" glyph-name="endash" horiz-adv-x="460" d="M467 205H-5L-15 216L-7 312H465L475 301L467 205Z" />
<glyph unicode="&#x2014;" glyph-name="emdash" horiz-adv-x="869" d="M880 205H-8L-18 216L-10 312H877L887 301L880 205Z" />
<glyph unicode="&#x2018;" glyph-name="quoteleft" horiz-adv-x="226" d="M34 406T34 474Q34 558 135 653L189 618L191 608Q151 564 151 521Q151 470 192 443V431Q140 391 92 371Q34 406 34 474Z" />
<glyph unicode="&#x2019;" glyph-name="quoteright" horiz-adv-x="226" d="M193 619T193 551Q193 467 92 372L38 407L36 417Q76 461 76 504Q76 555 35 582V594Q87 634 135 654Q193 619 193 551Z" />
<glyph unicode="&#x201a;" glyph-name="quotesinglbase" horiz-adv-x="228" d="M448 113T448 59Q448 -39 315 -133L264 -89L263 -77Q319 -30 319 25Q319 61 286 91L287 105Q347 138 402 153Q448 113 448 59Z" />
<glyph unicode="&#x201c;" glyph-name="quotedblleft" horiz-adv-x="404" d="M214 406T214 474Q214 558 315 653L369 618L371 608Q331 564 331 521Q331 470 372 443V431Q320 391 272 371Q214 406 214 474ZM32 406T32 474Q32 558 133 653L187 618L189 608Q149 564
149 521Q149 470 190 443V431Q138 391 90 371Q32 406 32 474Z" />
<glyph unicode="&#x201d;" glyph-name="quotedblright" horiz-adv-x="399" d="M366 619T366 551Q366 467 265 372L211 407L209 417Q249 461 249 504Q249 555 208 582V594Q260 634 308 654Q366 619 366 551ZM448 619T448 551Q448 467 347 372L293 407L291 417Q331
461 331 504Q331 555 290 582V594Q342 634 390 654Q448 619 448 551Z" />
<glyph unicode="&#x201e;" glyph-name="quotedblbase" horiz-adv-x="410" d="M372 113T372 59Q372 -39 239 -133L188 -89L187 -77Q243 -30 243 25Q243 61 210 91L211 105Q271 138 326 153Q372 113 372 59ZM448 113T448 59Q448 -39 315 -133L264 -89L263 -77Q319
-30 319 25Q319 61 286 91L287 105Q347 138 402 153Q448 113 448 59Z" />
<glyph unicode="&#x2022;" glyph-name="bullet" horiz-adv-x="287" d="M195 404T221 377T248 302Q248 250 218 220T139 189Q90 189 64 216T38 292Q38 343 67 373T147 404Q195 404 221 377Z" />
<glyph unicode="&#x2039;" glyph-name="guilsinglleft" horiz-adv-x="250" d="M23 238L154 419L228 380L231 365L137 228L231 92L228 78L154 39L23 214V238Z" />
<glyph unicode="&#x203a;" glyph-name="guilsinglright" horiz-adv-x="252" d="M232 222L101 41L27 80L24 95L118 232L24 368L27 382L101 421L232 246V222Z" />
</font>
</defs>
</svg>
